<?xml version="1.0" encoding="UTF-8" standalone="no" ?>
<!DOCTYPE svg PUBLIC "-//W3C//DTD SVG 1.1//EN" "http://www.w3.org/Graphics/SVG/1.1/DTD/svg11.dtd">
<svg xmlns="http://www.w3.org/2000/svg" xmlns:xlink="http://www.w3.org/1999/xlink" version="1.1" width="1080" height="1080" viewBox="0 0 1080 1080" xml:space="preserve">
<desc>Created with Fabric.js 5.2.4</desc>
<defs>
</defs>
<rect x="0" y="0" width="100%" height="100%" fill="transparent"></rect>
<g transform="matrix(1 0 0 1 540 540)" id="c3cbda42-5363-4427-a2bf-376ee5ea3341"  >
<rect style="stroke: none; stroke-width: 1; stroke-dasharray: none; stroke-linecap: butt; stroke-dashoffset: 0; stroke-linejoin: miter; stroke-miterlimit: 4; fill: rgb(255,255,255); fill-rule: nonzero; opacity: 1; visibility: hidden;" vector-effect="non-scaling-stroke"  x="-540" y="-540" rx="0" ry="0" width="1080" height="1080" />
</g>
<g transform="matrix(1 0 0 1 540 540)" id="e09c5ea1-2ca3-437d-b3b9-ab619d9b0d13"  >
</g>
<g transform="matrix(45 0 0 45 540 540)"  >
<g style=""   >
		<g transform="matrix(1 0 0 1 0 -0.07)"  >
<path style="stroke: none; stroke-width: 1; stroke-dasharray: none; stroke-linecap: butt; stroke-dashoffset: 0; stroke-linejoin: miter; stroke-miterlimit: 4; fill: rgb(24,119,242); fill-rule: nonzero; opacity: 1;" vector-effect="non-scaling-stroke"  transform=" translate(-12, -11.93)" d="M 24 12 C 24 5.3719 18.6281 0 12 0 C 5.3719 0 0 5.3719 0 12 C 0 17.9907 4.3875 22.9547 10.125 23.8547 L 10.125 15.4688 L 7.0781 15.4688 L 7.0781 12 L 10.125 12 L 10.125 9.35625 C 10.125 6.3492 11.9156 4.6875 14.6578 4.6875 C 15.9703 4.6875 17.3438 4.92188 17.3438 4.92188 L 17.3438 7.875 L 15.8297 7.875 C 14.3391 7.875 13.875 8.8008 13.875 9.75 L 13.875 12 L 17.2031 12 L 16.6711 15.4688 L 13.875 15.4688 L 13.875 23.8547 C 19.6125 22.9547 24 17.9907 24 12 Z" stroke-linecap="round" />
</g>
		<g transform="matrix(1 0 0 1 0.21 2.34)"  >
<path style="stroke: none; stroke-width: 1; stroke-dasharray: none; stroke-linecap: butt; stroke-dashoffset: 0; stroke-linejoin: miter; stroke-miterlimit: 4; fill: rgb(255,255,255); fill-rule: nonzero; opacity: 1;" vector-effect="non-scaling-stroke"  transform=" translate(-12.21, -14.34)" d="M 16.6711 15.4688 L 17.2031 12 L 13.875 12 L 13.875 9.75 C 13.875 8.8008 14.3391 7.875 15.8297 7.875 L 17.3438 7.875 L 17.3438 4.92188 C 17.3438 4.92188 15.9703 4.6875 14.6578 4.6875 C 11.9157 4.6875 10.125 6.3492 10.125 9.35625 L 10.125 12 L 7.07812 12 L 7.07812 15.4688 L 10.125 15.4688 L 10.125 23.8547 C 10.7367 23.9508 11.3625 24 12 24 C 12.6375 24 13.2633 23.9508 13.875 23.8547 L 13.875 15.4688 L 16.6711 15.4688 Z" stroke-linecap="round" />
</g>
</g>
</g>
</svg>