<?xml version="1.0" encoding="UTF-8" standalone="no" ?>
<!DOCTYPE svg PUBLIC "-//W3C//DTD SVG 1.1//EN" "http://www.w3.org/Graphics/SVG/1.1/DTD/svg11.dtd">
<svg xmlns="http://www.w3.org/2000/svg" xmlns:xlink="http://www.w3.org/1999/xlink" version="1.1" width="1080" height="1080" viewBox="0 0 1080 1080" xml:space="preserve">
<desc>Created with Fabric.js 5.2.4</desc>
<defs>
</defs>
<rect x="0" y="0" width="100%" height="100%" fill="transparent"></rect>
<g transform="matrix(1 0 0 1 540 540)" id="d65bb6ed-a9cb-4de5-aa53-638a6bc31687"  >
<rect style="stroke: none; stroke-width: 1; stroke-dasharray: none; stroke-linecap: butt; stroke-dashoffset: 0; stroke-linejoin: miter; stroke-miterlimit: 4; fill: rgb(255,255,255); fill-rule: nonzero; opacity: 1; visibility: hidden;" vector-effect="non-scaling-stroke"  x="-540" y="-540" rx="0" ry="0" width="1080" height="1080" />
</g>
<g transform="matrix(1 0 0 1 540 540)" id="85370ac9-54bb-4897-b42f-d21064f756ec"  >
</g>
<g transform="matrix(44.61 0 0 44.61 540 540)"  >
<g style=""   >
		<g transform="matrix(1 0 0 1 -6.67 3.06)"  >
<path style="stroke: none; stroke-width: 1; stroke-dasharray: none; stroke-linecap: butt; stroke-dashoffset: 0; stroke-linejoin: miter; stroke-miterlimit: 4; fill: rgb(0,242,234); fill-rule: evenodd; opacity: 1;" vector-effect="non-scaling-stroke"  transform=" translate(-4.33, -15.06)" d="M 8.45704 9.45091 L 8.45704 8.51481 C 8.13213 8.46881 7.80453 8.44491 7.47638 8.44336 C 3.46376 8.44336 0.199219 11.7085 0.199219 15.7211 C 0.199219 18.1826 1.4294 20.3615 3.306 21.6791 C 2.04946 20.3353 1.35088 18.564 1.3519 16.7243 C 1.3519 12.7688 4.52353 9.54326 8.45704 9.45091 Z" stroke-linecap="round" />
</g>
		<g transform="matrix(1 0 0 1 2.09 -1.98)"  >
<path style="stroke: none; stroke-width: 1; stroke-dasharray: none; stroke-linecap: butt; stroke-dashoffset: 0; stroke-linejoin: miter; stroke-miterlimit: 4; fill: rgb(0,242,234); fill-rule: evenodd; opacity: 1;" vector-effect="non-scaling-stroke"  transform=" translate(-13.09, -10.02)" d="M 8.62755 20.0467 C 10.4179 20.0467 11.8784 18.6225 11.9449 16.8476 L 11.9509 1.00316 L 14.8455 1.00316 C 14.7837 0.672341 14.7525 0.336543 14.7521 0 L 10.7988 0 L 10.7922 15.845 C 10.7263 17.6194 9.2652 19.043 7.47545 19.043 C 6.9381 19.0432 6.40884 18.9123 5.93359 18.6616 C 6.24044 19.0897 6.64485 19.4386 7.1133 19.6795 C 7.58175 19.9204 8.1008 20.0462 8.62755 20.0467 Z M 20.2529 6.38093 L 20.2529 5.50033 C 19.1891 5.50133 18.1482 5.19187 17.2577 4.60986 C 18.0384 5.50878 19.0896 6.13018 20.2535 6.38093" stroke-linecap="round" />
</g>
		<g transform="matrix(1 0 0 1 -0.29 -2.17)"  >
<path style="stroke: none; stroke-width: 1; stroke-dasharray: none; stroke-linecap: butt; stroke-dashoffset: 0; stroke-linejoin: miter; stroke-miterlimit: 4; fill: rgb(255,0,79); fill-rule: evenodd; opacity: 1;" vector-effect="non-scaling-stroke"  transform=" translate(-10.71, -9.83)" d="M 17.2577 4.6098 C 16.3851 3.61129 15.9044 2.33002 15.905 1.00391 L 14.8457 1.00391 C 14.9829 1.73688 15.2674 2.43438 15.682 3.0542 C 16.0966 3.67401 16.6326 4.20322 17.2577 4.6098 Z M 7.4757 12.3965 C 6.5946 12.3975 5.7499 12.748 5.12685 13.371 C 4.50384 13.994 4.15339 14.8387 4.15234 15.7198 C 4.15294 16.3259 4.31914 16.9204 4.63304 17.4389 C 4.94695 17.9573 5.39655 18.3802 5.9333 18.6617 C 5.5246 18.0981 5.30455 17.4197 5.3045 16.7236 C 5.30535 15.8424 5.65575 14.9975 6.2788 14.3744 C 6.90185 13.7512 7.74665 13.4007 8.62785 13.3997 C 8.9703 13.3997 9.29845 13.4563 9.60846 13.5536 L 9.60846 9.51725 C 9.2836 9.47125 8.95595 9.44735 8.62785 9.4458 C 8.5701 9.4458 8.5135 9.4491 8.45635 9.4502 L 8.45635 12.5504 C 8.1392 12.4495 7.8085 12.3976 7.4757 12.3965 Z" stroke-linecap="round" />
</g>
		<g transform="matrix(1 0 0 1 1.35 3.19)"  >
<path style="stroke: none; stroke-width: 1; stroke-dasharray: none; stroke-linecap: butt; stroke-dashoffset: 0; stroke-linejoin: miter; stroke-miterlimit: 4; fill: rgb(255,0,79); fill-rule: evenodd; opacity: 1;" vector-effect="non-scaling-stroke"  transform=" translate(-12.35, -15.19)" d="M 20.2524 6.38141 L 20.2524 9.45412 C 18.2021 9.45412 16.3029 8.79836 14.7517 7.68526 L 14.7517 15.7199 C 14.7517 19.7325 11.4878 22.9971 7.47511 22.9971 C 5.92446 22.9971 4.4865 22.5079 3.30469 21.6779 C 3.98415 22.4106 4.80761 22.9951 5.72351 23.3947 C 6.63941 23.7943 7.62796 24.0005 8.62721 24.0002 C 12.6399 24.0002 15.9044 20.7357 15.9044 16.7236 L 15.9044 8.68896 C 17.5069 9.84127 19.4313 10.4601 21.405 10.4578 L 21.405 6.50346 C 21.0093 6.50346 20.6245 6.46056 20.2524 6.38086" stroke-linecap="round" />
</g>
		<g transform="matrix(1 0 0 1 -0.2 0)"  >
<path style="stroke: none; stroke-width: 1; stroke-dasharray: none; stroke-linecap: butt; stroke-dashoffset: 0; stroke-linejoin: miter; stroke-miterlimit: 4; fill: rgb(255,255,255); fill-rule: evenodd; opacity: 1;" vector-effect="non-scaling-stroke"  transform=" translate(-10.8, -12)" d="M 14.7527 15.7199 L 14.7527 7.68526 C 16.3551 8.83766 18.2796 9.45651 20.2534 9.45411 L 20.2534 6.38141 C 19.0896 6.13041 18.0386 5.50881 17.2582 4.6098 C 16.6331 4.20322 16.097 3.67401 15.6824 3.0542 C 15.2678 2.43438 14.9833 1.73688 14.8462 1.00391 L 11.9516 1.00391 L 11.9455 16.8484 C 11.879 18.6227 10.4185 20.047 8.6282 20.047 C 8.10145 20.0464 7.5824 19.9205 7.11395 19.6796 C 6.64554 19.4388 6.24114 19.0899 5.93424 18.6618 C 5.39739 18.3803 4.94764 17.9575 4.63364 17.439 C 4.31964 16.9205 4.15334 16.3261 4.15274 15.7199 C 4.15374 14.8388 4.50419 13.9941 5.12724 13.3711 C 5.75024 12.748 6.59499 12.3976 7.4761 12.3965 C 7.818 12.3965 8.14615 12.4526 8.4567 12.5505 L 8.4567 9.45026 C 4.52319 9.54261 1.35156 12.7681 1.35156 16.7236 C 1.35156 18.6365 2.09473 20.3779 3.30567 21.6784 C 4.52644 22.5378 5.98319 22.9984 7.4761 22.9971 C 11.4888 22.9971 14.7527 19.7325 14.7527 15.7199 Z" stroke-linecap="round" />
</g>
</g>
</g>
</svg>