<svg width="40" height="40" viewBox="0 0 40 40" fill="none" xmlns="http://www.w3.org/2000/svg">
<g clip-path="url(#clip0_267_3788)">
<path d="M41.9 -4H1.1C-1.71665 -4 -4 -1.71665 -4 1.1V41.9C-4 44.7167 -1.71665 47 1.1 47H41.9C44.7167 47 47 44.7167 47 41.9V1.1C47 -1.71665 44.7167 -4 41.9 -4Z" fill="#6C85FF"/>
<path d="M3.69285 23.0817L6.81962 20.2282L12.8703 21.5834L17.3729 17.4743L4.23936 11.1211L7.99148 7.69689L24.1267 11.3107L29.6298 6.28849C30.3177 5.66072 31.1301 5.36824 32.067 5.41105C33.004 5.45386 33.7863 5.81921 34.4141 6.5071C35.0419 7.19499 35.3343 8.00739 35.2915 8.9443C35.2487 9.88121 34.8834 10.6636 34.1955 11.2913L28.6924 16.3135L30.8196 32.7111L27.0675 36.1353L21.9385 22.4771L17.436 26.5862L18.2337 32.7353L15.1069 35.5888L11.2759 27.6231L3.69285 23.0817Z" fill="white"/>
</g>
<defs>
<clipPath id="clip0_267_3788">
<rect width="40" height="40" fill="white"/>
</clipPath>
</defs>
</svg>
