<svg width="82" height="83" viewBox="0 0 82 83" fill="none" xmlns="http://www.w3.org/2000/svg">
<g clip-path="url(#clip0_1244_66270)">
<path d="M19.3158 27.2022H62.6842V62.5428C62.6842 64.6423 60.9821 66.3444 58.8851 66.3444H54.5412V77.1074C54.5412 79.8406 52.3612 82.0557 49.6701 82.0557C46.9721 82.0557 44.7952 79.8406 44.7952 77.1074V66.3444H37.2085V77.1074C37.2085 79.8406 35.0241 82.0557 32.3331 82.0557C29.6427 82.0557 27.4585 79.8406 27.4585 77.1074V66.3444H23.1184C21.021 66.3444 19.3156 64.6423 19.3156 62.5428L19.3158 27.2022ZM10.8171 26.9138C8.09862 26.9138 5.89664 29.15 5.89664 31.9106V51.4396C5.89664 54.197 8.09862 56.4371 10.8171 56.4371C13.5361 56.4371 15.7376 54.197 15.7376 51.4396V31.9106C15.7376 29.15 13.5361 26.9138 10.8171 26.9138ZM62.6844 23.641H19.3158C19.8511 17.4625 23.859 12.1456 29.6286 9.06708L25.5052 3.01253C24.9491 2.19605 25.1589 1.08201 25.977 0.526103C26.7941 -0.0297991 27.9059 0.181607 28.4647 0.997443L32.9589 7.60101C35.4506 6.73937 38.1553 6.24464 41 6.24464C43.8481 6.24464 46.5529 6.73937 49.0445 7.60213L53.5386 0.999845C54.0905 0.181767 55.2059 -0.029639 56.023 0.526263C56.8411 1.08217 57.0509 2.19621 56.4948 3.01269L52.3748 9.06724C58.1443 12.1438 62.1494 17.4607 62.6844 23.641ZM34.2518 15.2457C34.2518 13.9208 33.1789 12.8461 31.8544 12.8461C30.5266 12.8461 29.4537 13.9208 29.4537 15.2457C29.4537 16.5701 30.5301 17.6442 31.8544 17.6442C33.1788 17.6442 34.2518 16.5701 34.2518 15.2457ZM52.8503 15.2457C52.8503 13.9208 51.7737 12.8461 50.4495 12.8461C49.1217 12.8461 48.052 13.9208 48.052 15.2457C48.052 16.5701 49.1217 17.6442 50.4495 17.6442C51.7739 17.6442 52.8503 16.5701 52.8503 15.2457ZM71.1863 26.9069C68.4706 26.9069 66.2624 29.1465 66.2624 31.9073V51.4431C66.2624 54.2039 68.4706 56.4442 71.1863 56.4442C73.9054 56.4442 76.1032 54.2041 76.1032 51.4431V31.9073C76.1034 29.1465 73.9054 26.9069 71.1863 26.9069Z" fill="#C7C7C7"/>
</g>
<defs>
<clipPath id="clip0_1244_66270">
<rect width="82" height="82" fill="white" transform="translate(0 0.135742)"/>
</clipPath>
</defs>
</svg>
