<svg width="82" height="83" viewBox="0 0 82 83" fill="none" xmlns="http://www.w3.org/2000/svg">
<g clip-path="url(#clip0_1244_66262)">
<path d="M56.7803 0.135742C56.9711 0.135742 57.162 0.135742 57.3636 0.135742C57.8317 5.91855 55.6245 10.2395 52.9419 13.3685C50.3097 16.476 46.7054 19.4898 40.8758 19.0325C40.4869 13.3325 42.6978 9.33207 45.3767 6.21022C47.8612 3.30081 52.4162 0.711863 56.7803 0.135742Z" fill="#C7C7C7"/>
<path d="M74.4276 60.3317C74.4276 60.3893 74.4276 60.4397 74.4276 60.4938C72.7893 65.4556 70.4524 69.7081 67.6006 73.6545C64.9972 77.2373 61.807 82.0587 56.1106 82.0587C51.1883 82.0587 47.9188 78.8936 42.8742 78.8072C37.5379 78.7208 34.6033 81.4538 29.7242 82.1415C29.1661 82.1415 28.608 82.1415 28.0607 82.1415C24.4779 81.623 21.5865 78.7856 19.4801 76.2291C13.2688 68.6747 8.46898 58.9166 7.57599 46.4292C7.57599 45.205 7.57599 43.9843 7.57599 42.76C7.95407 33.823 12.2966 26.5566 18.0686 23.0351C21.1148 21.1627 25.3025 19.5676 29.9655 20.2805C31.9639 20.5902 34.0055 21.2743 35.7951 21.9513C37.4911 22.603 39.6119 23.7589 41.6211 23.6976C42.9822 23.658 44.3361 22.9487 45.708 22.4482C49.7264 20.9971 53.6657 19.3335 58.8579 20.1149C65.0981 21.0583 69.527 23.8309 72.2636 28.1086C66.9849 31.4681 62.8116 36.5307 63.5245 45.1761C64.1583 53.0294 68.724 57.624 74.4276 60.3317Z" fill="#C7C7C7"/>
</g>
<defs>
<clipPath id="clip0_1244_66262">
<rect width="82" height="82" fill="white" transform="translate(0 0.135742)"/>
</clipPath>
</defs>
</svg>
