<svg width="20" height="21" viewBox="0 0 20 21" fill="none" xmlns="http://www.w3.org/2000/svg">
<path d="M9 5.13574H11V7.13574H9V5.13574ZM9 9.13574H11V15.1357H9V9.13574ZM10 0.135742C4.48 0.135742 0 4.61574 0 10.1357C0 15.6557 4.48 20.1357 10 20.1357C15.52 20.1357 20 15.6557 20 10.1357C20 4.61574 15.52 0.135742 10 0.135742ZM10 18.1357C5.59 18.1357 2 14.5457 2 10.1357C2 5.72574 5.59 2.13574 10 2.13574C14.41 2.13574 18 5.72574 18 10.1357C18 14.5457 14.41 18.1357 10 18.1357Z" fill="#6C85FF"/>
</svg>
