<svg width="48" height="49" viewBox="0 0 48 49" fill="none" xmlns="http://www.w3.org/2000/svg">
<path d="M19 13.1357V19.1357H13V13.1357H19ZM22 10.1357H10V22.1357H22V10.1357ZM19 29.1357V35.1357H13V29.1357H19ZM22 26.1357H10V38.1357H22V26.1357ZM35 13.1357V19.1357H29V13.1357H35ZM38 10.1357H26V22.1357H38V10.1357ZM26 26.1357H29V29.1357H26V26.1357ZM29 29.1357H32V32.1357H29V29.1357ZM32 26.1357H35V29.1357H32V26.1357ZM26 32.1357H29V35.1357H26V32.1357ZM29 35.1357H32V38.1357H29V35.1357ZM32 32.1357H35V35.1357H32V32.1357ZM35 29.1357H38V32.1357H35V29.1357ZM35 35.1357H38V38.1357H35V35.1357ZM44 14.1357H40V8.13574H34V4.13574H44V14.1357ZM44 44.1357V34.1357H40V40.1357H34V44.1357H44ZM4 44.1357H14V40.1357H8V34.1357H4V44.1357ZM4 4.13574V14.1357H8V8.13574H14V4.13574H4Z" fill="#6C85FF"/>
</svg>
