<svg width="48" height="49" viewBox="0 0 48 49" fill="none" xmlns="http://www.w3.org/2000/svg">
<path d="M38.8644 26.0957C38.9444 25.4557 39.0044 24.8157 39.0044 24.1357C39.0044 23.4557 38.9444 22.8157 38.8644 22.1757L43.0844 18.8757C43.4644 18.5757 43.5644 18.0357 43.3244 17.5957L39.3244 10.6757C39.1444 10.3557 38.8044 10.1757 38.4444 10.1757C38.3244 10.1757 38.2044 10.1957 38.1044 10.2357L33.1244 12.2357C32.0844 11.4357 30.9644 10.7757 29.7444 10.2757L28.9844 4.97574C28.9244 4.49574 28.5044 4.13574 28.0044 4.13574H20.0044C19.5044 4.13574 19.0844 4.49574 19.0244 4.97574L18.2644 10.2757C17.0444 10.7757 15.9244 11.4557 14.8844 12.2357L9.90441 10.2357C9.78441 10.1957 9.66441 10.1757 9.54441 10.1757C9.20441 10.1757 8.86441 10.3557 8.68441 10.6757L4.68441 17.5957C4.42441 18.0357 4.54441 18.5757 4.92441 18.8757L9.14441 22.1757C9.06441 22.8157 9.00441 23.4757 9.00441 24.1357C9.00441 24.7957 9.06441 25.4557 9.14441 26.0957L4.92441 29.3957C4.54441 29.6957 4.44441 30.2357 4.68441 30.6757L8.68441 37.5957C8.86441 37.9157 9.20441 38.0957 9.56441 38.0957C9.68441 38.0957 9.80441 38.0757 9.90441 38.0357L14.8844 36.0357C15.9244 36.8357 17.0444 37.4957 18.2644 37.9957L19.0244 43.2957C19.0844 43.7757 19.5044 44.1357 20.0044 44.1357H28.0044C28.5044 44.1357 28.9244 43.7757 28.9844 43.2957L29.7444 37.9957C30.9644 37.4957 32.0844 36.8157 33.1244 36.0357L38.1044 38.0357C38.2244 38.0757 38.3444 38.0957 38.4644 38.0957C38.8044 38.0957 39.1444 37.9157 39.3244 37.5957L43.3244 30.6757C43.5644 30.2357 43.4644 29.6957 43.0844 29.3957L38.8644 26.0957ZM34.9044 22.6757C34.9844 23.2957 35.0044 23.7157 35.0044 24.1357C35.0044 24.5557 34.9644 24.9957 34.9044 25.5957L34.6244 27.8557L36.4044 29.2557L38.5644 30.9357L37.1644 33.3557L34.6244 32.3357L32.5444 31.4957L30.7444 32.8557C29.8844 33.4957 29.0644 33.9757 28.2444 34.3157L26.1244 35.1757L25.8044 37.4357L25.4044 40.1357H22.6044L21.9044 35.1757L19.7844 34.3157C18.9244 33.9557 18.1244 33.4957 17.3244 32.8957L15.5044 31.4957L13.3844 32.3557L10.8444 33.3757L9.44441 30.9557L11.6044 29.2757L13.3844 27.8757L13.1044 25.6157C13.0444 24.9957 13.0044 24.5357 13.0044 24.1357C13.0044 23.7357 13.0444 23.2757 13.1044 22.6757L13.3844 20.4157L11.6044 19.0157L9.44441 17.3357L10.8444 14.9157L13.3844 15.9357L15.4644 16.7757L17.2644 15.4157C18.1244 14.7757 18.9444 14.2957 19.7644 13.9557L21.8844 13.0957L22.2044 10.8357L22.6044 8.13574H25.3844L26.0844 13.0957L28.2044 13.9557C29.0644 14.3157 29.8644 14.7757 30.6644 15.3757L32.4844 16.7757L34.6044 15.9157L37.1444 14.8957L38.5444 17.3157L36.4044 19.0157L34.6244 20.4157L34.9044 22.6757ZM24.0044 16.1357C19.5844 16.1357 16.0044 19.7157 16.0044 24.1357C16.0044 28.5557 19.5844 32.1357 24.0044 32.1357C28.4244 32.1357 32.0044 28.5557 32.0044 24.1357C32.0044 19.7157 28.4244 16.1357 24.0044 16.1357ZM24.0044 28.1357C21.8044 28.1357 20.0044 26.3357 20.0044 24.1357C20.0044 21.9357 21.8044 20.1357 24.0044 20.1357C26.2044 20.1357 28.0044 21.9357 28.0044 24.1357C28.0044 26.3357 26.2044 28.1357 24.0044 28.1357Z" fill="#6C85FF"/>
</svg>
