<svg width="48" height="49" viewBox="0 0 48 49" fill="none" xmlns="http://www.w3.org/2000/svg">
<path d="M36 4.13574H20L8 16.1357V40.1357C8 42.3357 9.8 44.1357 12 44.1357H36C38.2 44.1357 40 42.3357 40 40.1357V8.13574C40 5.93574 38.2 4.13574 36 4.13574ZM36 8.13574V40.1357H12V17.7957L21.66 8.13574H36ZM14 34.1357H18V38.1357H14V34.1357ZM30 34.1357H34V38.1357H30V34.1357ZM14 22.1357H18V30.1357H14V22.1357ZM22 30.1357H26V38.1357H22V30.1357ZM22 22.1357H26V26.1357H22V22.1357ZM30 22.1357H34V30.1357H30V22.1357Z" fill="#6C85FF"/>
</svg>
