<?xml version="1.0" encoding="UTF-8" standalone="no" ?>
<!DOCTYPE svg PUBLIC "-//W3C//DTD SVG 1.1//EN" "http://www.w3.org/Graphics/SVG/1.1/DTD/svg11.dtd">
<svg xmlns="http://www.w3.org/2000/svg" xmlns:xlink="http://www.w3.org/1999/xlink" version="1.1" width="64" height="64" viewBox="0 0 64 64" xml:space="preserve">
<desc>Created with Fabric.js 5.2.4</desc>
<defs>
</defs>
<rect x="0" y="0" width="100%" height="100%" fill="transparent"></rect>
<g transform="matrix(1 0 0 1 32 32)" id="d17d8e50-bbdd-42f3-9d40-902f8ce8aa60"  >
<rect style="stroke: none; stroke-width: 1; stroke-dasharray: none; stroke-linecap: butt; stroke-dashoffset: 0; stroke-linejoin: miter; stroke-miterlimit: 4; fill: rgb(255,255,255); fill-rule: nonzero; opacity: 1; visibility: hidden;" vector-effect="non-scaling-stroke"  x="-32" y="-32" rx="0" ry="0" width="64" height="64" />
</g>
<g transform="matrix(Infinity NaN NaN Infinity 0 0)" id="9dbddf56-c979-4df9-b72d-2b5899ad9228"  >
</g>
<g transform="matrix(1 0 0 1 32 32)"  >
<g style=""   >
		<g transform="matrix(1 0 0 1 -4.09 0.44)"  >
<path style="stroke: rgb(108,133,255); stroke-width: 2; stroke-dasharray: none; stroke-linecap: round; stroke-dashoffset: 0; stroke-linejoin: round; stroke-miterlimit: 4; fill: none; fill-rule: nonzero; opacity: 1;" vector-effect="non-scaling-stroke"  transform=" translate(-27.91, -32.44)" d="M 29.6995 14.8379 C 30.5457 15.6334 31.3784 17.45 30.9856 18.7901 C 30.1762 21.5538 28.3688 22.7338 27.8294 25.4974 C 27.7306 26.0024 29.6775 28.0354 28.8817 28.8507 C 28.7447 28.991 21.7547 26.4233 24.4387 31.0069 C 26.2177 34.0439 32.7918 31.1644 31.921 36.5163 C 31.2376 40.7167 26.6738 45.7947 27.7125 50.0507" stroke-linecap="round" />
</g>
		<g transform="matrix(1 0 0 1 -13.73 -3.22)"  >
<path style="stroke: rgb(108,133,255); stroke-width: 2; stroke-dasharray: none; stroke-linecap: round; stroke-dashoffset: 0; stroke-linejoin: round; stroke-miterlimit: 4; fill: none; fill-rule: nonzero; opacity: 1;" vector-effect="non-scaling-stroke"  transform=" translate(-18.27, -28.78)" d="M 16.3671 24.0596 C 15.517 26.5304 21.1985 28.257 20.1275 30.1656 C 19.6074 31.0931 18.0015 30.847 17.2268 31.6024 C 16.3796 32.4287 17.0213 33.8715 17.8715 33.3985" stroke-linecap="round" />
</g>
		<g transform="matrix(1 0 0 1 -10.58 10.92)"  >
<path style="stroke: rgb(108,133,255); stroke-width: 2; stroke-dasharray: none; stroke-linecap: round; stroke-dashoffset: 0; stroke-linejoin: round; stroke-miterlimit: 4; fill: none; fill-rule: nonzero; opacity: 1;" vector-effect="non-scaling-stroke"  transform=" translate(-21.42, -42.92)" d="M 18.8038 35.7979 C 18.5662 41.9317 23.2221 43.0037 24.035 50.0507" stroke-linecap="round" />
</g>
		<g transform="matrix(1 0 0 1 8.8 -0.71)"  >
<path style="stroke: rgb(108,133,255); stroke-width: 2; stroke-dasharray: none; stroke-linecap: round; stroke-dashoffset: 0; stroke-linejoin: round; stroke-miterlimit: 4; fill: none; fill-rule: nonzero; opacity: 1;" vector-effect="non-scaling-stroke"  transform=" translate(-40.8, -31.29)" d="M 39.0212 15.4668 C 37.5581 16.4492 35.7974 19.499 36.6043 21.4611 C 37.8061 24.3824 44.5359 22.6058 45.1203 26.2565 C 46.24 33.2577 35.7943 25.9888 37.0647 33.9287 C 37.4246 36.1764 41.9779 36.2631 42.9336 38.0053 C 44.0648 40.0675 43.3348 44.8019 43.9694 47.1164" stroke-linecap="round" />
</g>
		<g transform="matrix(1 0 0 1 0 -0.08)"  >
<path style="stroke: rgb(108,133,255); stroke-width: 2; stroke-dasharray: none; stroke-linecap: round; stroke-dashoffset: 0; stroke-linejoin: round; stroke-miterlimit: 4; fill: none; fill-rule: nonzero; opacity: 1;" vector-effect="non-scaling-stroke"  transform=" translate(-32, -31.92)" d="M 14.8011 19.3697 C 34.1077 -7.70312 70.5562 30.7163 43.0464 49.7646 C 29.5737 59.0932 14.1221 51.4118 11.5835 36.1762 C 11.2339 34.0798 10.6228 31.7035 11.4643 29.7396" stroke-linecap="round" />
</g>
</g>
</g>
</svg>