<?xml version="1.0" encoding="UTF-8" standalone="no" ?>
<!DOCTYPE svg PUBLIC "-//W3C//DTD SVG 1.1//EN" "http://www.w3.org/Graphics/SVG/1.1/DTD/svg11.dtd">
<svg xmlns="http://www.w3.org/2000/svg" xmlns:xlink="http://www.w3.org/1999/xlink" version="1.1" width="60" height="60" viewBox="0 0 60 60" xml:space="preserve">
<desc>Created with Fabric.js 5.2.4</desc>
<defs>
</defs>
<rect x="0" y="0" width="100%" height="100%" fill="transparent"></rect>
<g transform="matrix(0 0 0 0 0 0)" id="98c5b11b-fd96-41d5-920c-ef456dbbd7cf"  >
</g>
<g transform="matrix(1 0 0 1 30 30)" id="5787ea3d-d037-46ab-94fc-51c54bafeda3"  >
<rect style="stroke: none; stroke-width: 1; stroke-dasharray: none; stroke-linecap: butt; stroke-dashoffset: 0; stroke-linejoin: miter; stroke-miterlimit: 4; fill: rgb(255,255,255); fill-rule: nonzero; opacity: 1; visibility: hidden;" vector-effect="non-scaling-stroke"  x="-30" y="-30" rx="0" ry="0" width="60" height="60" />
</g>
<g transform="matrix(1.15 0 0 1.15 30 30)"  >
<g style=""   >
		<g transform="matrix(1 0 0 1 -16.5 -0.32)"  >
<path style="stroke: none; stroke-width: 1; stroke-dasharray: none; stroke-linecap: butt; stroke-dashoffset: 0; stroke-linejoin: miter; stroke-miterlimit: 4; fill: rgb(41,43,46); fill-rule: nonzero; opacity: 1;" vector-effect="non-scaling-stroke"  transform=" translate(-9.5, -11.68)" d="M 16.4716 6.75239 C 16.2868 6.91281 16.1005 7.07176 15.9181 7.23513 C 15.2729 7.81355 14.7885 8.48616 14.6177 9.32508 C 14.4947 9.87607 14.4989 10.4457 14.6298 10.9951 C 14.7607 11.5444 15.0153 12.0605 15.3762 12.5078 C 15.748 12.9854 16.1913 13.3821 16.7813 13.6117 C 16.8504 13.6382 16.9203 13.6617 17.0049 13.6926 C 16.9273 13.8906 16.8605 14.0856 16.7775 14.2755 C 16.2969 15.3793 15.672 16.4007 14.8188 17.2868 C 14.6575 17.4506 14.4833 17.6026 14.2978 17.7415 C 13.6768 18.2199 12.9781 18.4039 12.1901 18.1831 C 11.7973 18.0742 11.4091 17.952 11.0178 17.8379 C 10.6192 17.7102 10.2038 17.6359 9.78347 17.6172 C 9.25712 17.6054 8.77424 17.7548 8.28515 17.924 C 7.91906 18.061 7.54473 18.1772 7.16412 18.2721 C 6.56401 18.4083 6.02058 18.2331 5.52373 17.9137 C 5.03477 17.586 4.6137 17.1756 4.28159 16.7032 C 3.41625 15.5482 2.76635 14.2611 2.36017 12.8979 C 1.99567 11.6882 1.90806 10.4186 2.1032 9.17422 C 2.27865 8.06523 2.71495 7.06441 3.53631 6.23726 C 4.39028 5.38067 5.44221 5.02818 6.67348 5.14445 C 7.28678 5.20185 7.87214 5.37037 8.45905 5.53227 C 8.70359 5.59997 8.95357 5.65075 9.20122 5.71035 C 9.54803 5.78443 9.9096 5.76739 10.2469 5.66105 C 10.7306 5.52712 11.208 5.37478 11.6878 5.24012 C 12.3939 5.03058 13.1434 4.98813 13.8709 5.11648 C 14.8273 5.29163 15.5835 5.77879 16.2162 6.46171 C 16.2938 6.54707 16.3714 6.63391 16.4491 6.72074 C 16.4576 6.73063 16.4651 6.74122 16.4716 6.75239 Z" stroke-linecap="round" />
</g>
		<g transform="matrix(1 0 0 1 -14.9 -8.75)"  >
<path style="stroke: none; stroke-width: 1; stroke-dasharray: none; stroke-linecap: butt; stroke-dashoffset: 0; stroke-linejoin: miter; stroke-miterlimit: 4; fill: rgb(41,43,46); fill-rule: nonzero; opacity: 1;" vector-effect="non-scaling-stroke"  transform=" translate(-11.1, -3.25)" d="M 12.875 1.16748 C 12.8955 1.35743 12.9043 1.54835 12.9014 1.73927 C 12.8356 2.71983 12.4 3.64524 11.674 4.34656 C 11.3425 4.67624 10.9753 4.96545 10.5235 5.13544 C 10.1353 5.28262 9.72932 5.31058 9.32019 5.33928 C 9.31398 5.33928 9.30699 5.33266 9.30078 5.32972 C 9.35901 3.07713 10.5569 1.62006 12.875 1.16748 Z" stroke-linecap="round" />
</g>
		<g transform="matrix(1 0 0 1 0.27 -1.17)"  >
<path style="stroke: none; stroke-width: 1; stroke-dasharray: none; stroke-linecap: butt; stroke-dashoffset: 0; stroke-linejoin: miter; stroke-miterlimit: 4; fill: rgb(41,43,46); fill-rule: nonzero; opacity: 1;" vector-effect="non-scaling-stroke"  transform=" translate(-26.27, -10.83)" d="M 21.5801 3.84515 C 22.8271 3.65298 24.0889 3.55969 25.3523 3.56624 C 27.2931 3.56624 28.7169 3.99453 29.6221 4.76502 C 30.4574 5.45014 30.9543 6.49953 30.9543 7.7822 C 30.9543 9.08768 30.5475 10.1157 29.7797 10.8649 C 28.7386 11.915 27.0455 12.4515 25.1256 12.4515 C 24.5387 12.4515 23.9968 12.4301 23.545 12.3234 L 23.545 18.1032 L 21.5801 18.1032 L 21.5801 3.84515 Z M 23.545 10.8016 C 23.9735 10.909 24.5162 10.9488 25.1706 10.9488 C 27.5415 10.9488 28.9871 9.85743 28.9871 7.86609 C 28.9871 5.96085 27.5648 5.04098 25.3965 5.04098 C 24.5387 5.04098 23.8835 5.105 23.545 5.18816 L 23.545 10.8016 Z" stroke-linecap="round" />
</g>
		<g transform="matrix(1 0 0 1 9.49 0.92)"  >
<path style="stroke: none; stroke-width: 1; stroke-dasharray: none; stroke-linecap: butt; stroke-dashoffset: 0; stroke-linejoin: miter; stroke-miterlimit: 4; fill: rgb(41,43,46); fill-rule: nonzero; opacity: 1;" vector-effect="non-scaling-stroke"  transform=" translate(-35.49, -12.92)" d="M 38.0406 18.102 L 37.8854 16.7958 L 37.8178 16.7958 C 37.2076 17.6097 36.0323 18.3375 34.4749 18.3375 C 32.2624 18.3375 31.1328 16.8606 31.1328 15.3616 C 31.1328 12.8595 33.482 11.4871 37.7045 11.5084 L 37.7045 11.2943 C 37.7045 10.4384 37.456 8.89671 35.2202 8.89671 C 34.204 8.89671 33.1427 9.19695 32.3749 9.66793 L 31.9231 8.42647 C 32.8268 7.86939 34.1364 7.50586 35.5137 7.50586 C 38.8566 7.50586 39.6694 9.66793 39.6694 11.7439 L 39.6694 15.6162 C 39.6694 16.5155 39.7144 17.3934 39.8495 18.0998 L 38.0406 18.102 Z M 37.7472 12.8146 C 35.5796 12.7719 33.1179 13.1355 33.1179 15.1474 C 33.1179 16.3675 33.9757 16.946 34.9927 16.946 C 36.415 16.946 37.3217 16.0894 37.6323 15.2122 C 37.7023 15.019 37.7403 14.8167 37.7448 14.6124 L 37.7472 12.8146 Z" stroke-linecap="round" />
</g>
		<g transform="matrix(1 0 0 1 19.28 3.29)"  >
<path style="stroke: none; stroke-width: 1; stroke-dasharray: none; stroke-linecap: butt; stroke-dashoffset: 0; stroke-linejoin: miter; stroke-miterlimit: 4; fill: rgb(41,43,46); fill-rule: nonzero; opacity: 1;" vector-effect="non-scaling-stroke"  transform=" translate(-45.28, -15.29)" d="M 42.3062 7.74219 L 44.6996 13.8641 C 44.948 14.5492 45.219 15.3624 45.3983 15.9835 L 45.4434 15.9835 C 45.6467 15.3624 45.8727 14.5706 46.142 13.8214 L 48.3135 7.74219 L 50.4134 7.74219 L 47.4323 15.1269 C 46.0093 18.6806 45.0389 20.499 43.6834 21.6131 C 42.713 22.427 41.7426 22.7479 41.2449 22.8332 L 40.7481 21.2496 C 41.3845 21.0495 41.9747 20.736 42.4871 20.326 C 43.2083 19.7592 43.7803 19.0409 44.1577 18.228 C 44.2486 18.0352 44.313 17.8858 44.313 17.7784 C 44.313 17.6709 44.268 17.5215 44.1772 17.286 L 40.1387 7.74219 L 42.3062 7.74219 Z" stroke-linecap="round" />
</g>
</g>
</g>
</svg>