<?xml version="1.0" encoding="UTF-8" standalone="no" ?>
<!DOCTYPE svg PUBLIC "-//W3C//DTD SVG 1.1//EN" "http://www.w3.org/Graphics/SVG/1.1/DTD/svg11.dtd">
<svg xmlns="http://www.w3.org/2000/svg" xmlns:xlink="http://www.w3.org/1999/xlink" version="1.1" width="64" height="64" viewBox="0 0 64 64" xml:space="preserve">
<desc>Created with Fabric.js 5.2.4</desc>
<defs>
</defs>
<rect x="0" y="0" width="100%" height="100%" fill="transparent"></rect>
<g transform="matrix(1 0 0 1 32 32)" id="b5320707-710d-441f-8f80-b222c06d348b"  >
<rect style="stroke: none; stroke-width: 1; stroke-dasharray: none; stroke-linecap: butt; stroke-dashoffset: 0; stroke-linejoin: miter; stroke-miterlimit: 4; fill: rgb(255,255,255); fill-rule: nonzero; opacity: 1; visibility: hidden;" vector-effect="non-scaling-stroke"  x="-32" y="-32" rx="0" ry="0" width="64" height="64" />
</g>
<g transform="matrix(Infinity NaN NaN Infinity 0 0)" id="e59710f8-521e-4dc1-98d5-1fe6d56156d9"  >
</g>
<g transform="matrix(0.98 0 0 0.98 32 32)"  >
<g style=""   >
		<g transform="matrix(1 0 0 1 -3.48 -14.1)" clip-path="url(#CLIPPATH_5)"  >
<clipPath id="CLIPPATH_5" >
	<rect transform="matrix(1 0 0 1 3.64 14.1)" id="clip0_108_8240" x="-32" y="-32" rx="0" ry="0" width="64" height="64" />
</clipPath>
<path style="stroke: rgb(108,133,255); stroke-width: 3; stroke-dasharray: none; stroke-linecap: round; stroke-dashoffset: 0; stroke-linejoin: round; stroke-miterlimit: 4; fill: none; fill-rule: nonzero; opacity: 1;" vector-effect="non-scaling-stroke"  transform=" translate(-29.02, -17.9)" d="M 16.3187 8.74692 C 29.0168 9.52499 34.751 8.47827 38.7518 8.47827 C 42.4726 8.47827 44.2234 20.7145 42.6943 24.3276 C 41.2525 27.7345 16.7179 27.8715 15.5757 26.5221 C 14.2548 24.9613 15.0185 18.4441 15.0185 16.2082" stroke-linecap="round" />
</g>
		<g transform="matrix(1 0 0 1 -15.51 6.86)" clip-path="url(#CLIPPATH_6)"  >
<clipPath id="CLIPPATH_6" >
	<rect transform="matrix(1 0 0 1 15.67 -6.86)" id="clip0_108_8240" x="-32" y="-32" rx="0" ry="0" width="64" height="64" />
</clipPath>
<path style="stroke: rgb(108,133,255); stroke-width: 3; stroke-dasharray: none; stroke-linecap: round; stroke-dashoffset: 0; stroke-linejoin: round; stroke-miterlimit: 4; fill: none; fill-rule: nonzero; opacity: 1;" vector-effect="non-scaling-stroke"  transform=" translate(-16.99, -38.86)" d="M 16.3981 30.5111 C -1.04049 46.6377 20.0651 43.7598 24.3823 47.2134" stroke-linecap="round" />
</g>
		<g transform="matrix(1 0 0 1 -15.92 5.09)" clip-path="url(#CLIPPATH_7)"  >
<clipPath id="CLIPPATH_7" >
	<rect transform="matrix(1 0 0 1 16.09 -5.09)" id="clip0_108_8240" x="-32" y="-32" rx="0" ry="0" width="64" height="64" />
</clipPath>
<path style="stroke: rgb(108,133,255); stroke-width: 3; stroke-dasharray: none; stroke-linecap: round; stroke-dashoffset: 0; stroke-linejoin: round; stroke-miterlimit: 4; fill: none; fill-rule: nonzero; opacity: 1;" vector-effect="non-scaling-stroke"  transform=" translate(-16.58, -37.09)" d="M 16.3978 30.5111 C 16.6317 34.1924 16.8512 42.5115 16.707 43.6637" stroke-linecap="round" />
</g>
		<g transform="matrix(1 0 0 1 1.49 -11.23)" clip-path="url(#CLIPPATH_8)"  >
<clipPath id="CLIPPATH_8" >
	<rect transform="matrix(1 0 0 1 -1.33 11.23)" id="clip0_108_8240" x="-32" y="-32" rx="0" ry="0" width="64" height="64" />
</clipPath>
<path style="stroke: rgb(108,133,255); stroke-width: 3; stroke-dasharray: none; stroke-linecap: round; stroke-dashoffset: 0; stroke-linejoin: round; stroke-miterlimit: 4; fill: none; fill-rule: nonzero; opacity: 1;" vector-effect="non-scaling-stroke"  transform=" translate(-33.99, -20.77)" d="M 33.9942 21.7982 C 33.9942 21.1135 33.9942 20.4284 33.9942 19.7434" stroke-linecap="round" />
</g>
		<g transform="matrix(1 0 0 1 -3.48 -11.15)" clip-path="url(#CLIPPATH_9)"  >
<clipPath id="CLIPPATH_9" >
	<rect transform="matrix(1 0 0 1 3.64 11.15)" id="clip0_108_8240" x="-32" y="-32" rx="0" ry="0" width="64" height="64" />
</clipPath>
<path style="stroke: rgb(108,133,255); stroke-width: 3; stroke-dasharray: none; stroke-linecap: round; stroke-dashoffset: 0; stroke-linejoin: round; stroke-miterlimit: 4; fill: none; fill-rule: nonzero; opacity: 1;" vector-effect="non-scaling-stroke"  transform=" translate(-29.02, -20.85)" d="M 29.0328 21.9633 C 28.9905 21.4213 29.033 20.1794 29.033 19.7434" stroke-linecap="round" />
</g>
		<g transform="matrix(1 0 0 1 12.04 14.58)" clip-path="url(#CLIPPATH_10)"  >
<clipPath id="CLIPPATH_10" >
	<rect transform="matrix(1 0 0 1 -11.87 -14.58)" id="clip0_108_8240" x="-32" y="-32" rx="0" ry="0" width="64" height="64" />
</clipPath>
<path style="stroke: rgb(108,133,255); stroke-width: 3; stroke-dasharray: none; stroke-linecap: round; stroke-dashoffset: 0; stroke-linejoin: round; stroke-miterlimit: 4; fill: none; fill-rule: nonzero; opacity: 1;" vector-effect="non-scaling-stroke"  transform=" translate(-44.54, -46.58)" d="M 33.2088 38.6753 C 57.0006 38.3874 60.646 36.2768 50.6689 54.6961" stroke-linecap="round" />
</g>
		<g transform="matrix(1 0 0 1 4.2 16.94)" clip-path="url(#CLIPPATH_11)"  >
<clipPath id="CLIPPATH_11" >
	<rect transform="matrix(1 0 0 1 -4.03 -16.94)" id="clip0_108_8240" x="-32" y="-32" rx="0" ry="0" width="64" height="64" />
</clipPath>
<path style="stroke: rgb(108,133,255); stroke-width: 3; stroke-dasharray: none; stroke-linecap: round; stroke-dashoffset: 0; stroke-linejoin: round; stroke-miterlimit: 4; fill: none; fill-rule: nonzero; opacity: 1;" vector-effect="non-scaling-stroke"  transform=" translate(-36.7, -48.94)" d="M 46.353 55.2717 C 32.1545 54.6961 22.5612 59.8766 29.1806 42.3207" stroke-linecap="round" />
</g>
		<g transform="matrix(1 0 0 1 -7.78 20.01)" clip-path="url(#CLIPPATH_12)"  >
<clipPath id="CLIPPATH_12" >
	<rect transform="matrix(1 0 0 1 7.95 -20.01)" id="clip0_108_8240" x="-32" y="-32" rx="0" ry="0" width="64" height="64" />
</clipPath>
<path style="stroke: rgb(108,133,255); stroke-width: 3; stroke-dasharray: none; stroke-linecap: round; stroke-dashoffset: 0; stroke-linejoin: round; stroke-miterlimit: 4; fill: none; fill-rule: nonzero; opacity: 1;" vector-effect="non-scaling-stroke"  transform=" translate(-24.72, -52.01)" d="M 29.4678 55.2716 C 26.3881 53.0216 22.9534 51.2341 19.9703 48.748" stroke-linecap="round" />
</g>
		<g transform="matrix(1 0 0 1 3.2 2.12)" clip-path="url(#CLIPPATH_13)"  >
<clipPath id="CLIPPATH_13" >
	<rect transform="matrix(1 0 0 1 -3.04 -2.12)" id="clip0_108_8240" x="-32" y="-32" rx="0" ry="0" width="64" height="64" />
</clipPath>
<path style="stroke: rgb(108,133,255); stroke-width: 3; stroke-dasharray: none; stroke-linecap: round; stroke-dashoffset: 0; stroke-linejoin: round; stroke-miterlimit: 4; fill: none; fill-rule: nonzero; opacity: 1;" vector-effect="non-scaling-stroke"  transform=" translate(-35.7, -34.12)" d="M 35.6081 30.4249 C 35.7088 32.89 35.8 35.3438 35.8 37.8119" stroke-linecap="round" />
</g>
		<g transform="matrix(1 0 0 1 4.98 1.64)" clip-path="url(#CLIPPATH_14)"  >
<clipPath id="CLIPPATH_14" >
	<rect transform="matrix(1 0 0 1 -4.81 -1.64)" id="clip0_108_8240" x="-32" y="-32" rx="0" ry="0" width="64" height="64" />
</clipPath>
<path style="stroke: rgb(108,133,255); stroke-width: 3; stroke-dasharray: none; stroke-linecap: round; stroke-dashoffset: 0; stroke-linejoin: round; stroke-miterlimit: 4; fill: none; fill-rule: nonzero; opacity: 1;" vector-effect="non-scaling-stroke"  transform=" translate(-37.48, -33.64)" d="M 35.6081 30.4249 C 36.8083 32.3259 37.9401 33.5632 39.3493 36.8524" stroke-linecap="round" />
</g>
		<g transform="matrix(1 0 0 1 -20.11 -12.84)" clip-path="url(#CLIPPATH_15)"  >
<clipPath id="CLIPPATH_15" >
	<rect transform="matrix(1 0 0 1 20.28 12.84)" id="clip0_108_8240" x="-32" y="-32" rx="0" ry="0" width="64" height="64" />
</clipPath>
<path style="stroke: rgb(108,133,255); stroke-width: 3; stroke-dasharray: none; stroke-linecap: round; stroke-dashoffset: 0; stroke-linejoin: round; stroke-miterlimit: 4; fill: none; fill-rule: nonzero; opacity: 1;" vector-effect="non-scaling-stroke"  transform=" translate(-12.39, -19.16)" d="M 13.4838 19.0466 C 12.761 19.2355 12.0329 19.1985 11.2957 19.2656" stroke-linecap="round" />
</g>
		<g transform="matrix(1 0 0 1 -22.35 -12.52)" clip-path="url(#CLIPPATH_16)"  >
<clipPath id="CLIPPATH_16" >
	<rect transform="matrix(1 0 0 1 22.52 12.52)" id="clip0_108_8240" x="-32" y="-32" rx="0" ry="0" width="64" height="64" />
</clipPath>
<path style="stroke: rgb(108,133,255); stroke-width: 3; stroke-dasharray: none; stroke-linecap: round; stroke-dashoffset: 0; stroke-linejoin: round; stroke-miterlimit: 4; fill: none; fill-rule: nonzero; opacity: 1;" vector-effect="non-scaling-stroke"  transform=" translate(-10.15, -19.48)" d="M 10.1999 17.515 C 10.2096 18.8409 10.1996 20.1463 10.0906 21.4537" stroke-linecap="round" />
</g>
		<g transform="matrix(1 0 0 1 13.42 -13.61)" clip-path="url(#CLIPPATH_17)"  >
<clipPath id="CLIPPATH_17" >
	<rect transform="matrix(1 0 0 1 -13.26 13.61)" id="clip0_108_8240" x="-32" y="-32" rx="0" ry="0" width="64" height="64" />
</clipPath>
<path style="stroke: rgb(108,133,255); stroke-width: 3; stroke-dasharray: none; stroke-linecap: round; stroke-dashoffset: 0; stroke-linejoin: round; stroke-miterlimit: 4; fill: none; fill-rule: nonzero; opacity: 1;" vector-effect="non-scaling-stroke"  transform=" translate(-45.92, -18.39)" d="M 45.1035 18.4996 C 45.6497 18.443 46.1991 18.3717 46.7444 18.2809" stroke-linecap="round" />
</g>
		<g transform="matrix(1 0 0 1 14.85 -13.94)" clip-path="url(#CLIPPATH_18)"  >
<clipPath id="CLIPPATH_18" >
	<rect transform="matrix(1 0 0 1 -14.68 13.94)" id="clip0_108_8240" x="-32" y="-32" rx="0" ry="0" width="64" height="64" />
</clipPath>
<path style="stroke: rgb(108,133,255); stroke-width: 3; stroke-dasharray: none; stroke-linecap: round; stroke-dashoffset: 0; stroke-linejoin: round; stroke-miterlimit: 4; fill: none; fill-rule: nonzero; opacity: 1;" vector-effect="non-scaling-stroke"  transform=" translate(-47.35, -18.06)" d="M 47.2909 16.7491 C 47.4461 17.6175 47.4002 18.498 47.4002 19.3749" stroke-linecap="round" />
</g>
		<g transform="matrix(1 0 0 1 -0.96 -13.3)" clip-path="url(#CLIPPATH_19)"  >
<clipPath id="CLIPPATH_19" >
	<rect transform="matrix(1 0 0 1 1.13 13.3)" id="clip0_108_8240" x="-32" y="-32" rx="0" ry="0" width="64" height="64" />
</clipPath>
<path style="stroke: rgb(108,133,255); stroke-width: 3; stroke-dasharray: none; stroke-linecap: round; stroke-dashoffset: 0; stroke-linejoin: round; stroke-miterlimit: 4; fill: none; fill-rule: nonzero; opacity: 1;" vector-effect="non-scaling-stroke"  transform=" translate(-31.54, -18.7)" d="M 36.788 18.6346 C 33.203 18.2389 29.7302 18.4281 26.2849 18.9709" stroke-linecap="round" />
</g>
</g>
</g>
</svg>