<?xml version="1.0" encoding="UTF-8" standalone="no" ?>
<!DOCTYPE svg PUBLIC "-//W3C//DTD SVG 1.1//EN" "http://www.w3.org/Graphics/SVG/1.1/DTD/svg11.dtd">
<svg xmlns="http://www.w3.org/2000/svg" xmlns:xlink="http://www.w3.org/1999/xlink" version="1.1" width="64" height="64" viewBox="0 0 64 64" xml:space="preserve">
<desc>Created with Fabric.js 5.2.4</desc>
<defs>
</defs>
<rect x="0" y="0" width="100%" height="100%" fill="transparent"></rect>
<g transform="matrix(1 0 0 1 32 32)" id="d17d8e50-bbdd-42f3-9d40-902f8ce8aa60"  >
<rect style="stroke: none; stroke-width: 1; stroke-dasharray: none; stroke-linecap: butt; stroke-dashoffset: 0; stroke-linejoin: miter; stroke-miterlimit: 4; fill: rgb(255,255,255); fill-rule: nonzero; opacity: 1; visibility: hidden;" vector-effect="non-scaling-stroke"  x="-32" y="-32" rx="0" ry="0" width="64" height="64" />
</g>
<g transform="matrix(Infinity NaN NaN Infinity 0 0)" id="9dbddf56-c979-4df9-b72d-2b5899ad9228"  >
</g>
<g transform="matrix(NaN NaN NaN NaN 0 0)"  >
<g style=""   >
</g>
</g>
<g transform="matrix(NaN NaN NaN NaN 0 0)"  >
<g style=""   >
</g>
</g>
<g transform="matrix(NaN NaN NaN NaN 0 0)"  >
<g style=""   >
</g>
</g>
<g transform="matrix(NaN NaN NaN NaN 0 0)"  >
<g style=""   >
</g>
</g>
<g transform="matrix(0.98 0 0 0.98 32 32)"  >
<g style=""   >
		<g transform="matrix(1 0 0 1 0.25 -0.86)"  >
<path style="stroke: rgb(18,18,18); stroke-width: 2; stroke-dasharray: none; stroke-linecap: round; stroke-dashoffset: 0; stroke-linejoin: round; stroke-miterlimit: 4; fill: none; fill-rule: nonzero; opacity: 1;" vector-effect="non-scaling-stroke"  transform=" translate(-32.75, -31.64)" d="M 23.5375 38.9477 C 27.2858 38.01 31.0869 37.0525 34.8684 36.1031 C 37.1642 35.5266 60.741 30.7355 57.4772 25.4922 C 56.8241 24.4428 55.1949 23.9474 54.0448 23.851 C 42.224 22.862 27.9461 31.8596 16.346 34.189 C 14.1705 34.6259 11.4436 29.6418 7.92616 31.9776 C 6.11278 34.2204 16.8723 40.4524 20.1065 39.3697" stroke-linecap="round" />
</g>
		<g transform="matrix(1 0 0 1 -4.39 -6.14)"  >
<path style="stroke: rgb(18,18,18); stroke-width: 2; stroke-dasharray: none; stroke-linecap: round; stroke-dashoffset: 0; stroke-linejoin: round; stroke-miterlimit: 4; fill: none; fill-rule: nonzero; opacity: 1;" vector-effect="non-scaling-stroke"  transform=" translate(-28.11, -26.36)" d="M 39.8714 30.0691 C 30.6593 22.8065 -0.036855 14.308 27.6669 31.3293" stroke-linecap="round" />
</g>
		<g transform="matrix(1 0 0 1 9.96 6.6)"  >
<path style="stroke: rgb(18,18,18); stroke-width: 2; stroke-dasharray: none; stroke-linecap: round; stroke-dashoffset: 0; stroke-linejoin: round; stroke-miterlimit: 4; fill: none; fill-rule: nonzero; opacity: 1;" vector-effect="non-scaling-stroke"  transform=" translate(-42.46, -39.1)" d="M 46.3451 35.4316 C 53.7606 48.9722 41.9697 40.2313 36.202 37.0708" stroke-linecap="round" />
</g>
		<g transform="matrix(1 0 0 1 6.83 -1.82)"  >
<path style="stroke: rgb(18,18,18); stroke-width: 2; stroke-dasharray: none; stroke-linecap: round; stroke-dashoffset: 0; stroke-linejoin: round; stroke-miterlimit: 4; fill: none; fill-rule: nonzero; opacity: 1;" vector-effect="non-scaling-stroke"  transform=" translate(-39.33, -30.68)" d="M 56.0599 25.9336 C 44.5561 27.7113 33.6974 32.1569 22.6037 35.4308" stroke-linecap="round" />
</g>
</g>
</g>
</svg>