<?xml version="1.0" encoding="UTF-8" standalone="no" ?>
<!DOCTYPE svg PUBLIC "-//W3C//DTD SVG 1.1//EN" "http://www.w3.org/Graphics/SVG/1.1/DTD/svg11.dtd">
<svg xmlns="http://www.w3.org/2000/svg" xmlns:xlink="http://www.w3.org/1999/xlink" version="1.1" width="66" height="66" viewBox="0.27 -0.09 66 66" xml:space="preserve">
<desc>Created with Fabric.js 5.2.4</desc>
<defs>
</defs>
<rect x="0" y="0" width="100%" height="100%" fill="transparent"></rect>
<g transform="matrix(1 0 0 1 33 33)" id="45de23fc-d562-4dfa-ade7-5e538475a172"  >
<rect style="stroke: none; stroke-width: 1; stroke-dasharray: none; stroke-linecap: butt; stroke-dashoffset: 0; stroke-linejoin: miter; stroke-miterlimit: 4; fill: rgb(255,255,255); fill-rule: nonzero; opacity: 1; visibility: hidden;" vector-effect="non-scaling-stroke"  x="-33" y="-33" rx="0" ry="0" width="66" height="66" />
</g>
<g transform="matrix(0 0 0 0 0 0)" id="4e49d16d-6d2e-4fe1-8607-adb25aae086a"  >
</g>
<g transform="matrix(0 0 0 0 -2.06 0)"  >
<g style=""   >
</g>
</g>
<g transform="matrix(0 0 0 0 -2.06 0)"  >
<g style=""   >
</g>
</g>
<g transform="matrix(1.02 0 0 1.02 33 33)"  >
<g style=""   >
		<g transform="matrix(1 0 0 1 -0.58 -4.56)"  >
<path style="stroke: rgb(108,133,255); stroke-width: 3; stroke-dasharray: none; stroke-linecap: round; stroke-dashoffset: 0; stroke-linejoin: round; stroke-miterlimit: 4; fill: none; fill-rule: nonzero; opacity: 1;" vector-effect="non-scaling-stroke"  transform=" translate(-31.92, -27.44)" d="M 49.3335 21.7933 C 45.7958 21.2444 43.2461 16.7752 40.2441 15.6957 C 39.8863 15.5671 37.9643 17.2215 37.6013 17.4626 C 32.4133 20.9049 26.8043 23.6213 21.5883 27.0362 C 20.4236 27.7988 14.5617 30.0622 14.1368 31.4369 C 14.0612 31.6821 14.0468 32.0339 14.1368 32.0515 C 15.4774 32.3143 16.8611 33.403 17.9945 34.1599 C 18.7199 34.6441 25.109 39.5753 25.6342 39.1743 C 31.2052 34.9207 43.2135 26.6539 49.7565 22.4202" stroke-linecap="round" />
</g>
		<g transform="matrix(1 0 0 1 1.14 3.13)"  >
<path style="stroke: rgb(108,133,255); stroke-width: 3; stroke-dasharray: none; stroke-linecap: round; stroke-dashoffset: 0; stroke-linejoin: round; stroke-miterlimit: 4; fill: none; fill-rule: nonzero; opacity: 1;" vector-effect="non-scaling-stroke"  transform=" translate(-33.64, -35.13)" d="M 50.8033 25.6678 C 42.8261 29.577 32.0727 41.157 25.7298 44.5761 C 25.4456 44.7293 23.2263 42.8866 22.8614 42.6899 C 20.5828 41.4614 18.4497 39.816 16.4814 38.0794" stroke-linecap="round" />
</g>
		<g transform="matrix(1 0 0 1 1.72 6.8)"  >
<path style="stroke: rgb(108,133,255); stroke-width: 3; stroke-dasharray: none; stroke-linecap: round; stroke-dashoffset: 0; stroke-linejoin: round; stroke-miterlimit: 4; fill: none; fill-rule: nonzero; opacity: 1;" vector-effect="non-scaling-stroke"  transform=" translate(-34.22, -38.8)" d="M 51.5533 29.4513 C 49.5081 28.5349 27.9385 49.0481 25.8535 48.1471 C 23.7685 47.246 19.4576 43.7992 16.8845 41.8173" stroke-linecap="round" />
</g>
		<g transform="matrix(1 0 0 1 0.65 -5.61)"  >
<path style="stroke: rgb(108,133,255); stroke-width: 3; stroke-dasharray: none; stroke-linecap: round; stroke-dashoffset: 0; stroke-linejoin: round; stroke-miterlimit: 4; fill: none; fill-rule: nonzero; opacity: 1;" vector-effect="non-scaling-stroke"  transform=" translate(-33.15, -26.39)" d="M 31.0482 24.8709 C 35.9807 18.9778 40.047 30.7091 31.7352 29.487 C 30.0223 29.2354 29.0766 25.4901 30.4134 24.5286" stroke-linecap="round" />
</g>
		<g transform="matrix(1 0 0 1 -10.91 -1.28)"  >
<path style="stroke: rgb(108,133,255); stroke-width: 3; stroke-dasharray: none; stroke-linecap: round; stroke-dashoffset: 0; stroke-linejoin: round; stroke-miterlimit: 4; fill: none; fill-rule: nonzero; opacity: 1;" vector-effect="non-scaling-stroke"  transform=" translate(-21.59, -30.72)" d="M 20.0022 30.8547 C 20.8886 32.0473 21.5254 31.23 23.1737 30.0001" stroke-linecap="round" />
</g>
		<g transform="matrix(1 0 0 1 10.65 -9.47)"  >
<path style="stroke: rgb(108,133,255); stroke-width: 3; stroke-dasharray: none; stroke-linecap: round; stroke-dashoffset: 0; stroke-linejoin: round; stroke-miterlimit: 4; fill: none; fill-rule: nonzero; opacity: 1;" vector-effect="non-scaling-stroke"  transform=" translate(-43.15, -22.53)" d="M 42.9389 23.1041 C 43.7941 22.5594 43.0973 23.0107 43.0973 21.9648" stroke-linecap="round" />
</g>
</g>
</g>
</svg>