<?xml version="1.0" encoding="UTF-8" standalone="no" ?>
<!DOCTYPE svg PUBLIC "-//W3C//DTD SVG 1.1//EN" "http://www.w3.org/Graphics/SVG/1.1/DTD/svg11.dtd">
<svg xmlns="http://www.w3.org/2000/svg" xmlns:xlink="http://www.w3.org/1999/xlink" version="1.1" width="66" height="66" viewBox="0.27 -0.09 66 66" xml:space="preserve">
<desc>Created with Fabric.js 5.2.4</desc>
<defs>
</defs>
<rect x="0" y="0" width="100%" height="100%" fill="transparent"></rect>
<g transform="matrix(1 0 0 1 33 33)" id="45de23fc-d562-4dfa-ade7-5e538475a172"  >
<rect style="stroke: none; stroke-width: 1; stroke-dasharray: none; stroke-linecap: butt; stroke-dashoffset: 0; stroke-linejoin: miter; stroke-miterlimit: 4; fill: rgb(255,255,255); fill-rule: nonzero; opacity: 1; visibility: hidden;" vector-effect="non-scaling-stroke"  x="-33" y="-33" rx="0" ry="0" width="66" height="66" />
</g>
<g transform="matrix(0 0 0 0 0 0)" id="4e49d16d-6d2e-4fe1-8607-adb25aae086a"  >
</g>
<g transform="matrix(0 0 0 0 -2.06 0)"  >
<g style=""   >
</g>
</g>
<g transform="matrix(0 0 0 0 -2.06 0)"  >
<g style=""   >
</g>
</g>
<g transform="matrix(1.02 0 0 1.02 35.21 33.4)"  >
<g style=""   >
		<g transform="matrix(1 0 0 1 -0.27 -5.81)"  >
<path style="stroke: rgb(108,133,255); stroke-width: 3; stroke-dasharray: none; stroke-linecap: round; stroke-dashoffset: 0; stroke-linejoin: round; stroke-miterlimit: 4; fill: none; fill-rule: nonzero; opacity: 1;" vector-effect="non-scaling-stroke"  transform=" translate(-32.23, -26.19)" d="M 10.1224 30.665 C 7.7405 27.5365 7.33112 24.9884 8.89428 23.0208 C 10.4574 21.0531 12.8017 20.7364 15.9272 22.0707 C 14.2447 18.3947 14.3815 16.0958 16.3377 15.1742 C 18.2939 14.2526 21.334 14.0245 25.458 14.4898 C 28.4152 10.7714 31.5887 9.04351 34.9783 9.30599 C 40.0628 9.69972 43.6316 10.6345 45.1462 17.2726 C 45.6908 18.583 52.5511 16.5568 55.069 20.567 C 57.5869 24.5772 57.0864 29.8432 55.069 30.2541 C 53.0516 30.665 59.9601 29.9061 57.2495 34.097 C 56.3007 35.564 52.0988 39.3393 49.1918 40.1812 C 43.7939 41.7445 38.4656 39.5315 35.7426 38.3125 C 34.6743 36.9614 30.22 43.4372 24.2701 43.0778 C 20.3036 42.8382 18.0566 40.7994 17.5292 36.9614 C 15.822 38.5298 13.618 38.9801 10.9173 38.3125 C 6.86618 37.3111 5.26595 33.8139 7.75161 31.757" stroke-linecap="round" />
</g>
		<g transform="matrix(1 0 0 1 -18.73 13.69)"  >
<path style="stroke: rgb(108,133,255); stroke-width: 3; stroke-dasharray: none; stroke-linecap: round; stroke-dashoffset: 0; stroke-linejoin: round; stroke-miterlimit: 4; fill: none; fill-rule: nonzero; opacity: 1;" vector-effect="non-scaling-stroke"  transform=" translate(-13.77, -45.69)" d="M 12.2954 44.4852 C 12.4566 44.1211 12.7889 43.8924 13.1424 43.8025 C 13.3446 43.7511 13.4745 43.7422 13.6796 43.7058 C 13.9721 43.6538 14.4926 43.801 14.6836 43.8934 C 15.0602 44.0756 15.2467 44.4047 15.3992 44.7672 C 15.5313 45.0811 15.6338 45.4258 15.6084 45.7732 C 15.6085 45.9246 15.5765 46.0659 15.5458 46.2149 C 15.3453 47.1898 14.4749 47.6342 14.0087 47.6815 C 13.5248 47.7305 13.0688 47.6501 12.656 47.3654 C 12.5443 47.2883 12.224 47.0136 12.1186 46.7108 C 11.9989 46.3673 11.8642 45.9977 11.9713 45.6159 C 12.0152 45.4597 12.0249 45.2829 12.154 45.1511" stroke-linecap="round" />
</g>
		<g transform="matrix(1 0 0 1 -22.77 21.33)"  >
<path style="stroke: rgb(108,133,255); stroke-width: 3; stroke-dasharray: none; stroke-linecap: round; stroke-dashoffset: 0; stroke-linejoin: round; stroke-miterlimit: 4; fill: none; fill-rule: nonzero; opacity: 1;" vector-effect="non-scaling-stroke"  transform=" translate(-9.73, -53.33)" d="M 8.7017 52.4612 C 8.81382 52.199 9.04498 52.0343 9.29092 51.9696 C 9.43158 51.9326 9.52191 51.9262 9.66463 51.9 C 9.86807 51.8626 10.2301 51.9686 10.363 52.0351 C 10.625 52.1663 10.7547 52.4032 10.8608 52.6642 C 10.9528 52.8903 11.0241 53.1384 11.0064 53.3886 C 11.0064 53.4975 10.9842 53.5993 10.9629 53.7066 C 10.8234 54.4085 10.2179 54.7285 9.89355 54.7625 C 9.55692 54.7978 9.23969 54.7399 8.95251 54.5349 C 8.87483 54.4795 8.65204 54.2817 8.57866 54.0636 C 8.49542 53.8163 8.40174 53.5502 8.47625 53.2753 C 8.50676 53.1629 8.5135 53.0355 8.60335 52.9406" stroke-linecap="round" />
</g>
</g>
</g>
</svg>