<svg width="533" height="533" viewBox="0 0 533 533" fill="none" xmlns="http://www.w3.org/2000/svg">
<path d="M221.802 290.288C166.756 193.116 277.376 139.041 326.362 242.384" stroke="#E4E4E4" stroke-width="10" stroke-linecap="round" stroke-linejoin="round"/>
<path d="M222.45 309.301C222.23 315.476 209.665 349.284 217.891 353.628C224.879 357.318 451.496 285.264 333.717 249.946" stroke="#E4E4E4" stroke-width="10" stroke-linecap="round" stroke-linejoin="round"/>
<path d="M369.508 276.416C314.708 292.906 257.955 324.117 216.356 352.221" stroke="#E4E4E4" stroke-width="10" stroke-linecap="round" stroke-linejoin="round"/>
<path d="M287.406 315.166C337.841 259.54 339.038 384.699 287.603 350.578C275.808 342.755 276.776 326.869 279.036 315.007" stroke="#E4E4E4" stroke-width="10" stroke-linecap="round" stroke-linejoin="round"/>
<path d="M217.055 190.771C212.62 172.532 242.399 166.802 243.246 187.268" stroke="#E4E4E4" stroke-width="10" stroke-linecap="round" stroke-linejoin="round"/>
<path d="M162.781 280.646C164.1 298.997 170.926 315.961 178.567 332.082" stroke="#E4E4E4" stroke-width="10" stroke-linecap="round" stroke-linejoin="round"/>
<path d="M346.801 187.279C360.458 199.066 364.913 213.376 364.831 230.287" stroke="#E4E4E4" stroke-width="10" stroke-linecap="round" stroke-linejoin="round"/>
<path d="M372.61 166.454C390.421 185.599 398.032 209.303 399.976 234.496" stroke="#E4E4E4" stroke-width="10" stroke-linecap="round" stroke-linejoin="round"/>
<path d="M151.557 347.34C137.862 333.474 128.504 314.249 130.224 294.851" stroke="#E4E4E4" stroke-width="10" stroke-linecap="round" stroke-linejoin="round"/>
</svg>
