<svg width="274" height="274" viewBox="0 0 274 274" fill="none" xmlns="http://www.w3.org/2000/svg">
<path d="M47.7678 132.483C42.7646 119.339 44.5074 108.639 52.9959 100.383C70.6225 83.2411 78.0898 83.5701 100.383 92.5621C101.373 92.5621 117.601 69.8701 136.851 69.8701C149.228 69.8701 152.776 72.7027 156.944 77.4162C161.112 82.1297 166.585 91.1171 166.585 93.6607C166.585 96.2042 187.698 88.0445 204.7 89.3861C231.189 91.4763 268.757 116.796 232.758 140.368C240.127 142.04 244.32 146.155 245.336 152.712C246.861 162.549 244.671 180.287 227.418 192.116C210.164 203.946 201.966 205.637 184.275 203.946C166.585 202.254 146.971 188.03 145.282 185.847C143.593 183.665 147.487 189.589 129.771 196.767C112.055 203.946 93.5218 203.946 74.1602 192.116C70.6894 189.996 69.4431 185.968 70.4211 180.032C62.054 183.434 53.7487 183.434 45.505 180.032C33.1396 174.931 22.5197 167.579 28.3654 157.255C32.2626 150.372 36.2284 146.258 40.2631 144.912" stroke="#121212" stroke-width="8" stroke-linecap="round" stroke-linejoin="round"/>
</svg>
