<?xml version="1.0" encoding="UTF-8" standalone="no" ?>
<!DOCTYPE svg PUBLIC "-//W3C//DTD SVG 1.1//EN" "http://www.w3.org/Graphics/SVG/1.1/DTD/svg11.dtd">
<svg xmlns="http://www.w3.org/2000/svg" xmlns:xlink="http://www.w3.org/1999/xlink" version="1.1" width="64" height="64" viewBox="0 0 64 64" xml:space="preserve">
<desc>Created with Fabric.js 5.2.4</desc>
<defs>
</defs>
<rect x="0" y="0" width="100%" height="100%" fill="transparent"></rect>
<g transform="matrix(1 0 0 1 32 32)" id="d17d8e50-bbdd-42f3-9d40-902f8ce8aa60"  >
<rect style="stroke: none; stroke-width: 1; stroke-dasharray: none; stroke-linecap: butt; stroke-dashoffset: 0; stroke-linejoin: miter; stroke-miterlimit: 4; fill: rgb(255,255,255); fill-rule: nonzero; opacity: 1; visibility: hidden;" vector-effect="non-scaling-stroke"  x="-32" y="-32" rx="0" ry="0" width="64" height="64" />
</g>
<g transform="matrix(Infinity NaN NaN Infinity 0 0)" id="9dbddf56-c979-4df9-b72d-2b5899ad9228"  >
</g>
<g transform="matrix(1 0 0 1 32 32)"  >
<g style=""   >
		<g transform="matrix(1 0 0 1 1.24 -15.32)"  >
<path style="stroke: rgb(108,133,255); stroke-width: 2; stroke-dasharray: none; stroke-linecap: round; stroke-dashoffset: 0; stroke-linejoin: round; stroke-miterlimit: 4; fill: none; fill-rule: nonzero; opacity: 1;" vector-effect="non-scaling-stroke"  transform=" translate(-33.24, -16.68)" d="M 30.0068 13.6769 C 33.7658 8.27291 40.6217 16.9741 35.804 20.5358 C 32.0604 23.3036 27.6653 18.9895 29.4229 15.2357" stroke-linecap="round" />
</g>
		<g transform="matrix(1 0 0 1 -1.92 -2.2)"  >
<path style="stroke: rgb(108,133,255); stroke-width: 2; stroke-dasharray: none; stroke-linecap: round; stroke-dashoffset: 0; stroke-linejoin: round; stroke-miterlimit: 4; fill: none; fill-rule: nonzero; opacity: 1;" vector-effect="non-scaling-stroke"  transform=" translate(-30.08, -29.8)" d="M 28.8289 24.3164 C 28.8329 24.4995 28.873 24.6865 28.9092 24.863 C 28.9415 25.019 29.5358 27.5945 29.7121 28.0602 C 29.8526 28.4311 31.2767 34.86 31.3222 35.1654 C 31.3247 35.2076 31.3259 35.2492 31.3258 35.291" stroke-linecap="round" />
</g>
		<g transform="matrix(1 0 0 1 -3.26 11.83)"  >
<path style="stroke: rgb(108,133,255); stroke-width: 2; stroke-dasharray: none; stroke-linecap: round; stroke-dashoffset: 0; stroke-linejoin: round; stroke-miterlimit: 4; fill: none; fill-rule: nonzero; opacity: 1;" vector-effect="non-scaling-stroke"  transform=" translate(-28.74, -43.83)" d="M 31.3598 35.46 C 31.2855 35.7131 30.1855 41.248 29.9781 42.3144 C 29.8693 42.876 29.7607 43.4376 29.6533 43.9994 C 29.6099 44.2265 29.5711 44.4556 29.521 44.6814 C 29.4437 45.0289 29.3665 45.3768 29.2892 45.7243 C 29.2345 45.9717 29.1583 46.2133 29.0897 46.4563 C 29.0223 46.6968 28.9529 46.9348 28.8768 47.172 C 28.7083 47.6964 28.5311 48.2194 28.3743 48.7479 C 28.2884 49.0376 28.1983 49.3265 28.1196 49.6186 C 28.034 49.9364 27.9503 50.2542 27.8704 50.5736 C 27.7504 51.0525 27.6395 51.535 27.5106 52.0116 C 27.4723 52.0192 27.4339 52.0266 27.3955 52.0352 C 27.3125 52.0539 27.23 52.0726 27.1471 52.0914 C 27.0182 52.1206 26.1986 52.0969 26.1292 52.1901" stroke-linecap="round" />
</g>
		<g transform="matrix(1 0 0 1 3.92 -1.69)"  >
<path style="stroke: rgb(108,133,255); stroke-width: 2; stroke-dasharray: none; stroke-linecap: round; stroke-dashoffset: 0; stroke-linejoin: round; stroke-miterlimit: 4; fill: none; fill-rule: nonzero; opacity: 1;" vector-effect="non-scaling-stroke"  transform=" translate(-35.92, -30.31)" d="M 36.5901 24.8135 C 36.5635 24.8857 36.5501 24.9631 36.5499 25.0468 C 36.4942 25.7474 36.4353 26.4472 36.3773 27.1474 C 36.2829 28.2035 36.1894 29.2595 36.0852 30.3136 C 36.0347 30.8274 35.9854 31.3409 35.925 31.852 C 35.8835 32.2059 35.8419 32.5595 35.8001 32.913 C 35.7744 33.1328 35.7346 33.3491 35.7003 33.5658 C 35.6639 33.796 35.6328 34.03 35.5878 34.257 C 35.534 34.5273 35.4841 34.8002 35.425 35.0677 C 35.3711 35.3113 35.3168 35.5547 35.2619 35.7979 C 35.2548 35.7916 35.2475 35.7857 35.2402 35.7796" stroke-linecap="round" />
</g>
		<g transform="matrix(1 0 0 1 5.86 12.25)"  >
<path style="stroke: rgb(108,133,255); stroke-width: 2; stroke-dasharray: none; stroke-linecap: round; stroke-dashoffset: 0; stroke-linejoin: round; stroke-miterlimit: 4; fill: none; fill-rule: nonzero; opacity: 1;" vector-effect="non-scaling-stroke"  transform=" translate(-37.86, -44.25)" d="M 35.5778 35.9668 C 35.6081 36.395 36.0454 38.9819 36.1564 39.5401 C 36.4077 40.8027 36.6576 42.0655 36.9053 43.3291 C 37.1104 44.3731 37.3155 45.4184 37.5474 46.4549 C 37.687 47.0778 37.8272 47.6998 37.9735 48.3211 C 38.1004 48.8596 38.2272 49.3991 38.3385 49.9427 C 38.3474 49.9855 38.9827 52.1939 39.0182 52.2453 C 39.2958 52.62 39.9646 52.5242 40.0167 52.4964 C 40.0555 52.4773 40.0947 52.4578 40.1334 52.4387" stroke-linecap="round" />
</g>
		<g transform="matrix(1 0 0 1 -4.44 -2.06)"  >
<path style="stroke: rgb(108,133,255); stroke-width: 2; stroke-dasharray: none; stroke-linecap: round; stroke-dashoffset: 0; stroke-linejoin: round; stroke-miterlimit: 4; fill: none; fill-rule: nonzero; opacity: 1;" vector-effect="non-scaling-stroke"  transform=" translate(-27.56, -29.94)" d="M 28.7938 23.9229 C 28.6834 24.0582 28.5723 24.1924 28.4673 24.3344 C 28.3589 24.481 24.4946 27.7374 24.4441 27.7919 C 24.332 27.9132 24.2423 28.0585 24.157 28.208 C 24.0689 28.3624 24.0093 28.5472 23.9669 28.7271 C 23.9249 28.9056 23.9303 29.0959 23.9523 29.277 C 23.9985 29.6541 30.6913 33.9734 30.8935 34.1055 C 30.9923 34.1701 31.0912 34.2352 31.1908 34.2989 C 31.1848 34.3129 31.179 34.3271 31.1733 34.3414 C 31.068 34.6059 31.0043 34.9033 30.988 35.1972 C 30.9728 35.4693 31.0127 35.7338 31.133 35.9668" stroke-linecap="round" />
</g>
		<g transform="matrix(1 0 0 1 6.19 -2.12)"  >
<path style="stroke: rgb(108,133,255); stroke-width: 2; stroke-dasharray: none; stroke-linecap: round; stroke-dashoffset: 0; stroke-linejoin: round; stroke-miterlimit: 4; fill: none; fill-rule: nonzero; opacity: 1;" vector-effect="non-scaling-stroke"  transform=" translate(-38.19, -29.88)" d="M 36.6654 24.6396 C 36.7644 24.8541 40.1048 28.1718 40.334 28.6498 C 40.3863 28.7584 40.4355 28.8687 40.4827 28.9805 C 40.5135 29.0541 40.541 29.1333 40.5667 29.2093 C 40.5758 29.2356 40.5855 29.2618 40.5935 29.2885 C 40.6162 29.3626 40.645 29.4664 40.6387 29.544 C 40.634 29.6073 40.6273 29.6701 40.619 29.7327 C 40.5988 29.7931 40.5771 29.8524 40.5537 29.9113 C 40.5131 29.9822 40.473 30.0569 40.4211 30.1175 C 40.3133 30.2421 40.1854 30.3486 40.0579 30.4425 C 39.9083 30.5524 39.7563 30.6579 39.6073 30.7689 C 39.4098 30.9166 36.8177 33.2582 36.6654 33.3624 C 36.5145 33.4658 36.353 33.5425 36.1906 33.6164 C 36.2306 33.6811 36.2654 33.7502 36.2935 33.8229 C 36.3293 33.9152 36.3611 34.0064 36.3842 34.1039 C 36.3966 34.1866 36.4043 34.2698 36.4073 34.3534 C 36.3989 34.4667 36.3859 34.5762 36.3608 34.6861 C 36.2895 34.998 36.008 35.1867 35.7465 35.1007" stroke-linecap="round" />
</g>
		<g transform="matrix(1 0 0 1 -5.76 0.46)"  >
<path style="stroke: rgb(108,133,255); stroke-width: 2; stroke-dasharray: none; stroke-linecap: round; stroke-dashoffset: 0; stroke-linejoin: round; stroke-miterlimit: 4; fill: none; fill-rule: nonzero; opacity: 1;" vector-effect="non-scaling-stroke"  transform=" translate(-26.24, -32.46)" d="M 29.12 23.7634 C 20.2632 22.9838 27.5953 35.0953 23.36 41.1995 L 26.7482 41.019" stroke-linecap="round" />
</g>
</g>
</g>
</svg>