<?xml version="1.0" encoding="UTF-8" standalone="no" ?>
<!DOCTYPE svg PUBLIC "-//W3C//DTD SVG 1.1//EN" "http://www.w3.org/Graphics/SVG/1.1/DTD/svg11.dtd">
<svg xmlns="http://www.w3.org/2000/svg" xmlns:xlink="http://www.w3.org/1999/xlink" version="1.1" width="66" height="66" viewBox="0.27 -0.09 66 66" xml:space="preserve">
<desc>Created with Fabric.js 5.2.4</desc>
<defs>
</defs>
<rect x="0" y="0" width="100%" height="100%" fill="transparent"></rect>
<g transform="matrix(1 0 0 1 33 33)" id="45de23fc-d562-4dfa-ade7-5e538475a172"  >
<rect style="stroke: none; stroke-width: 1; stroke-dasharray: none; stroke-linecap: butt; stroke-dashoffset: 0; stroke-linejoin: miter; stroke-miterlimit: 4; fill: rgb(255,255,255); fill-rule: nonzero; opacity: 1; visibility: hidden;" vector-effect="non-scaling-stroke"  x="-33" y="-33" rx="0" ry="0" width="66" height="66" />
</g>
<g transform="matrix(0 0 0 0 0 0)" id="4e49d16d-6d2e-4fe1-8607-adb25aae086a"  >
</g>
<g transform="matrix(0 0 0 0 -2.06 0)"  >
<g style=""   >
</g>
</g>
<g transform="matrix(0 0 0 0 -2.06 0)"  >
<g style=""   >
</g>
</g>
<g transform="matrix(1.02 0 0 1.02 33 33)"  >
<path style="stroke: rgb(108,133,255); stroke-width: 3; stroke-dasharray: none; stroke-linecap: round; stroke-dashoffset: 0; stroke-linejoin: round; stroke-miterlimit: 4; fill: none; fill-rule: nonzero; opacity: 1;"  transform=" translate(-32.44, -31.97)" d="M 29.2969 44.2836 C 26.8 42.7626 26.2888 41.9297 24.1214 39.7376 C 11.0763 26.5437 22.4452 17.9932 28.1586 20.0602 C 29.2352 20.4497 30.4631 21.6497 31.8421 23.6603 C 32.1932 22.0074 33.1966 20.6802 34.8522 19.6788 C 46.3722 12.7109 51.8086 28.0303 40.709 37.9766 C 38.0364 40.3721 33.7609 44.3649 31.995 46.0155" stroke-linecap="round" />
</g>
</svg>