<svg width="388" height="388" viewBox="0 0 388 388" fill="none" xmlns="http://www.w3.org/2000/svg">
<path d="M180.053 89.9531C185.183 94.7757 190.231 105.789 187.85 113.914C182.943 130.668 171.986 137.822 168.716 154.577C168.117 157.638 179.92 169.963 175.095 174.906C174.265 175.757 131.888 160.19 148.16 187.978C158.945 206.389 198.8 188.932 193.521 221.379C189.378 246.844 161.71 277.629 168.007 303.431" stroke="#E4E4E4" stroke-width="8" stroke-linecap="round" stroke-linejoin="round"/>
<path d="M99.2254 145.864C94.0713 160.843 128.516 171.311 122.023 182.881C118.87 188.504 109.134 187.012 104.437 191.592C99.301 196.602 103.192 205.349 108.346 202.481" stroke="#E4E4E4" stroke-width="8" stroke-linecap="round" stroke-linejoin="round"/>
<path d="M113.998 217.023C112.557 254.209 140.784 260.708 145.712 303.431" stroke="#E4E4E4" stroke-width="8" stroke-linecap="round" stroke-linejoin="round"/>
<path d="M236.566 93.7651C227.696 99.7208 217.022 118.21 221.914 130.106C229.199 147.816 269.999 137.045 273.542 159.177C280.33 201.622 217.003 157.555 224.705 205.691C226.887 219.317 254.491 219.843 260.285 230.405C267.143 242.907 262.717 271.609 266.565 285.641" stroke="#E4E4E4" stroke-width="8" stroke-linecap="round" stroke-linejoin="round"/>
<path d="M89.7316 117.43C206.778 -46.6988 427.747 186.219 260.969 301.7C179.291 358.254 85.6156 311.686 70.2253 219.319C68.1054 206.61 64.4005 192.204 69.5027 180.298" stroke="#E4E4E4" stroke-width="8" stroke-linecap="round" stroke-linejoin="round"/>
</svg>
