<svg width="375" height="686" viewBox="0 0 375 686" fill="none" xmlns="http://www.w3.org/2000/svg">
<g clip-path="url(#clip0_736_17297)">
<circle cx="642.5" cy="443" r="525.5" stroke="#F3F3F3" stroke-width="8"/>
<path d="M1168 443C1168 713.892 948.176 933.5 677 933.5C405.824 933.5 186 713.892 186 443C186 172.108 405.824 -47.5 677 -47.5C948.176 -47.5 1168 172.108 1168 443Z" stroke="#F3F3F3" stroke-width="8"/>
<path d="M1204 451.5C1204 711.63 993.346 922.5 733.5 922.5C473.654 922.5 263 711.63 263 451.5C263 191.37 473.654 -19.5 733.5 -19.5C993.346 -19.5 1204 191.37 1204 451.5Z" stroke="#F3F3F3" stroke-width="8"/>
<circle cx="763.5" cy="465" r="427.5" stroke="#F3F3F3" stroke-width="8"/>
<path d="M38.5 611.357C43.7937 607.079 47.7908 602.962 50.4911 599.005C53.1915 595.048 54.5416 591.331 54.5416 587.856C54.5416 583.043 53.0444 579.086 50.05 575.985C47.0555 572.883 43.2055 571.333 38.5 571.333C33.7944 571.333 29.9444 572.883 26.95 575.985C23.9555 579.086 22.4583 583.043 22.4583 587.856C22.4583 591.331 23.8085 595.048 26.5088 599.005C29.2092 602.962 33.2062 607.079 38.5 611.357ZM38.5 619.458C30.9604 613.897 25.3324 608.496 21.6161 603.256C17.8998 598.015 16.0416 592.882 16.0416 587.856C16.0416 581.172 18.127 575.677 22.2979 571.373C26.4687 567.068 31.8694 564.916 38.5 564.916C45.1305 564.916 50.5312 567.068 54.702 571.373C58.8729 575.677 60.9583 581.172 60.9583 587.856C60.9583 592.882 59.1001 598.015 55.3838 603.256C51.6675 608.496 46.0395 613.897 38.5 619.458ZM38.5 593.791C40.2645 593.791 41.7751 593.163 43.0317 591.906C44.2883 590.65 44.9166 589.139 44.9166 587.374C44.9166 585.61 44.2883 584.099 43.0317 582.843C41.7751 581.586 40.2645 580.958 38.5 580.958C36.7354 580.958 35.2248 581.586 33.9682 582.843C32.7116 584.099 32.0833 585.61 32.0833 587.374C32.0833 589.139 32.7116 590.65 33.9682 591.906C35.2248 593.163 36.7354 593.791 38.5 593.791ZM16.0416 629.083V622.666H60.9583V629.083H16.0416Z" fill="#E4E4E4"/>
<circle cx="82.3037" cy="101.827" r="6.47187" transform="rotate(-159.872 82.3037 101.827)" fill="#AA4F4F"/>
<circle cx="96.9949" cy="95.0168" r="4.97836" transform="rotate(-159.872 96.9949 95.0168)" fill="#E1DD7D"/>
<circle cx="87.0457" cy="85.2718" r="4.23161" transform="rotate(-159.872 87.0457 85.2718)" fill="#6C85FF"/>
</g>
<defs>
<clipPath id="clip0_736_17297">
<rect width="375" height="686" fill="white"/>
</clipPath>
</defs>
</svg>
