<?xml version="1.0" encoding="UTF-8" standalone="no" ?>
<!DOCTYPE svg PUBLIC "-//W3C//DTD SVG 1.1//EN" "http://www.w3.org/Graphics/SVG/1.1/DTD/svg11.dtd">
<svg xmlns="http://www.w3.org/2000/svg" xmlns:xlink="http://www.w3.org/1999/xlink" version="1.1" width="60" height="60" viewBox="0 0 60 60" xml:space="preserve">
<desc>Created with Fabric.js 5.2.4</desc>
<defs>
</defs>
<g transform="matrix(0 0 0 0 0 0)" id="98c5b11b-fd96-41d5-920c-ef456dbbd7cf"  >
</g>
<g transform="matrix(1 0 0 1 30 30)" id="5787ea3d-d037-46ab-94fc-51c54bafeda3"  >
<rect style="stroke: none; stroke-width: 1; stroke-dasharray: none; stroke-linecap: butt; stroke-dashoffset: 0; stroke-linejoin: miter; stroke-miterlimit: 4; fill: rgb(255,255,255); fill-rule: nonzero; opacity: 1; visibility: hidden;" vector-effect="non-scaling-stroke"  x="-30" y="-30" rx="0" ry="0" width="60" height="60" />
</g>
<g transform="matrix(1.11 0 0 1.11 29.97 29.99)"  >
<g style=""   >
		<g transform="matrix(1 0 0 1 10.72 0.6)"  >
<path style="stroke: none; stroke-width: 1; stroke-dasharray: none; stroke-linecap: butt; stroke-dashoffset: 0; stroke-linejoin: miter; stroke-miterlimit: 4; fill: rgb(60,64,67); fill-rule: evenodd; opacity: 1;" vector-effect="non-scaling-stroke"  transform=" translate(-37.72, -11.6)" d="M 25.0351 16.8778 L 25.0351 10.7655 L 28.194 10.7655 C 29.4885 10.7655 30.5811 10.3323 31.4718 9.47803 L 31.6855 9.26145 C 33.3125 7.49272 33.2056 4.73734 31.4718 3.10097 C 30.6048 2.23465 29.4172 1.76539 28.194 1.78946 L 23.123 1.78946 L 23.123 16.8778 L 25.0351 16.8778 Z M 25.0354 8.91268 L 25.0354 3.64258 L 28.2423 3.64258 C 28.9312 3.64258 29.5845 3.90728 30.0715 4.38857 C 31.1049 5.39928 31.1286 7.08378 30.1309 8.13059 C 29.6439 8.64797 28.955 8.93674 28.2423 8.91268 L 25.0354 8.91268 Z M 40.605 7.36083 C 39.7855 6.6028 38.6692 6.21777 37.256 6.21777 C 35.439 6.21777 34.0733 6.89158 33.1707 8.22715 L 34.8571 9.29802 C 35.4746 8.38357 36.3178 7.92635 37.3866 7.92635 C 38.0636 7.92635 38.7167 8.17902 39.2274 8.63624 C 39.7262 9.0694 40.0112 9.69508 40.0112 10.3568 L 40.0112 10.802 C 39.2749 10.3929 38.3486 10.1764 37.2085 10.1764 C 35.8784 10.1764 34.8096 10.4892 34.0139 11.1269 C 33.2182 11.7646 32.8144 12.6069 32.8144 13.6777 C 32.7907 14.6523 33.2063 15.5788 33.9426 16.2045 C 34.6908 16.8783 35.6409 17.2152 36.7572 17.2152 C 38.0754 17.2152 39.1205 16.6256 39.9162 15.4465 L 39.9993 15.4465 L 39.9993 16.8783 L 41.8282 16.8783 L 41.8282 10.5133 C 41.8282 9.17769 41.4244 8.11886 40.605 7.36083 Z M 35.4156 14.9771 C 35.0236 14.6883 34.7861 14.219 34.7861 13.7137 C 34.7861 13.1482 35.0474 12.6789 35.5581 12.3059 C 36.0808 11.9329 36.734 11.7404 37.5061 11.7404 C 38.5751 11.7284 39.4065 11.969 40.0004 12.4503 C 40.0004 13.2685 39.6797 13.9784 39.0502 14.58 C 38.48 15.1575 37.708 15.4824 36.9003 15.4824 C 36.3658 15.4944 35.8432 15.314 35.4156 14.9771 Z M 45.9368 21.4144 L 52.326 6.55469 L 50.2477 6.55469 L 47.2907 13.9665 L 47.255 13.9665 L 44.2267 6.55469 L 42.1484 6.55469 L 46.3406 16.2165 L 43.9654 21.4144 L 45.9368 21.4144 Z" stroke-linecap="round" />
</g>
		<g transform="matrix(1 0 0 1 -12.67 0.76)"  >
<path style="stroke: none; stroke-width: 1; stroke-dasharray: none; stroke-linecap: butt; stroke-dashoffset: 0; stroke-linejoin: miter; stroke-miterlimit: 4; fill: rgb(66,133,244); fill-rule: nonzero; opacity: 1;" vector-effect="non-scaling-stroke"  transform=" translate(-14.33, -11.75)" d="M 18.4337 9.44225 C 18.4337 8.85267 18.3862 8.26309 18.2912 7.68555 L 10.2275 7.68555 L 10.2275 11.0185 L 14.8472 11.0185 C 14.6572 12.0893 14.0397 13.0519 13.1371 13.6535 L 13.1371 15.8193 L 15.8923 15.8193 C 17.5074 14.3153 18.4337 12.0893 18.4337 9.44225 Z" stroke-linecap="round" />
</g>
		<g transform="matrix(1 0 0 1 -17.76 3.41)"  >
<path style="stroke: none; stroke-width: 1; stroke-dasharray: none; stroke-linecap: butt; stroke-dashoffset: 0; stroke-linejoin: miter; stroke-miterlimit: 4; fill: rgb(52,168,83); fill-rule: nonzero; opacity: 1;" vector-effect="non-scaling-stroke"  transform=" translate(-9.24, -14.41)" d="M 10.2279 17.9129 C 12.5319 17.9129 14.4795 17.1428 15.8927 15.8193 L 13.1375 13.6535 C 12.3656 14.1829 11.3799 14.4837 10.2279 14.4837 C 7.9953 14.4837 6.10704 12.9556 5.43012 10.9102 L 2.5918 10.9102 L 2.5918 13.1481 C 4.04065 16.072 6.99773 17.9129 10.2279 17.9129 Z" stroke-linecap="round" />
</g>
		<g transform="matrix(1 0 0 1 -23.45 -1.75)"  >
<path style="stroke: none; stroke-width: 1; stroke-dasharray: none; stroke-linecap: butt; stroke-dashoffset: 0; stroke-linejoin: miter; stroke-miterlimit: 4; fill: rgb(251,188,4); fill-rule: nonzero; opacity: 1;" vector-effect="non-scaling-stroke"  transform=" translate(-3.55, -9.25)" d="M 5.43016 10.9101 C 5.07382 9.83926 5.07382 8.67214 5.43016 7.58924 L 5.43016 5.36328 L 2.59138 5.36328 C 1.36798 7.80582 1.36798 10.6935 2.59138 13.1361 L 5.43016 10.9101 Z" stroke-linecap="round" />
</g>
		<g transform="matrix(1 0 0 1 -17.73 -6.9)"  >
<path style="stroke: none; stroke-width: 1; stroke-dasharray: none; stroke-linecap: butt; stroke-dashoffset: 0; stroke-linejoin: miter; stroke-miterlimit: 4; fill: rgb(234,67,53); fill-rule: nonzero; opacity: 1;" vector-effect="non-scaling-stroke"  transform=" translate(-9.27, -4.09)" d="M 10.2279 4.01564 C 11.4512 3.99157 12.6269 4.46083 13.5057 5.31511 L 15.9521 2.83648 C 14.3964 1.36855 12.3537 0.562397 10.2279 0.586461 C 6.99773 0.586461 4.04065 2.43942 2.5918 5.36324 L 5.43012 7.60123 C 6.10704 5.54373 7.9953 4.01564 10.2279 4.01564 Z" stroke-linecap="round" />
</g>
</g>
</g>
</svg>