<svg width="118" height="147" viewBox="0 0 118 147" fill="none" xmlns="http://www.w3.org/2000/svg">
<path d="M117.456 143.035L107.006 129.598L109.918 126.685C110.775 125.829 110.873 124.458 110.138 123.479L95.4534 103.899C95.4534 103.899 95.331 103.801 95.2576 103.752C95.1842 103.654 95.1352 103.557 95.0373 103.483C94.9639 103.41 94.8416 103.385 94.7681 103.336C94.6458 103.263 94.5234 103.189 94.401 103.14C94.1807 103.043 93.9604 103.018 93.7402 102.994C93.6423 102.994 93.5688 102.945 93.4954 102.945H81.258V95.382C86.2753 92.4695 89.922 87.4031 90.8033 81.3824V81.3334V81.2845V81.26C90.9501 80.4279 91.0235 79.5467 91.0235 78.4944V73.5994V73.1589L101.303 71.103C102.625 70.8338 103.481 69.5366 103.212 68.2149C102.943 66.8931 101.67 66.0366 100.324 66.3058L90.2894 68.3126C89.9467 67.0889 89.4817 65.9142 88.9188 64.7882L97.387 58.4248C98.4639 57.6171 98.6841 56.0752 97.8765 54.9983C97.0688 53.9214 95.5269 53.7011 94.45 54.5088L86.1776 60.7255C85.8839 60.4073 85.6147 60.0647 85.2965 59.7465C84.3664 58.8164 83.3874 58.0087 82.3351 57.299L88.3314 45.3064C88.9432 44.1071 88.4537 42.6387 87.23 42.0267C86.0063 41.4147 84.5623 41.9043 83.9503 43.1281L77.954 55.1452C76.6568 54.6802 75.2863 54.3621 73.9157 54.1907V41.7819C73.9157 40.4358 72.8143 39.3344 71.4682 39.3344C70.1221 39.3344 69.0207 40.4358 69.0207 41.7819V54.1907C67.6256 54.3621 66.2795 54.7047 64.9824 55.1452L58.9861 43.1281C58.3742 41.9288 56.9058 41.4393 55.7064 42.0267C54.5071 42.6386 54.0177 44.107 54.605 45.3064L60.6013 57.299C59.1818 58.2535 57.8846 59.4039 56.7588 60.701L48.4618 54.4844C47.3849 53.6767 45.8429 53.897 45.0353 54.9739C44.2277 56.0507 44.4479 57.5927 45.5248 58.4003L54.0176 64.7638C53.4547 65.8896 52.9897 67.0645 52.647 68.2882L42.5878 66.2813C41.2417 66.0121 39.969 66.8687 39.6997 68.1904C39.4305 69.5122 40.2871 70.8093 41.6088 71.0785L51.9127 73.1344V73.575V78.47C51.9127 79.5224 51.9861 80.4035 52.133 81.2356V81.26V81.309V81.3579C53.0141 87.3788 56.6852 92.445 61.6782 95.3576V102.92H57.5176L44.1298 93.987L27.7078 46.7994L29.5679 31.9432H32.309C33.6552 31.9432 34.7565 30.8418 34.7565 29.4957V22.1532C34.7565 20.8071 33.6552 19.7057 32.309 19.7057H32.1867C31.4279 12.1675 27.2182 9.69556 24.061 7.8599C21.2954 6.26908 20.0962 5.43685 20.0962 2.57333C20.0962 1.76567 19.7046 1.00694 19.0193 0.541879C18.334 0.0768178 17.5018 0.0034324 16.7431 0.297131C16.2047 0.517397 4.33435 5.43677 3.0861 19.7063H2.96372C1.6176 19.7063 0.516235 20.8076 0.516235 22.1538V29.4962C0.516235 30.8424 1.6176 31.9437 2.96372 31.9437H5.70491L7.88313 49.3698C8.02998 50.5936 9.08239 51.5236 10.3062 51.5236H13.904L23.694 112.221L15.8376 120.861C14.9565 121.84 15.0054 123.308 15.911 124.238L27.4387 135.766V144.553C27.4387 145.899 28.5401 147 29.8862 147H115.549C116.479 147 117.336 146.462 117.752 145.629C118.168 144.797 118.07 143.794 117.482 143.06L117.456 143.035ZM71.4686 58.8661C75.3846 58.8661 79.0804 60.3835 81.846 63.1737C83.7305 65.0582 85.0522 67.3834 85.6885 69.9043C85.5661 69.7819 85.4438 69.6351 85.2969 69.5127C81.6012 65.817 76.6817 63.7857 71.444 63.7857C70.7832 63.7857 70.1469 63.8346 69.5105 63.8836C69.2902 63.8836 69.0944 63.9325 68.8986 63.9815C68.4826 64.0304 68.042 64.1038 67.6259 64.1773C67.3812 64.2262 67.1609 64.2752 66.9162 64.3486C66.5246 64.4465 66.1574 64.5444 65.7903 64.6423C65.5456 64.7157 65.3008 64.7891 65.0806 64.887C64.7134 65.0094 64.3708 65.1563 64.0037 65.3031C63.7834 65.401 63.5386 65.4989 63.3184 65.5968L62.2904 66.1108C62.0946 66.2331 61.8744 66.331 61.6786 66.4534C61.3114 66.6737 60.9443 66.894 60.6017 67.1387C60.4548 67.2366 60.2835 67.3345 60.1122 67.4569C59.5982 67.824 59.1087 68.1911 58.6437 68.6072L58.5947 68.6562C58.1542 69.0478 57.7137 69.4638 57.3221 69.8799C57.2976 69.9044 57.2731 69.9289 57.2242 69.9533C58.8394 63.5899 64.6156 58.8907 71.4686 58.8907L71.4686 58.8661ZM57.0284 80.9428C57.1018 80.5023 57.2242 80.0862 57.3221 79.6701C57.42 79.2785 57.4934 78.8625 57.6403 78.4709C57.7871 78.0303 58.0074 77.6142 58.2032 77.1982C58.3745 76.831 58.5214 76.4639 58.7172 76.1213C58.9374 75.7052 59.2311 75.3381 59.5004 74.971C59.7206 74.6528 59.9164 74.3101 60.1612 74.0164C60.4549 73.6493 60.7975 73.3311 61.1402 73.013C61.4094 72.7437 61.6541 72.45 61.9478 72.2053C62.315 71.8871 62.731 71.6424 63.1226 71.3487C63.4163 71.1284 63.71 70.9081 64.0282 70.7123C64.4687 70.4431 64.9338 70.2718 65.3988 70.0515C65.7169 69.9047 66.0106 69.7333 66.3533 69.5865C66.8918 69.3907 67.4302 69.2683 67.9932 69.1214C68.2869 69.048 68.5561 68.9256 68.8498 68.8767C69.7064 68.7054 70.5876 68.6319 71.4931 68.6319C75.4091 68.6319 79.1048 70.1494 81.8704 72.9395C82.4334 73.5025 82.9228 74.0898 83.3879 74.7261C83.5347 74.9464 83.6571 75.1667 83.8039 75.4114C84.0732 75.8275 84.3669 76.2436 84.5871 76.7086C84.734 77.0023 84.8319 77.296 84.9543 77.5897C85.1256 78.0058 85.3214 78.3974 85.4438 78.8134C85.5417 79.1316 85.6151 79.4743 85.6885 79.7924C85.7864 80.1596 85.8843 80.5512 85.9332 80.9428C84.7585 87.9181 78.6152 93.1312 71.493 93.1312C64.3708 93.1312 58.2276 87.9181 57.0528 80.9428L57.0284 80.9428ZM76.3639 97.3649V102.896H66.574V97.3649C68.1404 97.7809 69.7802 98.0012 71.469 98.0012C73.1577 98.0012 74.7975 97.781 76.3639 97.3649ZM15.8135 6.39201C16.9638 9.42689 19.4602 10.8709 21.5896 12.0946C24.2819 13.661 26.6559 15.056 27.2678 19.7063H8.00584C8.8135 12.5106 12.9744 8.39887 15.8135 6.39201ZM7.83463 27.0496H5.38715V24.6021H29.862V27.0496H7.83463ZM12.4359 46.6295L10.6003 31.9445H24.6243L22.7887 46.6295H12.4359ZM18.8238 51.5244H24.1592L39.2846 95.0168L27.8548 107.597L18.8238 51.5244ZM29.7641 131.19L20.9776 122.403L42.4669 98.7599L53.0156 105.784L29.7406 131.164L29.7641 131.19ZM32.2851 142.081V135.693L57.836 107.816H88.3321L60.4801 142.081L32.2851 142.081ZM87.574 142.081H66.8193L93.4229 109.334L104.951 124.704L87.574 142.081ZM94.5004 142.081L103.507 133.074L110.507 142.081H94.5004Z" fill="#E4E4E4"/>
</svg>
