<svg width="228" height="161" viewBox="0 0 228 161" fill="none" xmlns="http://www.w3.org/2000/svg">
<path d="M222.559 161H4.73529C2.12141 161 0 158.869 0 156.265V127.853C0 125.249 2.12141 123.118 4.73529 123.118H85.2353C87.8492 123.118 89.9706 125.249 89.9706 127.853C89.9706 130.457 87.8492 132.588 85.2353 132.588H9.47059V151.529H217.824V132.588H142.059C139.454 132.588 137.324 130.457 137.324 127.853C137.324 125.249 139.454 123.118 142.059 123.118H222.559C225.163 123.118 227.294 125.249 227.294 127.853V156.265C227.294 158.869 225.163 161 222.559 161Z" fill="#E4E4E4"/>
<path d="M203.618 132.588H142.059C139.454 132.588 137.323 130.457 137.323 127.853C137.323 125.249 139.454 123.118 142.059 123.118H198.882V104.176H142.059C139.454 104.176 137.323 102.046 137.323 99.4412C137.323 96.8368 139.454 94.7059 142.059 94.7059H203.618C206.222 94.7059 208.353 96.8368 208.353 99.4412V127.853C208.353 130.457 206.222 132.588 203.618 132.588Z" fill="#E4E4E4"/>
<path d="M85.2353 132.588H23.6765C21.0626 132.588 18.9412 130.457 18.9412 127.853V99.4412C18.9412 96.8368 21.0626 94.7059 23.6765 94.7059H85.2353C87.8492 94.7059 89.9706 96.8368 89.9706 99.4412C89.9706 102.046 87.8492 104.176 85.2353 104.176H28.4117V123.118H85.2353C87.8492 123.118 89.9706 125.249 89.9706 127.853C89.9706 130.457 87.8492 132.588 85.2353 132.588Z" fill="#E4E4E4"/>
<path d="M85.2353 104.176H42.6176C40.0037 104.176 37.8823 102.046 37.8823 99.4412V71.0294C37.8823 68.4155 40.0037 66.2941 42.6176 66.2941H85.2353C87.8491 66.2941 89.9706 68.4155 89.9706 71.0294C89.9706 73.6433 87.8491 75.7647 85.2353 75.7647H47.3529V94.7059H85.2353C87.8491 94.7059 89.9706 96.8368 89.9706 99.4412C89.9706 102.046 87.8491 104.176 85.2353 104.176Z" fill="#E4E4E4"/>
<path d="M184.676 104.176H142.059C139.454 104.176 137.323 102.046 137.323 99.4412C137.323 96.8368 139.454 94.7059 142.059 94.7059H179.941V75.7647H142.059C139.454 75.7647 137.323 73.6433 137.323 71.0294C137.323 68.4155 139.454 66.2941 142.059 66.2941H184.676C187.281 66.2941 189.412 68.4155 189.412 71.0294V99.4412C189.412 102.046 187.281 104.176 184.676 104.176Z" fill="#E4E4E4"/>
<path d="M165.735 75.7647H142.059C139.454 75.7647 137.323 73.6433 137.323 71.0294C137.323 68.4155 139.454 66.2941 142.059 66.2941H161V47.3529H66.2941V66.2941H85.2352C87.8491 66.2941 89.9705 68.4155 89.9705 71.0294C89.9705 73.6433 87.8491 75.7647 85.2352 75.7647H61.5588C58.9449 75.7647 56.8235 73.6433 56.8235 71.0294V42.6176C56.8235 40.0038 58.9449 37.8824 61.5588 37.8824H165.735C168.34 37.8824 170.471 40.0038 170.471 42.6176V71.0294C170.471 73.6433 168.34 75.7647 165.735 75.7647Z" fill="#E4E4E4"/>
<path d="M146.794 47.3529H80.4999C77.8861 47.3529 75.7646 45.2315 75.7646 42.6176V4.73529C75.7646 2.12141 77.8861 0 80.4999 0H146.794C149.398 0 151.529 2.12141 151.529 4.73529V42.6176C151.529 45.2315 149.398 47.3529 146.794 47.3529ZM85.2352 37.8824H142.059V9.47059H85.2352V37.8824Z" fill="#E4E4E4"/>
<path d="M161 9.47059H66.2941C63.6802 9.47059 61.5588 7.34918 61.5588 4.73529C61.5588 2.12141 63.6802 0 66.2941 0H161C163.604 0 165.735 2.12141 165.735 4.73529C165.735 7.34918 163.604 9.47059 161 9.47059Z" fill="#E4E4E4"/>
<path d="M89.9706 156.265C87.3568 156.265 85.2354 154.134 85.2354 151.529V47.3529C85.2354 44.7391 87.3568 42.6176 89.9706 42.6176C92.5845 42.6176 94.7059 44.7391 94.7059 47.3529V151.529C94.7059 154.134 92.5845 156.265 89.9706 156.265Z" fill="#E4E4E4"/>
<path d="M137.324 156.265C134.719 156.265 132.588 154.134 132.588 151.529V47.3529C132.588 44.7391 134.719 42.6176 137.324 42.6176C139.928 42.6176 142.059 44.7391 142.059 47.3529V151.529C142.059 154.134 139.928 156.265 137.324 156.265Z" fill="#E4E4E4"/>
<path d="M123.118 142.059H104.176C101.563 142.059 99.4412 139.928 99.4412 137.324C99.4412 134.719 101.563 132.588 104.176 132.588H123.118C125.722 132.588 127.853 134.719 127.853 137.324C127.853 139.928 125.722 142.059 123.118 142.059Z" fill="#E4E4E4"/>
<path d="M123.118 123.118H104.176C101.563 123.118 99.4412 120.987 99.4412 118.382C99.4412 115.778 101.563 113.647 104.176 113.647H123.118C125.722 113.647 127.853 115.778 127.853 118.382C127.853 120.987 125.722 123.118 123.118 123.118Z" fill="#E4E4E4"/>
<path d="M123.118 104.176H104.176C101.563 104.176 99.4412 102.046 99.4412 99.4412C99.4412 96.8368 101.563 94.7059 104.176 94.7059H123.118C125.722 94.7059 127.853 96.8368 127.853 99.4412C127.853 102.046 125.722 104.176 123.118 104.176Z" fill="#E4E4E4"/>
<path d="M123.118 85.2353H104.176C101.563 85.2353 99.4412 83.1139 99.4412 80.5C99.4412 77.8861 101.563 75.7647 104.176 75.7647H123.118C125.722 75.7647 127.853 77.8861 127.853 80.5C127.853 83.1139 125.722 85.2353 123.118 85.2353Z" fill="#E4E4E4"/>
<path d="M123.118 66.2941H104.176C101.563 66.2941 99.4412 64.1727 99.4412 61.5588C99.4412 58.9449 101.563 56.8235 104.176 56.8235H123.118C125.722 56.8235 127.853 58.9449 127.853 61.5588C127.853 64.1727 125.722 66.2941 123.118 66.2941Z" fill="#E4E4E4"/>
<path d="M127.853 47.3529H99.4412C96.8273 47.3529 94.7059 45.2315 94.7059 42.6176V23.6765C94.7059 21.0626 96.8273 18.9412 99.4412 18.9412H127.853C130.457 18.9412 132.588 21.0626 132.588 23.6765V42.6176C132.588 45.2315 130.457 47.3529 127.853 47.3529ZM104.177 37.8823H123.118V28.4117H104.177V37.8823Z" fill="#E4E4E4"/>
</svg>
