<svg width="140" height="141" viewBox="0 0 140 141" fill="none" xmlns="http://www.w3.org/2000/svg">
<path d="M46.842 131.024H34.7C33.2791 131.024 32.1223 129.87 32.1223 128.446V77.9763C32.1223 76.5519 33.2791 75.3986 34.7 75.3986H46.842C48.2717 75.3986 49.418 76.5519 49.418 77.9763V128.446C49.418 129.87 48.27 131.024 46.842 131.024ZM37.2777 125.87H44.2643V80.5523H37.2777V125.87Z" fill="#E4E4E4"/>
<path d="M106.971 131.024H94.829C93.4081 131.024 92.2513 129.87 92.2513 128.446V77.9763C92.2513 76.5519 93.4081 75.3986 94.829 75.3986H106.971C108.39 75.3986 109.547 76.5519 109.547 77.9763V128.446C109.547 129.87 108.39 131.024 106.971 131.024ZM97.4068 125.87H104.393V80.5523H97.4068V125.87Z" fill="#E4E4E4"/>
<path d="M46.842 67.8064H34.7C33.2791 67.8064 32.1223 66.6549 32.1223 65.2304V39.8812C32.1223 38.4567 33.2791 37.3035 34.7 37.3035H46.842C48.2717 37.3035 49.418 38.4567 49.418 39.8812V65.2287C49.418 66.6531 48.27 67.8064 46.842 67.8064ZM37.2777 62.6509H44.2643V42.4571H37.2777V62.6509Z" fill="#E4E4E4"/>
<path d="M106.971 67.8064H94.829C93.4081 67.8064 92.2513 66.6549 92.2513 65.2304V39.8812C92.2513 38.4567 93.4081 37.3035 94.829 37.3035H106.971C108.39 37.3035 109.547 38.4567 109.547 39.8812V65.2287C109.547 66.6531 108.39 67.8064 106.971 67.8064ZM97.4068 62.6509H104.393V42.4571H97.4068V62.6509Z" fill="#E4E4E4"/>
<path d="M51.0185 141H30.6733C29.2524 141 28.0956 139.847 28.0956 138.422V128.446C28.0956 127.022 29.2524 125.87 30.6733 125.87H51.0185C52.45 125.87 53.5962 127.022 53.5962 128.446V138.422C53.5962 139.847 52.4483 141 51.0185 141ZM33.251 135.846H48.4426V131.024H33.251V135.846Z" fill="#E4E4E4"/>
<path d="M111.077 141H90.7318C89.3021 141 88.1541 139.847 88.1541 138.422V128.446C88.1541 127.022 89.3021 125.87 90.7318 125.87H111.077C112.498 125.87 113.655 127.022 113.655 128.446V138.422C113.655 139.847 112.498 141 111.077 141ZM93.3095 135.846H108.501V131.024H93.3095V135.846Z" fill="#E4E4E4"/>
<path d="M116.412 42.4572H24.9244C23.5035 42.4572 22.3467 41.3039 22.3467 39.8812V27.2092C22.3467 25.7848 23.5035 24.6333 24.9244 24.6333H116.412C117.844 24.6333 118.99 25.7866 118.99 27.2092V39.8812C118.99 41.3039 117.844 42.4572 116.412 42.4572ZM27.5022 37.3035H113.836V29.7852H27.5022V37.3035Z" fill="#E4E4E4"/>
<path d="M116.412 80.5524H24.9244C23.5035 80.5524 22.3467 79.4009 22.3467 77.9764V65.3045C22.3467 63.88 23.5035 62.7267 24.9244 62.7267H116.412C117.844 62.7267 118.99 63.88 118.99 65.3045V77.9764C118.99 79.4009 117.844 80.5524 116.412 80.5524ZM27.5022 75.3987H113.836V67.8804H27.5022V75.3987Z" fill="#E4E4E4"/>
<path d="M24.9245 29.7852C24.6639 29.7852 24.4016 29.7447 24.1286 29.6602C23.162 29.3486 0.441528 21.7845 0.441528 3.37074C0.441528 1.94631 1.60009 0.79303 3.01924 0.79303H13.9727C14.6876 0.79303 15.3725 1.08883 15.8655 1.61529C15.8955 1.64346 21.1002 6.80417 34.7001 6.80417H75.1793C76.609 6.80417 77.7552 7.95744 77.7552 9.38187C77.7552 10.8063 76.609 11.9596 75.1793 11.9596H34.7001C21.8538 11.9596 15.2598 7.76905 13.0061 5.94669H5.80824C7.94224 18.8106 25.539 24.6967 25.7221 24.7566C27.0796 25.1968 27.8138 26.6529 27.3825 28.0034C27.0198 29.0933 26.0126 29.7852 24.9245 29.7852Z" fill="#E4E4E4"/>
<path d="M115.076 29.7852C113.988 29.7852 112.982 29.0933 112.628 28.0034C112.185 26.6511 112.931 25.1968 114.28 24.7566C114.47 24.6967 132.069 18.8106 134.194 5.94669H127.005C124.74 7.76905 118.157 11.9596 105.302 11.9596H64.8227C63.4036 11.9596 62.245 10.8063 62.245 9.38187C62.245 7.95744 63.4036 6.80417 64.8227 6.80417H105.302C118.911 6.80417 124.117 1.64346 124.166 1.59064C124.649 1.09411 125.335 0.79303 126.031 0.79303H136.983C138.414 0.79303 139.56 1.94631 139.56 3.37074C139.56 21.7845 116.84 29.3486 115.873 29.6602C115.607 29.7447 115.336 29.7852 115.076 29.7852Z" fill="#E4E4E4"/>
<path d="M125.432 141H16.3375C14.9078 141 13.7598 139.847 13.7598 138.422C13.7598 136.998 14.9078 135.846 16.3375 135.846H125.432C126.862 135.846 128.01 136.998 128.01 138.422C128.01 139.847 126.862 141 125.432 141Z" fill="#E4E4E4"/>
<path d="M77.3238 58.1347H64.4388C63.0179 58.1347 61.8611 56.9814 61.8611 55.557V39.8812C61.8611 38.4567 63.0179 37.3035 64.4388 37.3035H77.3238C78.7535 37.3035 79.8998 38.4567 79.8998 39.8812V55.557C79.8998 56.9814 78.7535 58.1347 77.3238 58.1347ZM67.0147 52.9793H74.7479V42.4571H67.0147V52.9793Z" fill="#E4E4E4"/>
</svg>
