<svg width="194" height="239" viewBox="0 0 194 239" fill="none" xmlns="http://www.w3.org/2000/svg">
<path d="M96.6875 179.025C101.187 179.025 105.586 177.692 109.327 175.194C113.068 172.696 115.984 169.145 117.706 164.991C119.428 160.837 119.878 156.266 119 151.857C118.123 147.447 115.956 143.396 112.774 140.217C109.593 137.037 105.539 134.872 101.126 133.995C96.7127 133.118 92.1385 133.568 87.9815 135.289C83.8244 137.009 80.2714 139.923 77.7716 143.662C75.2718 147.4 73.9375 151.795 73.9375 156.292C73.9375 162.321 76.3344 168.103 80.6008 172.367C84.8673 176.63 90.6538 179.025 96.6875 179.025ZM96.6875 139.242C100.062 139.242 103.361 140.242 106.167 142.115C108.973 143.989 111.16 146.651 112.451 149.767C113.743 152.882 114.081 156.311 113.422 159.618C112.764 162.925 111.139 165.963 108.753 168.348C106.366 170.732 103.326 172.356 100.016 173.014C96.7064 173.672 93.2757 173.334 90.158 172.044C87.0402 170.753 84.3754 168.568 82.5005 165.764C80.6257 162.96 79.625 159.664 79.625 156.292C79.625 151.77 81.4226 147.433 84.6225 144.235C87.8223 141.038 92.1622 139.242 96.6875 139.242ZM93.8438 82.4083V88.0917C93.8438 88.8453 93.5441 89.5681 93.0108 90.101C92.4775 90.6339 91.7542 90.9333 91 90.9333C90.2458 90.9333 89.5225 90.6339 88.9892 90.101C88.4559 89.5681 88.1562 88.8453 88.1562 88.0917V82.4083C88.1562 81.6547 88.4559 80.9319 88.9892 80.399C89.5225 79.8661 90.2458 79.5667 91 79.5667C91.7542 79.5667 92.4775 79.8661 93.0108 80.399C93.5441 80.9319 93.8438 81.6547 93.8438 82.4083ZM105.219 82.4083V88.0917C105.219 88.8453 104.919 89.5681 104.386 90.101C103.853 90.6339 103.129 90.9333 102.375 90.9333C101.621 90.9333 100.897 90.6339 100.364 90.101C99.8309 89.5681 99.5312 88.8453 99.5312 88.0917V82.4083C99.5312 81.6547 99.8309 80.9319 100.364 80.399C100.897 79.8661 101.621 79.5667 102.375 79.5667C103.129 79.5667 103.853 79.8661 104.386 80.399C104.919 80.9319 105.219 81.6547 105.219 82.4083ZM85.3466 159.202C85.3466 158.448 85.6462 157.725 86.1795 157.192C86.7128 156.659 87.4362 156.36 88.1904 156.36H93.8438V144.925C93.8438 144.171 94.1434 143.449 94.6767 142.916C95.21 142.383 95.9333 142.083 96.6875 142.083C97.4417 142.083 98.165 142.383 98.6983 142.916C99.2316 143.449 99.5312 144.171 99.5312 144.925V159.202C99.5312 159.955 99.2316 160.678 98.6983 161.211C98.165 161.744 97.4417 162.043 96.6875 162.043H88.1904C87.4362 162.043 86.7128 161.744 86.1795 161.211C85.6462 160.678 85.3466 159.955 85.3466 159.202ZM2.84375 238.7H190.531C191.285 238.7 192.009 238.401 192.542 237.868C193.075 237.335 193.375 236.612 193.375 235.858C193.375 235.105 193.075 234.382 192.542 233.849C192.009 233.316 191.285 233.017 190.531 233.017H170.625V207.442C170.615 207.119 170.552 206.8 170.437 206.498C170.437 206.464 170.437 206.424 170.437 206.385V206.35V206.322L159.25 178.485V161.975C159.25 161.221 158.95 160.499 158.417 159.966C157.884 159.433 157.16 159.133 156.406 159.133C155.652 159.133 154.929 159.433 154.395 159.966C153.862 160.499 153.562 161.221 153.562 161.975V178.485L142.421 206.333V206.362V206.396C142.421 206.436 142.421 206.475 142.421 206.51C142.292 206.805 142.213 207.12 142.188 207.442V233.017H133.656V198.917C134.41 198.917 135.134 198.617 135.667 198.084C136.2 197.551 136.5 196.829 136.5 196.075V184.708C136.5 183.955 136.2 183.232 135.667 182.699C135.134 182.166 134.41 181.867 133.656 181.867H130.812V130.717H133.656C134.41 130.717 135.134 130.417 135.667 129.884C136.2 129.351 136.5 128.629 136.5 127.875V116.508C136.5 115.755 136.2 115.032 135.667 114.499C135.134 113.966 134.41 113.667 133.656 113.667H125.99L116.594 98.6456V71.0417C116.59 70.3532 116.332 69.6902 115.871 69.1789C115.409 68.6676 114.776 68.3434 114.091 68.2682L99.5312 14.2083V2.84167C99.5312 2.08801 99.2316 1.36522 98.6983 0.832305C98.165 0.29939 97.4417 0 96.6875 0C95.9333 0 95.21 0.29939 94.6767 0.832305C94.1434 1.36522 93.8438 2.08801 93.8438 2.84167V14.2083L79.2781 68.2682C78.5971 68.3517 77.9693 68.6785 77.5104 69.1882C77.0516 69.6979 76.7926 70.3562 76.7812 71.0417V98.6456L67.3855 113.667H59.7188C58.9645 113.667 58.2412 113.966 57.7079 114.499C57.1746 115.032 56.875 115.755 56.875 116.508V127.875C56.875 128.629 57.1746 129.351 57.7079 129.884C58.2412 130.417 58.9645 130.717 59.7188 130.717H62.5625V181.867H59.7188C58.9645 181.867 58.2412 182.166 57.7079 182.699C57.1746 183.232 56.875 183.955 56.875 184.708V196.075C56.875 196.829 57.1746 197.551 57.7079 198.084C58.2412 198.617 58.9645 198.917 59.7188 198.917V233.017H51.1875V207.442C51.177 207.134 51.1155 206.831 51.0055 206.544C51.0055 206.493 51.0055 206.436 51.0055 206.385V206.339L39.8125 178.457V161.975C39.8125 161.221 39.5129 160.499 38.9796 159.966C38.4463 159.433 37.723 159.133 36.9688 159.133C36.2145 159.133 35.4912 159.433 34.9579 159.966C34.4246 160.499 34.125 161.221 34.125 161.975V178.457L22.9718 206.305V206.35C22.9718 206.402 22.9718 206.458 22.9718 206.51C22.8444 206.805 22.7694 207.12 22.75 207.442V233.017H2.84375C2.08954 233.017 1.36622 233.316 0.832916 233.849C0.299609 234.382 0 235.105 0 235.858C0 236.612 0.299609 237.335 0.832916 237.868C1.36622 238.401 2.08954 238.7 2.84375 238.7ZM156.406 186.675L163.584 204.6H149.229L156.406 186.675ZM147.875 210.283H164.938V233.017H159.25V224.492C159.25 223.738 158.95 223.015 158.417 222.482C157.884 221.949 157.16 221.65 156.406 221.65C155.652 221.65 154.929 221.949 154.395 222.482C153.862 223.015 153.562 223.738 153.562 224.492V233.017H147.875V210.283ZM127.969 233.017H122.281V207.442C122.281 206.688 121.982 205.965 121.448 205.432C120.915 204.899 120.192 204.6 119.438 204.6C118.683 204.6 117.96 204.899 117.427 205.432C116.893 205.965 116.594 206.688 116.594 207.442V233.017H110.906V207.442C110.906 206.688 110.607 205.965 110.073 205.432C109.54 204.899 108.817 204.6 108.062 204.6C107.308 204.6 106.585 204.899 106.052 205.432C105.518 205.965 105.219 206.688 105.219 207.442V233.017H99.5312V207.442C99.5312 206.688 99.2316 205.965 98.6983 205.432C98.165 204.899 97.4417 204.6 96.6875 204.6C95.9333 204.6 95.21 204.899 94.6767 205.432C94.1434 205.965 93.8438 206.688 93.8438 207.442V233.017H88.1562V207.442C88.1562 206.688 87.8566 205.965 87.3233 205.432C86.79 204.899 86.0667 204.6 85.3125 204.6C84.5583 204.6 83.835 204.899 83.3017 205.432C82.7684 205.965 82.4688 206.688 82.4688 207.442V233.017H76.7812V207.442C76.7812 206.688 76.4816 205.965 75.9483 205.432C75.415 204.899 74.6917 204.6 73.9375 204.6C73.1833 204.6 72.46 204.899 71.9267 205.432C71.3934 205.965 71.0938 206.688 71.0938 207.442V233.017H65.4062V198.917H127.969V233.017ZM96.6875 25.5182L108.182 68.2H85.1874L96.6875 25.5182ZM82.4688 73.8833H110.906V96.6167H82.4688V73.8833ZM81.2004 102.3H112.175L119.284 113.667H74.0911L81.2004 102.3ZM62.5625 119.35H130.812V125.033H62.5625V119.35ZM125.125 130.717V181.867H68.25V130.717H125.125ZM62.5625 187.55H130.812V193.233H62.5625V187.55ZM36.9688 186.675L44.1464 204.6H29.7911L36.9688 186.675ZM28.4375 210.283H45.5V233.017H39.8125V224.492C39.8125 223.738 39.5129 223.015 38.9796 222.482C38.4463 221.949 37.723 221.65 36.9688 221.65C36.2145 221.65 35.4912 221.949 34.9579 222.482C34.4246 223.015 34.125 223.738 34.125 224.492V233.017H28.4375V210.283ZM139.042 61.5846C139.297 61.6582 139.562 61.6946 139.827 61.6926H176.563C178.038 61.6926 179.499 61.4023 180.861 60.8382C182.224 60.2741 183.462 59.4473 184.506 58.405C185.549 57.3627 186.376 56.1253 186.941 54.7635C187.505 53.4016 187.796 51.942 187.796 50.468C187.796 48.994 187.505 47.5344 186.941 46.1725C186.376 44.8107 185.549 43.5733 184.506 42.531C183.462 41.4887 182.224 40.6619 180.861 40.0978C179.499 39.5337 178.038 39.2434 176.563 39.2434C175.88 39.2428 175.198 39.3055 174.527 39.431C173.892 38.7049 173.12 38.1113 172.256 37.6841C171.391 37.2569 170.45 37.0046 169.487 36.9417C167.771 34.144 165.243 31.934 162.241 30.605C159.238 29.276 155.902 28.8909 152.675 29.5007C149.448 30.1104 146.483 31.6863 144.173 34.0192C141.863 36.352 140.318 39.3316 139.742 42.5625C137.357 42.6846 135.104 43.6955 133.428 45.3957C131.752 47.0959 130.774 49.3621 130.688 51.7471C130.601 54.1322 131.412 56.463 132.961 58.2799C134.51 60.0968 136.684 61.2677 139.054 61.5619L139.042 61.5846ZM140.271 48.2515C140.658 48.2642 141.042 48.3351 141.408 48.4618C141.845 48.5698 142.302 48.5747 142.741 48.4761C143.18 48.3774 143.59 48.178 143.939 47.8935C144.299 47.5978 144.588 47.2254 144.785 46.8034C144.982 46.3815 145.082 45.9208 145.077 45.4553C145.077 43.0411 145.908 40.7003 147.428 38.8245C148.949 36.9487 151.069 35.6517 153.432 35.1505C155.796 34.6493 158.259 34.9743 160.412 36.071C162.564 37.1678 164.274 38.9699 165.256 41.1757C165.638 41.7991 166.215 42.2791 166.898 42.5412C167.581 42.8032 168.331 42.8327 169.033 42.625C169.369 42.63 169.696 42.7385 169.969 42.9357C170.242 43.133 170.447 43.4095 170.557 43.7276C170.69 44.0908 170.896 44.4231 171.162 44.7041C171.428 44.985 171.749 45.2087 172.105 45.3614C172.46 45.5141 172.843 45.5926 173.231 45.5922C173.618 45.5917 174.001 45.5123 174.356 45.3587C175.202 45.0338 176.114 44.9159 177.016 45.0147C177.917 45.1135 178.781 45.4262 179.537 45.9267C180.293 46.4272 180.918 47.1011 181.36 47.892C181.803 48.683 182.049 49.5681 182.08 50.4737C182.078 51.9438 181.493 53.3533 180.452 54.3923C179.411 55.4313 178 56.0149 176.529 56.0149H140.328C140.224 55.9977 140.12 55.9863 140.015 55.9808C139.004 55.9278 138.053 55.4804 137.369 54.7348C136.684 53.9893 136.319 53.005 136.352 51.9936C136.386 50.9821 136.815 50.0242 137.548 49.3255C138.28 48.6269 139.258 48.2433 140.271 48.2572V48.2515ZM14.2188 96.6167H39.8125C41.8448 96.6177 43.8108 95.8937 45.3564 94.575C46.902 93.2563 47.9257 91.4295 48.2433 89.4236C48.5608 87.4177 48.1513 85.3644 47.0884 83.6334C46.0256 81.9024 44.3793 80.6074 42.4458 79.9816C41.9607 77.2214 40.6697 74.6662 38.735 72.6373C36.8003 70.6085 34.3084 69.1967 31.5728 68.5796C28.8372 67.9624 25.98 68.1673 23.3607 69.1687C20.7414 70.1701 18.4769 71.9231 16.8521 74.2073C15.9908 73.9924 15.1065 73.8836 14.2188 73.8833C11.2019 73.8833 8.30864 75.0809 6.17541 77.2126C4.04219 79.3442 2.84375 82.2354 2.84375 85.25C2.84375 88.2646 4.04219 91.1558 6.17541 93.2874C8.30864 95.4191 11.2019 96.6167 14.2188 96.6167ZM14.2188 79.5667C15.1225 79.5756 16.0106 79.8038 16.8066 80.2316C17.1489 80.408 17.5236 80.5131 17.9078 80.5405C18.292 80.5678 18.6778 80.5169 19.0417 80.3908C19.4052 80.2647 19.7393 80.0662 20.0238 79.8073C20.3083 79.5484 20.5373 79.2345 20.6968 78.8847C21.5117 77.127 22.9013 75.6991 24.6367 74.8361C26.3722 73.9731 28.35 73.7264 30.2446 74.1366C32.1391 74.5469 33.8373 75.5896 35.0595 77.0932C36.2818 78.5967 36.9551 80.4713 36.9688 82.4083C36.9688 83.162 37.2684 83.8848 37.8017 84.4177C38.335 84.9506 39.0583 85.25 39.8125 85.25C40.5667 85.25 41.29 85.5494 41.8233 86.0823C42.3566 86.6152 42.6562 87.338 42.6562 88.0917C42.6562 88.8453 42.3566 89.5681 41.8233 90.101C41.29 90.6339 40.5667 90.9333 39.8125 90.9333H14.2188C12.7103 90.9333 11.2637 90.3346 10.1971 89.2687C9.13047 88.2029 8.53125 86.7573 8.53125 85.25C8.53125 83.7427 9.13047 82.2971 10.1971 81.2313C11.2637 80.1654 12.7103 79.5667 14.2188 79.5667Z" fill="#E4E4E4"/>
</svg>
