<svg width="355" height="355" viewBox="0 0 355 355" fill="none" xmlns="http://www.w3.org/2000/svg">
<path d="M137.097 194.805C149.589 61.1925 307.489 172.298 166.714 222.207" stroke="#E4E4E4" stroke-width="4" stroke-linecap="round" stroke-linejoin="round"/>
<path d="M149.141 231.651C138.268 229.579 133.741 223.669 130.853 213.898" stroke="#E4E4E4" stroke-width="4" stroke-linecap="round" stroke-linejoin="round"/>
<path d="M137.087 245.41C127.843 242.111 118.581 236.099 117.425 225.816" stroke="#E4E4E4" stroke-width="4" stroke-linecap="round" stroke-linejoin="round"/>
<path d="M150.858 207.497C156.492 205.84 192.523 171.88 183.09 166.083C173.251 160.038 163.05 176.989 170.254 185.364C182.65 199.778 203.25 176.723 186.559 178.342C179.298 179.046 173.222 183.309 166.146 184.645" stroke="#E4E4E4" stroke-width="4" stroke-linecap="round" stroke-linejoin="round"/>
<path d="M230.152 131.894C233.463 129.799 235.706 126.674 238.682 124.297" stroke="#E4E4E4" stroke-width="4" stroke-linecap="round" stroke-linejoin="round"/>
<path d="M190.777 110.308C190.968 107.497 191.741 104.681 192.202 101.867" stroke="#E4E4E4" stroke-width="4" stroke-linecap="round" stroke-linejoin="round"/>
<path d="M146.728 128.765C145.254 126.507 144.007 124.037 143.232 121.395" stroke="#E4E4E4" stroke-width="4" stroke-linecap="round" stroke-linejoin="round"/>
<path d="M243.494 169.425C246.038 170.023 248.635 170.43 251.23 170.821" stroke="#E4E4E4" stroke-width="4" stroke-linecap="round" stroke-linejoin="round"/>
<path d="M219.737 207.326C221.944 209.868 224.858 211.359 227.725 212.977" stroke="#E4E4E4" stroke-width="4" stroke-linecap="round" stroke-linejoin="round"/>
</svg>
