<svg width="302" height="302" viewBox="0 0 302 302" fill="none" xmlns="http://www.w3.org/2000/svg">
<path d="M168.896 104.528C265.471 222.535 49.0952 258.767 123.072 106.02" stroke="#E4E4E4" stroke-width="10" stroke-linecap="round" stroke-linejoin="round"/>
<path d="M129.741 84.3528C140.187 77.3463 148.565 78.5111 158.701 84.1055" stroke="#E4E4E4" stroke-width="10" stroke-linecap="round" stroke-linejoin="round"/>
<path d="M128.502 63.6052C138.61 58.8916 150.899 56.3586 160.043 63.75" stroke="#E4E4E4" stroke-width="10" stroke-linecap="round" stroke-linejoin="round"/>
<path d="M147.637 105.254C144.405 111.092 142.385 167.317 154.641 164.473C167.422 161.505 162.136 139.655 149.625 138.635C128.094 136.878 129.846 171.965 142.048 157.331C147.356 150.964 148.867 142.666 153.521 135.937" stroke="#E4E4E4" stroke-width="10" stroke-linecap="round" stroke-linejoin="round"/>
<path d="M143.885 229.689C142.881 234.026 143.562 238.344 143.054 242.642" stroke="#E4E4E4" stroke-width="10" stroke-linecap="round" stroke-linejoin="round"/>
<path d="M192.956 215.708C195.045 218.133 196.669 221.027 198.543 223.67" stroke="#E4E4E4" stroke-width="10" stroke-linecap="round" stroke-linejoin="round"/>
<path d="M213.836 165.615C216.831 166.263 219.81 167.265 222.547 168.783" stroke="#E4E4E4" stroke-width="10" stroke-linecap="round" stroke-linejoin="round"/>
<path d="M103.133 209.996C100.598 211.543 98.1734 213.288 95.7633 215.043" stroke="#E4E4E4" stroke-width="10" stroke-linecap="round" stroke-linejoin="round"/>
<path d="M92.0815 160.383C88.2667 160.091 84.7215 161.212 81.1106 162.193" stroke="#E4E4E4" stroke-width="10" stroke-linecap="round" stroke-linejoin="round"/>
</svg>
