<?xml version="1.0" encoding="UTF-8" standalone="no" ?>
<!DOCTYPE svg PUBLIC "-//W3C//DTD SVG 1.1//EN" "http://www.w3.org/Graphics/SVG/1.1/DTD/svg11.dtd">
<svg xmlns="http://www.w3.org/2000/svg" xmlns:xlink="http://www.w3.org/1999/xlink" version="1.1" width="64" height="64" viewBox="0 0 64 64" xml:space="preserve">
<desc>Created with Fabric.js 5.2.4</desc>
<defs>
</defs>
<rect x="0" y="0" width="100%" height="100%" fill="transparent"></rect>
<g transform="matrix(1 0 0 1 32 32)" id="b5320707-710d-441f-8f80-b222c06d348b"  >
<rect style="stroke: none; stroke-width: 1; stroke-dasharray: none; stroke-linecap: butt; stroke-dashoffset: 0; stroke-linejoin: miter; stroke-miterlimit: 4; fill: rgb(255,255,255); fill-rule: nonzero; opacity: 1; visibility: hidden;" vector-effect="non-scaling-stroke"  x="-32" y="-32" rx="0" ry="0" width="64" height="64" />
</g>
<g transform="matrix(Infinity NaN NaN Infinity 0 0)" id="e59710f8-521e-4dc1-98d5-1fe6d56156d9"  >
</g>
<g transform="matrix(1.31 0 0 1.31 32 32)"  >
<g style=""   >
		<g transform="matrix(1 0 0 1 0 0)"  >
<path style="stroke: none; stroke-width: 1; stroke-dasharray: none; stroke-linecap: butt; stroke-dashoffset: 0; stroke-linejoin: miter; stroke-miterlimit: 4; fill: rgb(255,95,0); fill-rule: nonzero; opacity: 1;" vector-effect="non-scaling-stroke"  transform=" translate(-24.5, -15)" d="M 30.8547 3.58228 L 18.1462 3.58228 L 18.1462 26.4169 L 30.8547 26.4169 L 30.8547 3.58228 Z" stroke-linecap="round" />
</g>
		<g transform="matrix(1 0 0 1 -11.76 0)"  >
<path style="stroke: none; stroke-width: 1; stroke-dasharray: none; stroke-linecap: butt; stroke-dashoffset: 0; stroke-linejoin: miter; stroke-miterlimit: 4; fill: rgb(235,0,27); fill-rule: nonzero; opacity: 1;" vector-effect="non-scaling-stroke"  transform=" translate(-12.74, -15)" d="M 18.9525 15.0001 C 18.9525 10.3606 21.1313 6.24564 24.48 3.58234 C 22.0194 1.64619 18.9125 0.476318 15.5238 0.476318 C 7.49561 0.476318 1 6.97191 1 15.0001 C 1 23.0282 7.49561 29.5238 15.5238 29.5238 C 18.9125 29.5238 22.0194 28.354 24.48 26.4169 C 21.1313 23.7945 18.9525 19.6395 18.9525 15.0001 Z" stroke-linecap="round" />
</g>
		<g transform="matrix(1 0 0 1 11.76 0)"  >
<path style="stroke: none; stroke-width: 1; stroke-dasharray: none; stroke-linecap: butt; stroke-dashoffset: 0; stroke-linejoin: miter; stroke-miterlimit: 4; fill: rgb(247,158,27); fill-rule: nonzero; opacity: 1;" vector-effect="non-scaling-stroke"  transform=" translate(-36.26, -15)" d="M 48 15.0001 C 48 23.0282 41.5053 29.5238 33.4763 29.5238 C 30.0876 29.5238 26.9815 28.354 24.52 26.4169 C 27.9096 23.7545 30.0475 19.6395 30.0475 15.0001 C 30.0475 10.3606 27.8687 6.24564 24.52 3.58234 C 26.9815 1.64619 30.0876 0.476318 33.4763 0.476318 C 41.5053 0.476318 48 7.01192 48 15.0001 Z" stroke-linecap="round" />
</g>
</g>
</g>
</svg>