<?xml version="1.0" encoding="UTF-8" standalone="no" ?>
<!DOCTYPE svg PUBLIC "-//W3C//DTD SVG 1.1//EN" "http://www.w3.org/Graphics/SVG/1.1/DTD/svg11.dtd">
<svg xmlns="http://www.w3.org/2000/svg" xmlns:xlink="http://www.w3.org/1999/xlink" version="1.1" width="66" height="66" viewBox="0.27 -0.09 66 66" xml:space="preserve">
<desc>Created with Fabric.js 5.2.4</desc>
<defs>
</defs>
<rect x="0" y="0" width="100%" height="100%" fill="transparent"></rect>
<g transform="matrix(1 0 0 1 33 33)" id="45de23fc-d562-4dfa-ade7-5e538475a172"  >
<rect style="stroke: none; stroke-width: 1; stroke-dasharray: none; stroke-linecap: butt; stroke-dashoffset: 0; stroke-linejoin: miter; stroke-miterlimit: 4; fill: rgb(255,255,255); fill-rule: nonzero; opacity: 1; visibility: hidden;" vector-effect="non-scaling-stroke"  x="-33" y="-33" rx="0" ry="0" width="66" height="66" />
</g>
<g transform="matrix(0 0 0 0 0 0)" id="4e49d16d-6d2e-4fe1-8607-adb25aae086a"  >
</g>
<g transform="matrix(0 0 0 0 -2.06 0)"  >
<g style=""   >
</g>
</g>
<g transform="matrix(0 0 0 0 -2.06 0)"  >
<g style=""   >
</g>
</g>
<g transform="matrix(1.02 0 0 1.02 33 33)"  >
<g style=""   >
		<g transform="matrix(1 0 0 1 -2.74 -0.41)"  >
<path style="stroke: rgb(108,133,255); stroke-width: 3; stroke-dasharray: none; stroke-linecap: round; stroke-dashoffset: 0; stroke-linejoin: round; stroke-miterlimit: 4; fill: none; fill-rule: nonzero; opacity: 1;" vector-effect="non-scaling-stroke"  transform=" translate(-29.76, -31.59)" d="M 3.38 36.7224 C 3.90217 21.5696 23.2517 14.9251 29.4566 29.9946 C 31.7061 35.4577 34.1835 40.3071 39.8682 42.7942 C 53.8628 48.9167 63.4081 18.6801 48.9425 19.5831 C 40.7897 20.0918 33.9317 28.7327 31.697 31.3023" stroke-linecap="round" />
</g>
		<g transform="matrix(1 0 0 1 -18.61 8.7)"  >
<path style="stroke: rgb(108,133,255); stroke-width: 3; stroke-dasharray: none; stroke-linecap: round; stroke-dashoffset: 0; stroke-linejoin: round; stroke-miterlimit: 4; fill: none; fill-rule: nonzero; opacity: 1;" vector-effect="non-scaling-stroke"  transform=" translate(-13.89, -40.7)" d="M 24.4095 38.4627 C 17.94 44.7177 3.38 49.2531 3.38 36.7224" stroke-linecap="round" />
</g>
		<g transform="matrix(1 0 0 1 1.5 0.08)"  >
<path style="stroke: rgb(108,133,255); stroke-width: 3; stroke-dasharray: none; stroke-linecap: round; stroke-dashoffset: 0; stroke-linejoin: round; stroke-miterlimit: 4; fill: none; fill-rule: nonzero; opacity: 1;" vector-effect="non-scaling-stroke"  transform=" translate(-34, -32.08)" d="M 6.43689 36.2136 C 6.43689 31.5382 12.984 24.9287 18.0901 26.4605 C 21.6801 27.5375 21.809 30.82 23.057 33.8155 C 23.9775 36.0244 25.7123 38.5184 27.1644 40.4063 C 29.1285 42.9595 31.6608 45.7244 34.5193 47.2835 C 42.6591 51.7234 52.7212 49.7793 57.5393 41.457 C 62.124 33.538 65.4974 15.5314 51.8188 14.6028 C 42.274 13.9551 34.7659 20.7787 29.1037 27.6025" stroke-linecap="round" />
</g>
		<g transform="matrix(1 0 0 1 -18.32 5.76)"  >
<path style="stroke: rgb(108,133,255); stroke-width: 3; stroke-dasharray: none; stroke-linecap: round; stroke-dashoffset: 0; stroke-linejoin: round; stroke-miterlimit: 4; fill: none; fill-rule: nonzero; opacity: 1;" vector-effect="non-scaling-stroke"  transform=" translate(-14.18, -37.76)" d="M 21.94 34.7178 C 16.7287 39.7499 13.9457 40.5967 12.5579 40.7479 C 7.81441 41.2129 6.42001 38.8778 6.42001 35.8361" stroke-linecap="round" />
</g>
</g>
</g>
</svg>