<?xml version="1.0" encoding="UTF-8" standalone="no" ?>
<!DOCTYPE svg PUBLIC "-//W3C//DTD SVG 1.1//EN" "http://www.w3.org/Graphics/SVG/1.1/DTD/svg11.dtd">
<svg xmlns="http://www.w3.org/2000/svg" xmlns:xlink="http://www.w3.org/1999/xlink" version="1.1" width="60" height="60" viewBox="0 0 60 60" xml:space="preserve">
<desc>Created with Fabric.js 5.2.4</desc>
<defs>
</defs>
<rect x="0" y="0" width="100%" height="100%" fill="transparent"></rect>
<g transform="matrix(0 0 0 0 0 0)" id="98c5b11b-fd96-41d5-920c-ef456dbbd7cf"  >
</g>
<g transform="matrix(1 0 0 1 30 30)" id="5787ea3d-d037-46ab-94fc-51c54bafeda3"  >
<rect style="stroke: none; stroke-width: 1; stroke-dasharray: none; stroke-linecap: butt; stroke-dashoffset: 0; stroke-linejoin: miter; stroke-miterlimit: 4; fill: rgb(255,255,255); fill-rule: nonzero; opacity: 1; visibility: hidden;" vector-effect="non-scaling-stroke"  x="-30" y="-30" rx="0" ry="0" width="60" height="60" />
</g>
<g transform="matrix(0.67 0 0 0.67 30 30)"  >
<g style=""   >
		<g transform="matrix(1 0 0 1 -35.49 -1.62)"  >
<path style="stroke: none; stroke-width: 1; stroke-dasharray: none; stroke-linecap: butt; stroke-dashoffset: 0; stroke-linejoin: miter; stroke-miterlimit: 4; fill: rgb(138,144,153); fill-rule: nonzero; opacity: 1;" vector-effect="non-scaling-stroke"  transform=" translate(-9.51, -9.38)" d="M 17.0026 1.87678 C 15.974 0.804133 14.117 0.344727 11.7423 0.344727 L 4.85058 0.344727 C 4.61551 0.345022 4.38824 0.42195 4.20947 0.561733 C 4.03069 0.701517 3.9121 0.89502 3.87492 1.10759 L 0.998571 17.7768 C 0.984156 17.8546 0.988474 17.9344 1.01122 18.0105 C 1.03397 18.0866 1.07461 18.1572 1.13028 18.2174 C 1.18595 18.2776 1.25531 18.326 1.33352 18.3591 C 1.41173 18.3922 1.49689 18.4092 1.58305 18.409 L 5.84005 18.409 L 6.91465 12.186 L 6.88244 12.3799 C 6.91865 12.1679 7.03642 11.9747 7.21448 11.8352 C 7.39254 11.6957 7.61917 11.6191 7.85349 11.6191 L 9.87384 11.6191 C 13.8478 11.6191 16.9566 10.144 17.8655 5.86602 C 17.8931 5.73958 17.9161 5.61735 17.9368 5.49723 C 18.2061 3.91671 17.9368 2.84195 17.0026 1.86835" stroke-linecap="round" />
</g>
		<g transform="matrix(1 0 0 1 21.96 0.78)"  >
<path style="stroke: none; stroke-width: 1; stroke-dasharray: none; stroke-linecap: butt; stroke-dashoffset: 0; stroke-linejoin: miter; stroke-miterlimit: 4; fill: rgb(23,155,215); fill-rule: nonzero; opacity: 1;" vector-effect="non-scaling-stroke"  transform=" translate(-66.96, -11.78)" d="M 69.0958 9.80902 C 68.8358 11.3727 67.5311 11.3727 66.2701 11.3727 L 65.5521 11.3727 L 66.0561 8.45187 C 66.0704 8.36644 66.1178 8.28858 66.1896 8.23249 C 66.2615 8.17639 66.3529 8.14581 66.4473 8.14631 L 66.7763 8.14631 C 67.6346 8.14631 68.4469 8.1463 68.8657 8.59307 C 69.1142 8.8607 69.1902 9.25899 69.0958 9.80902 Z M 68.5459 5.72705 L 63.7895 5.72705 C 63.6318 5.72685 63.4791 5.77838 63.3593 5.87231 C 63.2394 5.96624 63.1602 6.09637 63.136 6.23914 L 61.2123 17.4082 C 61.203 17.4601 61.2061 17.5133 61.2214 17.564 C 61.2368 17.6148 61.264 17.6618 61.3012 17.7019 C 61.3385 17.742 61.3848 17.7742 61.437 17.7963 C 61.4892 17.8184 61.546 17.8297 61.6035 17.8296 L 64.0495 17.8296 C 64.1602 17.8309 64.2676 17.7955 64.3521 17.7301 C 64.4367 17.6647 64.4926 17.5736 64.5098 17.4735 L 65.0574 14.3125 C 65.0816 14.1702 65.1605 14.0406 65.28 13.9471 C 65.3994 13.8536 65.5515 13.8023 65.7086 13.8025 L 67.2158 13.8025 C 70.3499 13.8025 72.1586 12.4116 72.6303 9.65939 C 72.8443 8.45609 72.6303 7.50988 72.0251 6.84606 C 71.3463 6.11902 70.1474 5.73337 68.5551 5.73337" stroke-linecap="round" />
</g>
		<g transform="matrix(1 0 0 1 -11.98 0.78)"  >
<path style="stroke: none; stroke-width: 1; stroke-dasharray: none; stroke-linecap: butt; stroke-dashoffset: 0; stroke-linejoin: miter; stroke-miterlimit: 4; fill: rgb(37,59,128); fill-rule: nonzero; opacity: 1;" vector-effect="non-scaling-stroke"  transform=" translate(-33.02, -11.78)" d="M 35.1573 9.80868 C 34.8973 11.3723 33.5926 11.3723 32.3316 11.3723 L 31.6045 11.3723 L 32.1084 8.45154 C 32.1228 8.36611 32.1702 8.28824 32.242 8.23215 C 32.3138 8.17606 32.4052 8.14547 32.4996 8.14597 L 32.8286 8.14597 C 33.687 8.14597 34.4992 8.14597 34.918 8.59273 C 35.1688 8.86037 35.2425 9.25866 35.1481 9.80868 L 35.1573 9.80868 Z M 34.6005 5.72672 L 29.851 5.72672 C 29.6933 5.72652 29.5407 5.77805 29.4208 5.87198 C 29.3009 5.96591 29.2217 6.09604 29.1975 6.23881 L 27.2738 17.4078 C 27.2645 17.4598 27.2676 17.513 27.2829 17.5637 C 27.2983 17.6144 27.3255 17.6615 27.3628 17.7016 C 27.4 17.7417 27.4463 17.7739 27.4985 17.796 C 27.5507 17.818 27.6075 17.8294 27.665 17.8293 L 29.9362 17.8293 C 30.0936 17.8296 30.246 17.7783 30.3658 17.6848 C 30.4856 17.5913 30.565 17.4617 30.5897 17.3193 L 31.1097 14.3037 C 31.134 14.1611 31.2133 14.0312 31.3332 13.9377 C 31.4531 13.8441 31.6057 13.793 31.7632 13.7937 L 33.2682 13.7937 C 36.4022 13.7937 38.2109 12.4028 38.6826 9.65063 C 38.8966 8.44732 38.6826 7.50112 38.0774 6.8373 C 37.4009 6.11026 36.202 5.72461 34.6097 5.72461" stroke-linecap="round" />
</g>
		<g transform="matrix(1 0 0 1 -1.35 2.79)"  >
<path style="stroke: none; stroke-width: 1; stroke-dasharray: none; stroke-linecap: butt; stroke-dashoffset: 0; stroke-linejoin: miter; stroke-miterlimit: 4; fill: rgb(37,59,128); fill-rule: nonzero; opacity: 1;" vector-effect="non-scaling-stroke"  transform=" translate(-43.65, -13.79)" d="M 45.6543 13.8194 C 45.5675 14.3826 45.2577 14.8969 44.7837 15.2645 C 44.3098 15.6321 43.7048 15.8273 43.0839 15.8129 C 42.7991 15.8396 42.5114 15.8026 42.2457 15.7049 C 41.9799 15.6072 41.7441 15.4518 41.5584 15.2522 C 41.3728 15.0525 41.2429 14.8145 41.1799 14.5587 C 41.117 14.3028 41.1229 14.0368 41.1971 13.7835 C 41.2832 13.2219 41.5897 12.7082 42.0594 12.3386 C 42.5291 11.969 43.1297 11.7687 43.749 11.7752 C 44.0323 11.7615 44.3154 11.8054 44.578 11.9038 C 44.8406 12.0022 45.0761 12.1526 45.2677 12.3442 C 45.4462 12.5491 45.5733 12.7875 45.6401 13.0424 C 45.7069 13.2973 45.7118 13.5626 45.6543 13.8194 Z M 48.8298 9.75848 L 46.5609 9.75848 C 46.4665 9.75798 46.3751 9.78857 46.3033 9.84466 C 46.2315 9.90076 46.184 9.97862 46.1697 10.0641 L 46.0685 10.6478 L 45.9097 10.4371 C 45.4172 9.78166 44.3173 9.5625 43.2174 9.5625 C 40.7 9.5625 38.5508 11.3095 38.132 13.7583 C 37.9157 14.9826 38.2241 16.1501 38.9811 16.9657 C 39.6714 17.7138 40.6678 18.0193 41.8506 18.0193 C 42.4369 18.0244 43.0183 17.9215 43.5603 17.7165 C 44.1023 17.5116 44.5937 17.209 45.0054 16.8266 L 44.9018 17.4061 C 44.8928 17.4582 44.8963 17.5114 44.9119 17.5621 C 44.9276 17.6128 44.955 17.6599 44.9924 17.6999 C 45.0298 17.74 45.0763 17.7721 45.1286 17.7942 C 45.1809 17.8162 45.2377 17.8276 45.2953 17.8276 L 47.3456 17.8276 C 47.503 17.8279 47.6553 17.7766 47.7751 17.6831 C 47.895 17.5896 47.9744 17.46 47.9991 17.3176 L 49.2324 10.1736 C 49.2414 10.1216 49.238 10.0683 49.2223 10.0176 C 49.2067 9.96689 49.1792 9.91988 49.1418 9.87982 C 49.1044 9.83975 49.058 9.8076 49.0057 9.78556 C 48.9534 9.76352 48.8965 9.75212 48.839 9.75216" stroke-linecap="round" />
</g>
		<g transform="matrix(1 0 0 1 32.58 2.79)"  >
<path style="stroke: none; stroke-width: 1; stroke-dasharray: none; stroke-linecap: butt; stroke-dashoffset: 0; stroke-linejoin: miter; stroke-miterlimit: 4; fill: rgb(23,155,215); fill-rule: nonzero; opacity: 1;" vector-effect="non-scaling-stroke"  transform=" translate(-77.58, -13.79)" d="M 79.594 13.8194 C 79.5072 14.383 79.1971 14.8976 78.7226 15.2652 C 78.2482 15.6329 77.6427 15.8278 77.0214 15.8129 C 76.7367 15.8391 76.4493 15.8017 76.1838 15.7039 C 75.9183 15.606 75.6827 15.4507 75.4972 15.2511 C 75.3117 15.0516 75.1818 14.8138 75.1186 14.5582 C 75.0555 14.3026 75.0609 14.0368 75.1345 13.7835 C 75.2212 13.2217 75.5282 12.708 75.9983 12.3384 C 76.4683 11.9688 77.0692 11.7686 77.6887 11.7752 C 77.972 11.7618 78.255 11.8058 78.5176 11.9042 C 78.7801 12.0026 79.0157 12.1528 79.2074 12.3442 C 79.386 12.5492 79.5131 12.7875 79.5799 13.0424 C 79.6467 13.2973 79.6515 13.5626 79.594 13.8194 Z M 82.7695 9.75848 L 80.4915 9.75848 C 80.3971 9.75798 80.3056 9.78857 80.2338 9.84466 C 80.162 9.90076 80.1146 9.97862 80.1003 10.0641 L 79.999 10.6478 L 79.8402 10.4371 C 79.3455 9.78166 78.2456 9.5625 77.148 9.5625 C 74.6306 9.5625 72.4814 11.3095 72.0626 13.7583 C 71.844 14.9826 72.1547 16.1501 72.9117 16.9657 C 73.602 17.7138 74.5984 18.0193 75.7811 18.0193 C 76.3672 18.025 76.9485 17.9223 77.4902 17.7173 C 78.0318 17.5124 78.5228 17.2094 78.9336 16.8266 L 78.8324 17.4061 C 78.8234 17.4582 78.8268 17.5114 78.8425 17.5621 C 78.8581 17.6128 78.8856 17.6599 78.923 17.6999 C 78.9604 17.74 79.0069 17.7721 79.0591 17.7942 C 79.1114 17.8162 79.1683 17.8276 79.2259 17.8276 L 81.2761 17.8276 C 81.4335 17.8279 81.5859 17.7766 81.7057 17.6831 C 81.8255 17.5896 81.9049 17.46 81.9296 17.3176 L 83.1607 10.1736 C 83.1701 10.1217 83.1669 10.0685 83.1516 10.0178 C 83.1362 9.96705 83.109 9.91999 83.0718 9.87988 C 83.0345 9.83977 82.9882 9.80756 82.936 9.78551 C 82.8838 9.76345 82.827 9.75207 82.7695 9.75216" stroke-linecap="round" />
</g>
		<g transform="matrix(1 0 0 1 10.85 4.21)"  >
<path style="stroke: none; stroke-width: 1; stroke-dasharray: none; stroke-linecap: butt; stroke-dashoffset: 0; stroke-linejoin: miter; stroke-miterlimit: 4; fill: rgb(37,59,128); fill-rule: nonzero; opacity: 1;" vector-effect="non-scaling-stroke"  transform=" translate(-55.85, -15.21)" d="M 60.9663 9.7583 L 58.6653 9.7583 C 58.5573 9.75834 58.4509 9.78256 58.3554 9.82883 C 58.26 9.87511 58.1783 9.94205 58.1176 10.0238 L 54.9697 14.2933 L 53.6305 10.1987 C 53.5902 10.0738 53.5067 9.96411 53.3926 9.88622 C 53.2786 9.80833 53.14 9.76641 52.9977 9.76673 L 50.7472 9.76673 C 50.6841 9.76661 50.6219 9.78031 50.5657 9.80669 C 50.5096 9.83307 50.4611 9.87137 50.4244 9.91839 C 50.3877 9.96542 50.3638 10.0198 50.3547 10.077 C 50.3456 10.1342 50.3516 10.1926 50.3721 10.2472 L 52.8918 17.0266 L 50.5217 20.0907 C 50.4794 20.1449 50.4543 20.2087 50.449 20.2752 C 50.4437 20.3416 50.4585 20.4081 50.4918 20.4673 C 50.5251 20.5265 50.5756 20.5762 50.6377 20.6109 C 50.6998 20.6456 50.7711 20.6639 50.8439 20.6639 L 53.1334 20.6639 C 53.2401 20.6639 53.3451 20.6403 53.4396 20.5952 C 53.5342 20.5501 53.6154 20.4847 53.6765 20.4047 L 61.2885 10.3294 C 61.3295 10.2747 61.3535 10.2109 61.3578 10.1447 C 61.3621 10.0785 61.3467 10.0124 61.313 9.95366 C 61.2794 9.89491 61.229 9.84567 61.167 9.81125 C 61.1051 9.77682 61.0342 9.75852 60.9617 9.7583" stroke-linecap="round" />
</g>
		<g transform="matrix(1 0 0 1 40.96 0.79)"  >
<path style="stroke: none; stroke-width: 1; stroke-dasharray: none; stroke-linecap: butt; stroke-dashoffset: 0; stroke-linejoin: miter; stroke-miterlimit: 4; fill: rgb(23,155,215); fill-rule: nonzero; opacity: 1;" vector-effect="non-scaling-stroke"  transform=" translate(-85.96, -11.79)" d="M 85.4498 6.0346 L 83.4984 17.4144 C 83.4891 17.4663 83.4922 17.5195 83.5076 17.5702 C 83.5229 17.621 83.5502 17.668 83.5874 17.7081 C 83.6246 17.7482 83.6709 17.7804 83.7231 17.8025 C 83.7753 17.8245 83.8321 17.8359 83.8896 17.8358 L 85.8524 17.8358 C 86.0099 17.8361 86.1622 17.7849 86.282 17.6914 C 86.4019 17.5979 86.4813 17.4682 86.506 17.3259 L 88.432 6.15682 C 88.4409 6.10476 88.4375 6.05153 88.4218 6.00081 C 88.4062 5.95008 88.3787 5.90307 88.3413 5.86301 C 88.3039 5.82294 88.2575 5.79078 88.2052 5.76875 C 88.1529 5.74671 88.096 5.73532 88.0385 5.73535 L 85.8409 5.73535 C 85.7464 5.73536 85.6549 5.7664 85.5831 5.82284 C 85.5114 5.87928 85.4641 5.9574 85.4498 6.04303" stroke-linecap="round" />
</g>
		<g transform="matrix(1 0 0 1 -35.49 -1.62)"  >
<path style="stroke: none; stroke-width: 1; stroke-dasharray: none; stroke-linecap: butt; stroke-dashoffset: 0; stroke-linejoin: miter; stroke-miterlimit: 4; fill: rgb(138,144,153); fill-rule: nonzero; opacity: 1;" vector-effect="non-scaling-stroke"  transform=" translate(-9.51, -9.38)" d="M 17.0026 1.87678 C 15.974 0.804133 14.117 0.344727 11.7423 0.344727 L 4.85058 0.344727 C 4.61551 0.345022 4.38824 0.42195 4.20947 0.561733 C 4.03069 0.701517 3.9121 0.89502 3.87492 1.10759 L 0.998571 17.7768 C 0.984156 17.8546 0.988474 17.9344 1.01122 18.0105 C 1.03397 18.0866 1.07461 18.1572 1.13028 18.2174 C 1.18595 18.2776 1.25531 18.326 1.33352 18.3591 C 1.41173 18.3922 1.49689 18.4092 1.58305 18.409 L 5.84005 18.409 L 6.91465 12.186 L 6.88244 12.3799 C 6.91865 12.1679 7.03642 11.9747 7.21448 11.8352 C 7.39254 11.6957 7.61917 11.6191 7.85349 11.6191 L 9.87384 11.6191 C 13.8478 11.6191 16.9566 10.144 17.8655 5.86602 C 17.8931 5.73958 17.9161 5.61735 17.9368 5.49723 C 18.2061 3.91671 17.9368 2.84195 17.0026 1.86835" stroke-linecap="round" />
</g>
		<g transform="matrix(1 0 0 1 -35.48 -1.62)"  >
<path style="stroke: none; stroke-width: 1; stroke-dasharray: none; stroke-linecap: butt; stroke-dashoffset: 0; stroke-linejoin: miter; stroke-miterlimit: 4; fill: rgb(37,59,128); fill-rule: nonzero; opacity: 1;" vector-effect="non-scaling-stroke"  transform=" translate(-9.52, -9.38)" d="M 8.06289 5.52673 C 8.08455 5.39996 8.13968 5.27994 8.22349 5.17711 C 8.3073 5.07428 8.41726 4.99174 8.54382 4.93667 C 8.65921 4.88517 8.78593 4.85849 8.91429 4.8587 L 14.3195 4.8587 C 14.9157 4.85498 15.5112 4.89444 16.1006 4.97671 C 16.257 4.99989 16.4089 5.02729 16.5608 5.05679 C 16.7127 5.08629 16.8507 5.12001 16.9888 5.15794 L 17.1936 5.21484 C 17.4512 5.29266 17.7014 5.38994 17.9414 5.50566 C 18.2107 3.92514 17.9414 2.85038 17.0072 1.87678 C 15.9786 0.804133 14.1239 0.344727 11.7469 0.344727 L 4.85058 0.344727 C 4.61551 0.345022 4.38824 0.42195 4.20947 0.561733 C 4.03069 0.701516 3.9121 0.89502 3.87492 1.10759 L 0.998571 17.7747 C 0.984156 17.8525 0.988474 17.9323 1.01122 18.0084 C 1.03397 18.0845 1.07461 18.1551 1.13028 18.2153 C 1.18595 18.2755 1.25531 18.3239 1.33352 18.357 C 1.41173 18.3901 1.49689 18.4071 1.58305 18.4069 L 5.84005 18.4069 L 6.91465 12.186 L 8.06289 5.52673 Z" stroke-linecap="round" />
</g>
		<g transform="matrix(1 0 0 1 -32.33 2.08)"  >
<path style="stroke: none; stroke-width: 1; stroke-dasharray: none; stroke-linecap: butt; stroke-dashoffset: 0; stroke-linejoin: miter; stroke-miterlimit: 4; fill: rgb(23,155,215); fill-rule: nonzero; opacity: 1;" vector-effect="non-scaling-stroke"  transform=" translate(-12.67, -13.08)" d="M 17.938 5.50586 C 17.9173 5.62598 17.8943 5.74821 17.8667 5.87465 C 16.9462 10.1484 13.849 11.6278 9.87501 11.6278 L 7.85236 11.6278 C 7.61694 11.6281 7.3895 11.7059 7.21162 11.8472 C 7.03375 11.9884 6.91731 12.1836 6.8836 12.3969 L 5.84811 18.4114 L 5.55358 20.1162 C 5.54154 20.1839 5.54575 20.2532 5.56591 20.3192 C 5.58608 20.3852 5.62171 20.4465 5.67033 20.4986 C 5.71895 20.5508 5.77939 20.5926 5.84744 20.6212 C 5.9155 20.6497 5.98954 20.6644 6.06442 20.6641 L 9.6518 20.6641 C 9.857 20.664 10.0554 20.5968 10.2115 20.4748 C 10.3675 20.3528 10.4709 20.1838 10.5032 19.9982 L 10.5377 19.8296 L 11.2142 15.9057 L 11.258 15.695 C 11.2902 15.5094 11.3937 15.3404 11.5497 15.2184 C 11.7057 15.0963 11.9042 15.0292 12.1094 15.029 L 12.6478 15.029 C 16.1224 15.029 18.8423 13.7351 19.6385 9.99665 C 19.9699 8.43509 19.7973 7.13064 18.9206 6.21393 C 18.6421 5.92969 18.3091 5.69468 17.938 5.52061" stroke-linecap="round" />
</g>
		<g transform="matrix(1 0 0 1 -32.59 -2.38)"  >
<path style="stroke: none; stroke-width: 1; stroke-dasharray: none; stroke-linecap: butt; stroke-dashoffset: 0; stroke-linejoin: miter; stroke-miterlimit: 4; fill: rgb(34,45,101); fill-rule: nonzero; opacity: 1;" vector-effect="non-scaling-stroke"  transform=" translate(-12.41, -8.62)" d="M 16.9869 5.15788 C 16.8488 5.11995 16.7061 5.08623 16.5589 5.05673 C 16.4116 5.02723 16.2597 4.99983 16.0986 4.97665 C 15.5093 4.89438 14.9138 4.85492 14.3176 4.85864 L 8.91697 4.85864 C 8.7886 4.85843 8.66188 4.88511 8.5465 4.93661 C 8.41994 4.99168 8.30998 5.07422 8.22617 5.17705 C 8.14236 5.27988 8.08723 5.3999 8.06557 5.52667 L 6.91503 12.1944 L 6.88281 12.3882 C 6.91853 12.1764 7.03583 11.9833 7.21351 11.8437 C 7.39118 11.7042 7.61751 11.6275 7.85157 11.6275 L 9.87422 11.6275 C 13.8482 11.6275 16.9569 10.1523 17.8659 5.87439 C 17.8935 5.74795 17.9165 5.62572 17.9372 5.5056 C 17.6975 5.38971 17.4473 5.2931 17.1894 5.21689 L 16.9846 5.15788" stroke-linecap="round" />
</g>
</g>
</g>
</svg>