<?xml version="1.0" encoding="UTF-8" standalone="no" ?>
<!DOCTYPE svg PUBLIC "-//W3C//DTD SVG 1.1//EN" "http://www.w3.org/Graphics/SVG/1.1/DTD/svg11.dtd">
<svg xmlns="http://www.w3.org/2000/svg" xmlns:xlink="http://www.w3.org/1999/xlink" version="1.1" width="64" height="64" viewBox="0 0 64 64" xml:space="preserve">
<desc>Created with Fabric.js 5.2.4</desc>
<defs>
</defs>
<rect x="0" y="0" width="100%" height="100%" fill="transparent"></rect>
<g transform="matrix(1 0 0 1 32 32)" id="d17d8e50-bbdd-42f3-9d40-902f8ce8aa60"  >
<rect style="stroke: none; stroke-width: 1; stroke-dasharray: none; stroke-linecap: butt; stroke-dashoffset: 0; stroke-linejoin: miter; stroke-miterlimit: 4; fill: rgb(255,255,255); fill-rule: nonzero; opacity: 1; visibility: hidden;" vector-effect="non-scaling-stroke"  x="-32" y="-32" rx="0" ry="0" width="64" height="64" />
</g>
<g transform="matrix(Infinity NaN NaN Infinity 0 0)" id="9dbddf56-c979-4df9-b72d-2b5899ad9228"  >
</g>
<g transform="matrix(NaN NaN NaN NaN 0 0)"  >
<g style=""   >
</g>
</g>
<g transform="matrix(NaN NaN NaN NaN 0 0)"  >
<g style=""   >
</g>
</g>
<g transform="matrix(NaN NaN NaN NaN 0 0)"  >
<g style=""   >
</g>
</g>
<g transform="matrix(NaN NaN NaN NaN 0 0)"  >
<g style=""   >
</g>
</g>
<g transform="matrix(0.98 0 0 0.98 32 32)"  >
<g style=""   >
		<g transform="matrix(1 0 0 1 -3.2 -10.19)" clip-path="url(#CLIPPATH_13)"  >
<clipPath id="CLIPPATH_13" >
	<rect transform="matrix(1 0 0 1 3.11 9.81)" id="clip0_141_12934" x="-9.84" y="-25.92" rx="0" ry="0" width="19.68" height="51.84" />
</clipPath>
<path style="stroke: rgb(18,18,18); stroke-width: 2; stroke-dasharray: none; stroke-linecap: round; stroke-dashoffset: 0; stroke-linejoin: round; stroke-miterlimit: 4; fill: none; fill-rule: nonzero; opacity: 1;" vector-effect="non-scaling-stroke"  transform=" translate(-29.3, -22.31)" d="M 24.4919 20.5099 C 29.0309 15.6435 33.4274 17.0212 34.299 20.6909 C 35.1528 24.2856 32.5055 26.8295 30.6932 27.1749 C 26.5028 27.9738 22.0481 22.0724 25.204 19.9676" stroke-linecap="round" />
</g>
		<g transform="matrix(1 0 0 1 -4.02 2.56)" clip-path="url(#CLIPPATH_14)"  >
<clipPath id="CLIPPATH_14" >
	<rect transform="matrix(1 0 0 1 3.93 -2.94)" id="clip0_141_12934" x="-9.84" y="-25.92" rx="0" ry="0" width="19.68" height="51.84" />
</clipPath>
<path style="stroke: rgb(18,18,18); stroke-width: 2; stroke-dasharray: none; stroke-linecap: round; stroke-dashoffset: 0; stroke-linejoin: round; stroke-miterlimit: 4; fill: none; fill-rule: nonzero; opacity: 1;" vector-effect="non-scaling-stroke"  transform=" translate(-28.48, -35.06)" d="M 25.3733 28.2012 C 25.0123 28.4709 24.9733 34.4412 24.9733 34.4412 C 24.9733 34.4412 24.8079 39.8036 26.0277 41.8317 C 26.092 41.9382 31.6499 41.9949 31.9822 41.747 C 32.1556 41.6176 30.4933 35.0012 31.0466 31.1427" stroke-linecap="round" />
</g>
		<g transform="matrix(1 0 0 1 -2.18 -14.54)" clip-path="url(#CLIPPATH_15)"  >
<clipPath id="CLIPPATH_15" >
	<rect transform="matrix(1 0 0 1 2.1 14.16)" id="clip0_141_12934" x="-9.84" y="-25.92" rx="0" ry="0" width="19.68" height="51.84" />
</clipPath>
<path style="stroke: rgb(18,18,18); stroke-width: 2; stroke-dasharray: none; stroke-linecap: round; stroke-dashoffset: 0; stroke-linejoin: round; stroke-miterlimit: 4; fill: none; fill-rule: nonzero; opacity: 1;" vector-effect="non-scaling-stroke"  transform=" translate(-30.32, -17.96)" d="M 25.3475 28.131 C 23.0398 23.2134 25.1145 16.4095 28.835 12.7865 C 30.6175 11.0511 32.8172 9.91065 34.619 8.39003 C 37.5238 5.93847 35.9449 12.0578 34.619 8.21083" stroke-linecap="round" />
</g>
		<g transform="matrix(1 0 0 1 3.56 -3.36)" clip-path="url(#CLIPPATH_16)"  >
<clipPath id="CLIPPATH_16" >
	<rect transform="matrix(1 0 0 1 -3.64 2.98)" id="clip0_141_12934" x="-9.84" y="-25.92" rx="0" ry="0" width="19.68" height="51.84" />
</clipPath>
<path style="stroke: rgb(18,18,18); stroke-width: 2; stroke-dasharray: none; stroke-linecap: round; stroke-dashoffset: 0; stroke-linejoin: round; stroke-miterlimit: 4; fill: none; fill-rule: nonzero; opacity: 1;" vector-effect="non-scaling-stroke"  transform=" translate(-36.06, -29.14)" d="M 31.3348 30.3918 C 36.7891 37.3436 37.7184 30.4528 40.7762 24.9629" stroke-linecap="round" />
</g>
		<g transform="matrix(1 0 0 1 -3.05 15.45)" clip-path="url(#CLIPPATH_17)"  >
<clipPath id="CLIPPATH_17" >
	<rect transform="matrix(1 0 0 1 2.96 -15.83)" id="clip0_141_12934" x="-9.84" y="-25.92" rx="0" ry="0" width="19.68" height="51.84" />
</clipPath>
<path style="stroke: rgb(18,18,18); stroke-width: 2; stroke-dasharray: none; stroke-linecap: round; stroke-dashoffset: 0; stroke-linejoin: round; stroke-miterlimit: 4; fill: none; fill-rule: nonzero; opacity: 1;" vector-effect="non-scaling-stroke"  transform=" translate(-29.45, -47.95)" d="M 26.0932 42.2012 C 26.5483 43.2423 29.3153 53.7079 32.5773 53.7079 C 33.6453 53.7079 30.4901 43.9214 32.5773 46.8364" stroke-linecap="round" />
</g>
		<g transform="matrix(1 0 0 1 3.6 16.88)" clip-path="url(#CLIPPATH_18)"  >
<clipPath id="CLIPPATH_18" >
	<rect transform="matrix(1 0 0 1 -3.69 -17.26)" id="clip0_141_12934" x="-9.84" y="-25.92" rx="0" ry="0" width="19.68" height="51.84" />
</clipPath>
<path style="stroke: rgb(18,18,18); stroke-width: 2; stroke-dasharray: none; stroke-linecap: round; stroke-dashoffset: 0; stroke-linejoin: round; stroke-miterlimit: 4; fill: none; fill-rule: nonzero; opacity: 1;" vector-effect="non-scaling-stroke"  transform=" translate(-36.1, -49.38)" d="M 32.5773 42.1719 C 33.626 43.0096 35.1524 43.9696 36.2353 44.7619 C 37.4638 45.6601 38.4481 45.7359 39.5524 46.8371 C 40.4311 47.7135 33.6559 54.0207 36.2353 56.5931" stroke-linecap="round" />
</g>
</g>
</g>
</svg>