<?xml version="1.0" encoding="UTF-8" standalone="no" ?>
<!DOCTYPE svg PUBLIC "-//W3C//DTD SVG 1.1//EN" "http://www.w3.org/Graphics/SVG/1.1/DTD/svg11.dtd">
<svg xmlns="http://www.w3.org/2000/svg" xmlns:xlink="http://www.w3.org/1999/xlink" version="1.1" width="64" height="64" viewBox="0 0 64 64" xml:space="preserve">
<desc>Created with Fabric.js 5.2.4</desc>
<defs>
</defs>
<rect x="0" y="0" width="100%" height="100%" fill="transparent"></rect>
<g transform="matrix(1 0 0 1 32 32)" id="b5320707-710d-441f-8f80-b222c06d348b"  >
<rect style="stroke: none; stroke-width: 1; stroke-dasharray: none; stroke-linecap: butt; stroke-dashoffset: 0; stroke-linejoin: miter; stroke-miterlimit: 4; fill: rgb(255,255,255); fill-rule: nonzero; opacity: 1; visibility: hidden;" vector-effect="non-scaling-stroke"  x="-32" y="-32" rx="0" ry="0" width="64" height="64" />
</g>
<g transform="matrix(Infinity NaN NaN Infinity 0 0)" id="e59710f8-521e-4dc1-98d5-1fe6d56156d9"  >
</g>
<g transform="matrix(1 0 0 1 32 32)"  >
<g style=""   >
		<g transform="matrix(1 0 0 1 11.73 6.99)"  >
<path style="stroke: rgb(108,133,255); stroke-width: 3; stroke-dasharray: none; stroke-linecap: round; stroke-dashoffset: 0; stroke-linejoin: round; stroke-miterlimit: 4; fill: none; fill-rule: nonzero; opacity: 1;" vector-effect="non-scaling-stroke"  transform=" translate(-43.73, -38.99)" d="M 34.5286 37.8437 C 36.8934 37.1066 51.9725 35.0855 52.7547 36.2589 C 53.5903 37.5121 51.3574 40.9904 50.8176 42.0701" stroke-linecap="round" />
</g>
		<g transform="matrix(1 0 0 1 2.39 18.39)"  >
<path style="stroke: rgb(108,133,255); stroke-width: 3; stroke-dasharray: none; stroke-linecap: round; stroke-dashoffset: 0; stroke-linejoin: round; stroke-miterlimit: 4; fill: none; fill-rule: nonzero; opacity: 1;" vector-effect="non-scaling-stroke"  transform=" translate(-34.39, -50.39)" d="M 32.0637 40.8374 C 30.8833 43.2223 22.1394 59.1141 22.5544 59.944 C 29.5351 59.1484 42.8474 59.638 44.3906 58.095 C 45.3077 57.1779 45.5025 55.2385 46.2396 54.1328" stroke-linecap="round" />
</g>
		<g transform="matrix(1 0 0 1 10.4 8.18)"  >
<path style="stroke: rgb(108,133,255); stroke-width: 3; stroke-dasharray: none; stroke-linecap: round; stroke-dashoffset: 0; stroke-linejoin: round; stroke-miterlimit: 4; fill: none; fill-rule: nonzero; opacity: 1;" vector-effect="non-scaling-stroke"  transform=" translate(-42.4, -40.18)" d="M 42.2767 40.4852 C 42.2068 40.2267 42.458 40.0621 42.5408 39.8689" stroke-linecap="round" />
</g>
		<g transform="matrix(1 0 0 1 -5.89 -12.84)"  >
<path style="stroke: rgb(108,133,255); stroke-width: 3; stroke-dasharray: none; stroke-linecap: round; stroke-dashoffset: 0; stroke-linejoin: round; stroke-miterlimit: 4; fill: none; fill-rule: nonzero; opacity: 1;" vector-effect="non-scaling-stroke"  transform=" translate(-26.11, -19.16)" d="M 13.393 15.3749 C 18.9242 -0.940053 42.9756 6.64172 38.2093 23.5765 C 35.6254 32.7569 18.0528 37.0781 14.2344 22.4811" stroke-linecap="round" />
</g>
		<g transform="matrix(1 0 0 1 0.3 -12.27)"  >
<path style="stroke: rgb(108,133,255); stroke-width: 3; stroke-dasharray: none; stroke-linecap: round; stroke-dashoffset: 0; stroke-linejoin: round; stroke-miterlimit: 4; fill: none; fill-rule: nonzero; opacity: 1;" vector-effect="non-scaling-stroke"  transform=" translate(-32.3, -19.73)" d="M 32.4701 20.818 C 32.3576 19.9482 32.3157 19.4185 32.1284 18.6387" stroke-linecap="round" />
</g>
		<g transform="matrix(1 0 0 1 -4.76 -12.01)"  >
<path style="stroke: rgb(108,133,255); stroke-width: 3; stroke-dasharray: none; stroke-linecap: round; stroke-dashoffset: 0; stroke-linejoin: round; stroke-miterlimit: 4; fill: none; fill-rule: nonzero; opacity: 1;" vector-effect="non-scaling-stroke"  transform=" translate(-27.24, -19.99)" d="M 27.4482 20.9817 C 27.4064 20.2493 27.2231 19.7116 27.0284 19.0042" stroke-linecap="round" />
</g>
		<g transform="matrix(1 0 0 1 16.67 15.21)"  >
<path style="stroke: rgb(108,133,255); stroke-width: 3; stroke-dasharray: none; stroke-linecap: round; stroke-dashoffset: 0; stroke-linejoin: round; stroke-miterlimit: 4; fill: none; fill-rule: nonzero; opacity: 1;" vector-effect="non-scaling-stroke"  transform=" translate(-48.67, -47.21)" d="M 48.8805 44.7116 C 47.8801 44.9229 46.9519 45.3036 46.151 45.9442 C 38.9576 51.6989 49.8466 53.6975 53.1949 47.0008 C 53.8488 45.6929 53.6806 44.262 52.8427 43.2147" stroke-linecap="round" />
</g>
		<g transform="matrix(1 0 0 1 -11.45 8.53)"  >
<path style="stroke: rgb(108,133,255); stroke-width: 3; stroke-dasharray: none; stroke-linecap: round; stroke-dashoffset: 0; stroke-linejoin: round; stroke-miterlimit: 4; fill: none; fill-rule: nonzero; opacity: 1;" vector-effect="non-scaling-stroke"  transform=" translate(-20.55, -40.53)" d="M 14.2237 39.7324 C 16.168 31.5018 28.3142 37.5203 26.7267 43.8707 C 25.7838 47.6417 22.383 43.0788 21.884 41.5814" stroke-linecap="round" />
</g>
		<g transform="matrix(1 0 0 1 -12.98 12.18)"  >
<path style="stroke: rgb(108,133,255); stroke-width: 3; stroke-dasharray: none; stroke-linecap: round; stroke-dashoffset: 0; stroke-linejoin: round; stroke-miterlimit: 4; fill: none; fill-rule: nonzero; opacity: 1;" vector-effect="non-scaling-stroke"  transform=" translate(-19.02, -44.18)" d="M 21.9719 43.027 C 21.6919 46.8805 17.5439 45.1748 16.0726 43.115" stroke-linecap="round" />
</g>
</g>
</g>
</svg>