<?xml version="1.0" encoding="UTF-8" standalone="no" ?>
<!DOCTYPE svg PUBLIC "-//W3C//DTD SVG 1.1//EN" "http://www.w3.org/Graphics/SVG/1.1/DTD/svg11.dtd">
<svg xmlns="http://www.w3.org/2000/svg" xmlns:xlink="http://www.w3.org/1999/xlink" version="1.1" width="64" height="64" viewBox="0 0 64 64" xml:space="preserve">
<desc>Created with Fabric.js 5.2.4</desc>
<defs>
</defs>
<rect x="0" y="0" width="100%" height="100%" fill="transparent"></rect>
<g transform="matrix(1 0 0 1 32 32)" id="d17d8e50-bbdd-42f3-9d40-902f8ce8aa60"  >
<rect style="stroke: none; stroke-width: 1; stroke-dasharray: none; stroke-linecap: butt; stroke-dashoffset: 0; stroke-linejoin: miter; stroke-miterlimit: 4; fill: rgb(255,255,255); fill-rule: nonzero; opacity: 1; visibility: hidden;" vector-effect="non-scaling-stroke"  x="-32" y="-32" rx="0" ry="0" width="64" height="64" />
</g>
<g transform="matrix(Infinity NaN NaN Infinity 0 0)" id="9dbddf56-c979-4df9-b72d-2b5899ad9228"  >
</g>
<g transform="matrix(NaN NaN NaN NaN 0 0)"  >
<g style=""   >
</g>
</g>
<g transform="matrix(NaN NaN NaN NaN 0 0)"  >
<g style=""   >
</g>
</g>
<g transform="matrix(NaN NaN NaN NaN 0 0)"  >
<g style=""   >
</g>
</g>
<g transform="matrix(NaN NaN NaN NaN 0 0)"  >
<g style=""   >
</g>
</g>
<g transform="matrix(1.31 0 0 1.31 32 32)"  >
<path style="stroke: rgb(255,255,255); stroke-width: 3; stroke-dasharray: none; stroke-linecap: butt; stroke-dashoffset: 0; stroke-linejoin: miter; stroke-miterlimit: 4; fill: none; fill-rule: nonzero; opacity: 1;"  transform=" translate(-25.85, -22.49)" d="M 1.79812 22.4478 C 3.70987 16.7683 8.74245 3.4146 11.794 1.80289 M 11.794 1.80289 C 15.6084 -0.211749 50.1277 17.09 49.8997 20.9022 M 11.794 1.80289 C 15.1895 7.71174 23.4803 22.3566 25.0052 22.4478 C 26.9113 22.5618 47.4319 21.909 49.8997 20.9022 M 49.8997 20.9022 C 49.8458 21.8039 49.3618 22.5099 48.625 24.5601 M 42.5435 43.2908 C 39.9414 44.0059 20.9307 36.7442 10.4337 30.6415" stroke-linecap="round" />
</g>
</svg>