<svg width="409" height="303" fill="none" xmlns="http://www.w3.org/2000/svg"><g clip-path="url(#a)"><path d="M366.11 66.45c-.22-3.44-.19-6.52-.64-9.53C359.86 19.33 326.8-4.97 289.33.88c-41.26 6.44-66.3 52.38-49.23 90.35 1.95 4.33 5.46 6.09 9.25 4.62 3.48-1.35 4.96-5.1 3.66-9.35-.23-.76-.54-1.5-.83-2.24-3-7.69-4.09-15.63-3.29-23.86 2.2-22.46 19.19-41.42 41.07-45.73 22.54-4.44 45.21 6.14 56.01 26.14 10.84 20.06 7.36 45.14-8.97 60.99-4.31 4.19-9.73 7.27-14.79 10.64-4.19 2.79-5.6 6.36-3.51 10.04 2 3.53 5.95 4.24 10.48 1.86 23.5-12.32 35.44-31.95 36.92-57.89h.01ZM283.81 191.74c-4.12-7.4-6.49-14.9-12.59-19.88-1.4-1.14-5.49-.63-7.14.66-1.62 1.28-3 5.07-2.25 6.77a90.803 90.803 0 0 0 9.45 16.5c1.08 1.5 4.95 2.09 7.04 1.45 2.05-.63 3.47-3.35 5.49-5.5Z" fill="#fff"/><path d="M0 293.22c9.88-16.97 19.8-33.92 29.63-50.93C58.89 191.66 88.11 141 117.35 90.35c.33-.58.63-1.17.99-1.73 3.71-5.95 9.62-5.95 13.19.14 6.65 11.35 13.17 22.78 19.75 34.18.73 1.26 1.5 2.48 2.43 4.01.99-1.6 1.85-2.92 2.64-4.28 12.16-21.06 24.31-42.13 36.48-63.19 4.8-8.3 10.24-8.35 14.99-.13 11.43 19.8 22.86 39.6 34.29 59.39.71 1.23 1.49 2.43 2.48 4.05 8.06-13.92 15.84-27.36 23.62-40.8 1-1.73 1.93-3.5 3.01-5.16 3.35-5.14 8.92-5.19 12.3-.14.59.88 1.08 1.83 1.61 2.75 14.62 25.32 29.25 50.64 43.87 75.96.79 1.36 1.62 2.7 2.57 4.28 3.87-2.86 7.46-5.57 11.11-8.19 5.56-3.99 10.19-2.73 12.62 3.58 17.58 45.6 35.12 91.22 52.62 136.85 2.33 6.08-.58 10.2-7.13 10.46-1.06.04-2.13.02-3.19.02-98.86 0-197.72 0-296.57-.01-1.86 0-3.74-.03-5.56-.33-3.51-.56-5.38-2.87-5.52-6.31-.14-3.44 1.56-5.91 5-6.73 1.78-.43 3.68-.49 5.53-.49 72.78-.02 145.56-.02 218.34-.02h5.38c-4.21-7.29-8.05-13.93-11.88-20.56-3.5-6.06-3.28-9.8.71-12.23 4.1-2.5 7.76-.76 11.29 5.35 4.78 8.29 9.51 16.61 14.42 24.83.69 1.15 2.28 2.49 3.46 2.5 15.96.15 31.93.09 47.9.06.36 0 .72-.21 1.54-.46-15.45-40.22-30.87-80.33-46.48-120.98-2.15 1.53-4.05 2.85-5.92 4.22-5.68 4.18-11.33 8.39-17.02 12.55-4.46 3.27-8.84 3.11-11.23-.34-2.48-3.58-1.37-7.41 3.16-10.84 1.99-1.51 4-3 6.19-4.65-14.27-24.71-28.41-49.2-42.75-74.03-.81 1.15-1.45 1.94-1.96 2.81-7.12 12.31-14.17 24.66-21.39 36.91-1.32 2.25-1.44 3.98.02 6.15 1.85 2.75 3.4 5.71 5.05 8.59 2.97 5.21 2.42 9.18-1.54 11.45-3.82 2.19-7.37.71-10.33-4.38-5.8-10-11.57-20.02-17.36-30.03-.64-1.11-1.36-2.18-2.35-3.76-4.73 4.8-9.16 9.36-13.66 13.86-5.01 5.02-7.9 5.05-13.3.28-7.86-6.94-15.73-13.87-23.87-21.04-4.9 8.49-9.68 16.6-14.19 24.86-.54.99.1 3.02.78 4.23 7.62 13.4 15.37 26.73 23.07 40.09.66 1.15 1.36 2.3 1.86 3.52 1.45 3.56.25 7.18-2.89 8.95-3.14 1.77-6.89.92-9.03-2.46-2.98-4.71-5.53-9.71-8.56-14.39-.95-1.47-2.73-2.99-4.37-3.34-9.08-1.98-18.23-3.7-27.4-5.26-1.37-.23-3.32.46-4.38 1.42-3.75 3.38-7.17 7.12-10.82 10.63-3.93 3.78-7.55 3.79-11.47-.06-6.16-6.05-12.19-12.23-18.73-18.81-23.98 41.52-47.71 82.61-71.83 124.35h4.89c14.1 0 28.21-.02 42.31.03 1.71 0 3.49.11 5.1.61 3.17.99 4.76 3.43 4.57 6.69-.19 3.23-1.95 5.5-5.24 6.17-1.55.31-3.17.37-4.76.37-18.63.02-37.26-.07-55.88.08-4.16.03-7.48-1-9.89-4.46v-4.79l-.04.02Zm157.16-132.43c-10.91-18.9-21.43-37.12-32.25-55.87-8.98 15.55-17.68 30.58-26.28 45.66-.32.56-.08 1.88.4 2.37 5.27 5.41 10.63 10.72 16.3 16.4 3.57-3.64 6.93-7.02 10.22-10.44 2.42-2.51 5.12-3.33 8.64-2.56 7.35 1.61 14.78 2.88 22.97 4.44Zm63.26-51.98c-6.49-11.23-13.14-22.74-20.07-34.74-5.39 9.34-10.38 17.94-15.27 26.6-.4.71-.47 2.29 0 2.72 7.23 6.58 14.57 13.03 21.51 19.18l13.84-13.75-.01-.01Z" fill="#E4E4E4"/><path d="M366.11 66.45c-1.47 25.93-13.41 45.56-36.92 57.89-4.54 2.38-8.48 1.67-10.48-1.86-2.09-3.68-.69-7.25 3.51-10.04 5.06-3.37 10.48-6.45 14.79-10.64 16.33-15.85 19.8-40.93 8.97-60.99-10.8-20-33.47-30.58-56.01-26.14-21.88 4.31-38.87 23.26-41.07 45.73-.81 8.23.29 16.17 3.29 23.86.29.74.6 1.48.83 2.24 1.3 4.25-.18 8-3.66 9.35-3.79 1.47-7.31-.28-9.25-4.62-17.06-37.96 7.97-83.91 49.23-90.35 37.47-5.85 70.53 18.46 76.14 56.04.45 3.01.42 6.1.64 9.53h-.01ZM283.81 191.74c-2.02 2.15-3.43 4.87-5.49 5.5-2.09.64-5.96.05-7.04-1.45-3.7-5.12-6.9-10.72-9.45-16.5-.75-1.7.63-5.49 2.25-6.77 1.65-1.29 5.74-1.8 7.14-.66 6.1 4.98 8.47 12.48 12.59 19.88Z" fill="#E4E4E4"/></g><defs><clipPath id="a"><path fill="#fff" d="M0 0h408.71v302.47H0z"/></clipPath></defs></svg>