<svg width="304" height="377" viewBox="0 0 304 377" fill="none" xmlns="http://www.w3.org/2000/svg">
<g clip-path="url(#clip0_463_7041)">
<path d="M108.09 367.47C126.01 367.47 144.33 367.47 162.65 367.47C168.31 367.47 170.51 368.79 170.39 372.13C170.28 375.33 168.26 376.47 162.7 376.47C119.66 376.47 76.62 376.51 33.59 376.45C17.21 376.43 3.74998 365.87 0.809978 350.13C-4.08002 323.89 13.97 307.26 34.67 307.64C42.98 307.79 51.3 307.66 59.81 306.89C57.12 305.82 54.43 304.74 51.74 303.69C34.77 297.06 26.95 282.44 31.13 264.73C34.97 248.46 39.2 232.28 42.89 215.97C47.33 196.35 59.43 184.57 78.71 180.05C86.58 178.2 94.61 177.03 102.55 175.51C104.21 175.19 105.83 174.69 108.17 174.09C77.87 154.89 61.41 128.31 61.05 92.84C60.78 66.08 71.04 43.48 90.31 25.05C128.27 -11.27 189.84 -7.54 224.11 32.83C261.15 76.47 250.38 145.77 197.35 174.9C202.01 175.66 205.98 176.11 209.85 177C217.24 178.69 224.72 180.19 231.91 182.57C245.05 186.92 254.47 195.78 258.15 209.2C263.63 229.16 268.74 249.26 272.87 269.53C275.71 283.45 267.41 296.78 254.32 302.52C250.8 304.06 247.2 305.4 242.62 307.23C244.48 307.46 245.35 307.66 246.21 307.66C253.82 307.68 261.43 307.6 269.04 307.69C290.06 307.92 304.24 323.14 303.15 344.23C302.36 359.55 293.11 371.48 278.9 375.26C276.16 375.99 273.25 376.42 270.42 376.43C246.09 376.52 221.77 376.49 197.44 376.49C196.94 376.49 196.44 376.51 195.94 376.47C193.17 376.21 191.44 374.65 191.51 371.9C191.57 369.15 193.35 367.56 196.14 367.53C203 367.46 209.86 367.5 216.72 367.5C234.56 367.5 252.4 367.57 270.24 367.47C282.35 367.4 292.49 358.58 293.91 347.13C295.74 332.43 289.25 321.15 276.78 317.74C274.05 316.99 271.12 316.75 268.28 316.73C251.94 316.64 235.59 316.45 219.26 316.75C202.85 317.05 187.6 322.35 173.27 329.84C162.26 335.6 152.01 342.82 141.24 349.07C130.28 355.43 119.09 361.4 108.09 367.5V367.47ZM188.33 168.88C189.66 168.3 190.23 168.08 190.78 167.81C224.06 151.33 242.09 115 235.59 77.52C227.94 33.47 184.32 2.57 140.47 10.15C94.78 18.05 64.81 58.08 70.86 104.31C74.5 132.11 89.46 152.8 113.9 166.49C114.85 167.02 117.06 166.95 117.6 166.28C120.93 162.12 123.98 157.72 127.05 153.36C127.45 152.8 127.73 151.92 127.61 151.27C127.29 149.43 120.9 144.71 118.93 144.73C112.9 144.8 108.31 142.46 105.69 136.81C103.86 132.87 101.88 128.99 100.17 125C98.8 121.8 97.39 118.56 96.6 115.19C95.45 110.32 96.13 105.58 100.3 102.25C102.02 100.88 102.41 99.64 102.23 97.57C100.89 82.34 104.44 68.78 116.24 58.24C118.84 55.92 121.91 54.1 124.33 51.62C126.05 49.86 127.78 47.52 128.23 45.19C130.84 31.89 138.88 24.46 151.85 23.92C166.86 23.29 176.65 29.87 179.8 43.25C180.77 47.35 182.64 50.11 186.09 52.4C202.37 63.21 209.4 78.45 207.46 97.93C207.36 98.94 208.14 100.44 208.99 101.07C213.46 104.43 215.42 108.96 214.13 114.21C212.95 118.99 210.73 123.52 208.87 128.12C207.94 130.42 206.54 132.55 205.81 134.9C203.17 143.36 198.6 146.11 190.02 144.32C189.11 144.13 187.72 144.32 187.11 144.9C184.27 147.66 181.62 150.63 178.45 154.01C181.62 158.79 184.91 163.73 188.33 168.89V168.88ZM148.46 294.64L148.77 295.92C150.41 295.66 152.43 295.92 153.64 295.04C160.86 289.82 168.65 288.14 177.37 290.07C178.82 290.39 180.77 289.71 182.16 288.91C197.28 280.2 212.33 271.35 227.43 262.58C230.59 260.74 233.21 261.16 234.62 263.55C236.06 265.98 235.17 268.39 232 270.3C228.37 272.48 224.68 274.58 221.02 276.72C216.14 279.58 211.27 282.46 205.71 285.73C207.78 286.41 209.01 287.04 210.31 287.21C216.35 287.98 222.39 288.72 228.45 289.27C231.15 289.51 233.12 290.38 233.38 293.29C233.66 296.38 231.83 297.86 228.98 298.24C228 298.37 226.99 298.37 225.99 298.36C216.52 298.32 207.38 296.63 198.78 292.59C196.75 291.64 195.11 291.55 193.28 292.9C191.8 293.98 190.14 294.81 188.91 295.54C191.39 299.56 193.76 303.41 196.37 307.66C202.24 307.66 208.72 307.7 215.2 307.62C216.28 307.61 217.4 307.24 218.43 306.84C228.78 302.86 239.13 298.91 249.43 294.8C261.06 290.16 266.49 279.5 263.58 267.26C262.2 261.43 260.8 255.61 259.37 249.79C256.41 237.8 253.57 225.77 250.36 213.85C249.34 210.04 247.31 206.51 245.64 202.59C244.85 203.32 244.71 203.39 244.7 203.47C244.61 203.96 244.54 204.45 244.48 204.95C241.95 224.5 235.19 242.26 221.62 256.84C217.32 261.46 212.15 265.29 207.2 269.27C205.11 270.95 202.59 270.78 200.93 268.47C199.19 266.05 199.82 263.75 202.16 261.94C202.65 261.56 203.19 261.23 203.69 260.87C225.42 244.99 234.27 222.56 236.12 196.62C236.18 195.71 235.64 194.24 234.95 193.89C231.82 192.29 228.53 190.99 224.94 189.43C224.65 191.37 224.47 192.59 224.29 193.8C221.68 210.85 215.7 226.34 203.47 238.93C200.63 241.86 198.16 242.25 196.05 240.23C193.92 238.19 194.17 235.64 196.99 232.73C205.78 223.69 210.93 212.74 213.76 200.62C214.77 196.31 215.36 191.9 216.19 187.22C211.22 186.39 206.86 185.67 202.38 184.92C202.08 186 201.89 186.57 201.75 187.16C198.62 200.47 194.01 213.25 187.33 225.19C172.43 251.78 151.23 271.44 123.07 283.37C122 283.82 120.46 285.04 120.5 285.84C120.56 286.99 121.65 288.34 122.66 289.15C126.79 292.42 131.29 291.55 135.74 289.9C152.18 283.8 166.94 275.37 176.76 260.12C178.73 257.07 181.16 256.13 183.53 257.53C185.86 258.91 186.22 261.67 184.44 264.79C183.88 265.76 183.26 266.7 182.61 267.62C175.65 277.54 166.4 284.82 155.94 290.69C153.48 292.07 150.96 293.34 148.47 294.65L148.46 294.64ZM179.16 316.66C176.84 316.66 175.65 316.66 174.46 316.66C149.64 316.66 124.82 316.66 100 316.66C78.05 316.66 56.1 316.57 34.14 316.69C18.91 316.77 8.97998 327.08 9.06998 342.36C9.15998 357.39 19.22 367.43 34.28 367.47C45.51 367.5 56.73 367.57 67.96 367.42C71.54 367.37 75.18 366.99 78.68 366.23C101.78 361.21 122.45 350.87 142.08 337.87C152.95 330.67 164.73 324.85 176.09 318.41C176.78 318.02 177.48 317.62 179.15 316.67L179.16 316.66ZM186.98 107.07C186.73 107.06 186.47 107.05 186.22 107.04C186.22 101.17 186.74 95.25 186.09 89.45C185.19 81.42 178.11 77.72 171.26 81.77C160.14 88.35 149.51 87.53 138.75 81.22C134.96 79 131.06 79.54 127.7 82.4C124.37 85.23 122.61 88.9 122.57 93.23C122.48 102.6 122.31 111.98 122.63 121.35C123.18 137.58 135.67 150.49 151.95 152.07C167.29 153.55 182.05 143.11 185.39 127.55C186.81 120.92 186.5 113.91 186.98 107.08V107.07ZM73.95 191.19C72.93 191.47 72.57 191.54 72.23 191.67C59.91 196.48 54.39 206.56 51.46 218.63C47.52 234.87 43.58 251.1 39.69 267.35C36.77 279.54 42.28 290.18 53.92 294.82C62.13 298.09 70.62 300.74 78.58 304.54C88.18 309.13 98.06 307.13 106.64 307.6C109.8 303 112.4 299.21 115.07 295.32C114.08 294.73 112.82 293.95 111.53 293.22C98.31 285.72 85.07 278.25 71.86 270.74C68.38 268.76 67.15 265.73 69.27 263.56C70.57 262.22 72.79 261.79 75.17 260.67C74.77 238.15 74.36 214.84 73.94 191.19H73.95ZM120.3 226.45C121.34 226.45 121.83 226.5 122.32 226.45C149.1 223.11 173.92 199.7 178.84 173.1C178.98 172.33 178.98 171.31 178.6 170.69C175.97 166.49 173.23 162.36 170.5 158.18C155.64 162.49 150.01 162.18 135.84 156.84C133.5 160.35 131.82 164.67 128.7 167.2C120.56 173.8 119.19 182.16 120.24 191.73C120.59 194.94 120.3 198.21 120.3 201.46V226.46V226.45ZM112.45 100.27L113.59 100.09C113.59 97.48 113.48 94.87 113.61 92.27C114.32 78.05 128.81 64.38 144.97 74.26C152.02 78.57 159.13 78.33 166.5 74.09C178.28 67.32 190.86 72.66 194.49 85.71C195.34 88.78 195.26 92.11 195.5 95.33C195.63 97.09 195.52 98.86 195.52 100.63C196.01 100.7 196.51 100.77 197 100.84C197.55 98.81 198.45 96.81 198.6 94.75C199.65 80.18 194.16 68.59 181.99 60.55C176.03 56.61 172.35 51.78 170.82 44.61C168.97 35.97 162.48 32.33 152.21 32.88C143.63 33.34 138.68 37.65 137.31 46.24C136.41 51.88 133.89 56.31 129.05 59.41C127.69 60.28 126.45 61.34 125.16 62.33C113.91 70.92 109.75 82.46 111.14 96.27C111.28 97.63 111.99 98.93 112.44 100.26L112.45 100.27ZM111.21 182.77C108.36 183.39 105.84 184.29 103.28 184.41C100.1 184.56 99.42 185.96 99.48 188.87C99.65 197.23 99.58 205.6 99.52 213.97C99.49 217.58 97.68 219.82 94.96 219.57C91.74 219.27 90.57 217.09 90.57 214.1C90.56 208.23 90.57 202.36 90.57 196.49C90.57 193.29 90.57 190.08 90.57 186.57C88.55 186.94 87.11 187.3 85.65 187.46C83.51 187.7 82.81 188.71 82.86 190.92C83.38 215.64 83.8 240.36 84.31 265.08C84.33 266.04 84.76 267.42 85.46 267.88C88.33 269.75 91.39 271.33 94.88 273.31C94.88 265.43 94.88 258.22 94.88 251.01C94.88 247.89 95.92 245.53 99.39 245.3C102.18 245.11 103.83 247.25 103.85 250.94C103.89 258.31 103.86 265.68 103.86 273.04C103.86 279.11 104.94 280.42 111.21 281.92V182.78V182.77ZM120.41 274.84C160.43 256.25 183.79 225.31 193.48 183.21C191.16 181.82 189.07 180.56 186.73 179.16C186.22 180.5 185.9 181.69 185.35 182.76C181.35 190.48 178.13 198.77 173.1 205.76C160.92 222.69 143.65 231.8 123.34 235.51C122.25 235.71 120.49 236.71 120.46 237.41C120.2 242.07 120.33 246.75 120.33 251.65C121.77 251.43 122.64 251.37 123.47 251.16C124.68 250.86 125.87 250.49 127.04 250.08C137.03 246.59 145.25 240.41 152.72 233.1C154.91 230.96 157.35 230.29 159.59 232.64C161.8 234.96 161.12 237.43 158.95 239.56C151.13 247.23 142.55 253.81 132.25 257.76C128.45 259.22 124.44 260.12 120.42 261.31V274.84H120.41ZM185.89 307.49C180.45 297.94 168.94 295.58 160.02 301.6C157.76 303.12 156.59 304.71 157.97 307.49H185.89ZM149.14 306.99C140.31 297.52 122.2 298.29 117.66 307.76C128 307.22 138.13 308.4 149.14 306.99ZM193.65 135.81C195.83 136.62 196.38 134.56 197.14 132.68C198.25 129.94 199.44 127.23 200.61 124.51C202.08 121.11 203.72 117.77 205.01 114.3C205.94 111.79 205.87 109.22 202.81 108.12C201.25 107.56 195.66 112 195.52 113.61C194.92 120.86 194.3 128.1 193.65 135.81ZM115.44 136.29C114.72 128.1 113.68 121.25 113.7 114.4C113.72 110.38 110.7 110.41 108.74 108.98C108.18 108.57 106.22 108.94 106.19 109.14C105.91 111.12 105.78 113.15 105.85 115.15C105.88 116.1 106.36 117.07 106.78 117.97C109.19 123.14 111.63 128.29 114.07 133.45C114.43 134.2 114.79 134.95 115.43 136.3L115.44 136.29Z" fill="#E4E4E4"/>
<path d="M75.06 328.15C84.03 328.15 92.99 328.13 101.96 328.16C105.92 328.18 108.18 329.84 107.95 332.68C107.67 336.15 105.26 337.15 102.18 337.15C83.88 337.15 65.57 337.18 47.27 337.12C43.61 337.11 41.48 335.3 41.67 332.54C41.92 329.01 44.33 328.14 47.42 328.15C56.63 328.18 65.85 328.16 75.06 328.16V328.15Z" fill="#E4E4E4"/>
<path d="M30.69 328.15C33.73 328.07 35.78 329.32 36.01 332.52C36.21 335.3 33.84 337.19 30.47 337.11C27.55 337.04 25.35 335.95 25.17 332.67C25.01 329.83 27.2 328.11 30.7 328.15H30.69Z" fill="#E4E4E4"/>
</g>
<defs>
<clipPath id="clip0_463_7041">
<rect width="303.21" height="376.48" fill="white"/>
</clipPath>
</defs>
</svg>
