<?xml version="1.0" encoding="UTF-8" standalone="no" ?>
<!DOCTYPE svg PUBLIC "-//W3C//DTD SVG 1.1//EN" "http://www.w3.org/Graphics/SVG/1.1/DTD/svg11.dtd">
<svg xmlns="http://www.w3.org/2000/svg" xmlns:xlink="http://www.w3.org/1999/xlink" version="1.1" width="64" height="64" viewBox="0 0 64 64" xml:space="preserve">
<desc>Created with Fabric.js 5.2.4</desc>
<defs>
</defs>
<rect x="0" y="0" width="100%" height="100%" fill="transparent"></rect>
<g transform="matrix(1 0 0 1 32 32)" id="d17d8e50-bbdd-42f3-9d40-902f8ce8aa60"  >
<rect style="stroke: none; stroke-width: 1; stroke-dasharray: none; stroke-linecap: butt; stroke-dashoffset: 0; stroke-linejoin: miter; stroke-miterlimit: 4; fill: rgb(255,255,255); fill-rule: nonzero; opacity: 1; visibility: hidden;" vector-effect="non-scaling-stroke"  x="-32" y="-32" rx="0" ry="0" width="64" height="64" />
</g>
<g transform="matrix(Infinity NaN NaN Infinity 0 0)" id="9dbddf56-c979-4df9-b72d-2b5899ad9228"  >
</g>
<g transform="matrix(1 0 0 1 32 32)"  >
<g style=""   >
		<g transform="matrix(1 0 0 1 4.96 7.67)"  >
<path style="stroke: rgb(108,133,255); stroke-width: 2; stroke-dasharray: none; stroke-linecap: round; stroke-dashoffset: 0; stroke-linejoin: round; stroke-miterlimit: 4; fill: none; fill-rule: nonzero; opacity: 1;" vector-effect="non-scaling-stroke"  transform=" translate(-36.96, -39.67)" d="M 40.9539 30.0576 C 39.4699 32.3577 36.5656 42.2328 32.974 49.2787" stroke-linecap="round" />
</g>
		<g transform="matrix(1 0 0 1 -5.54 10.69)"  >
<path style="stroke: rgb(108,133,255); stroke-width: 2; stroke-dasharray: none; stroke-linecap: round; stroke-dashoffset: 0; stroke-linejoin: round; stroke-miterlimit: 4; fill: none; fill-rule: nonzero; opacity: 1;" vector-effect="non-scaling-stroke"  transform=" translate(-26.46, -42.69)" d="M 32.9719 49.2789 C 28.8521 46.2155 23.6759 41.0393 19.9394 36.1055" stroke-linecap="round" />
</g>
		<g transform="matrix(1 0 0 1 -13.13 15.33)"  >
<path style="stroke: rgb(108,133,255); stroke-width: 2; stroke-dasharray: none; stroke-linecap: round; stroke-dashoffset: 0; stroke-linejoin: round; stroke-miterlimit: 4; fill: none; fill-rule: nonzero; opacity: 1;" vector-effect="non-scaling-stroke"  transform=" translate(-18.87, -47.33)" d="M 19.9416 36.1055 C 18.6076 43.2576 18.5729 48.0945 17.7914 58.5476" stroke-linecap="round" />
</g>
		<g transform="matrix(1 0 0 1 11.73 -1.74)"  >
<path style="stroke: rgb(108,133,255); stroke-width: 2; stroke-dasharray: none; stroke-linecap: round; stroke-dashoffset: 0; stroke-linejoin: round; stroke-miterlimit: 4; fill: none; fill-rule: nonzero; opacity: 1;" vector-effect="non-scaling-stroke"  transform=" translate(-43.73, -30.26)" d="M 40.8519 30.1475 C 43.5063 30.3401 44.2588 30.4873 46.6175 30.2359" stroke-linecap="round" />
</g>
		<g transform="matrix(1 0 0 1 -6.81 -12.48)"  >
<path style="stroke: rgb(108,133,255); stroke-width: 2; stroke-dasharray: none; stroke-linecap: round; stroke-dashoffset: 0; stroke-linejoin: round; stroke-miterlimit: 4; fill: none; fill-rule: nonzero; opacity: 1;" vector-effect="non-scaling-stroke"  transform=" translate(-25.19, -19.52)" d="M 36.224 9.19074 C 27.1769 3.23246 20.6695 5.75694 18.1277 7.41923 C 5.42945 15.7249 11.7845 33.3653 27.3702 33.5962 C 41.0034 33.7982 41.6488 17.7658 34.548 12.1925" stroke-linecap="round" />
</g>
		<g transform="matrix(1 0 0 1 3.35 -6.7)"  >
<path style="stroke: rgb(108,133,255); stroke-width: 2; stroke-dasharray: none; stroke-linecap: round; stroke-dashoffset: 0; stroke-linejoin: round; stroke-miterlimit: 4; fill: none; fill-rule: nonzero; opacity: 1;" vector-effect="non-scaling-stroke"  transform=" translate(-35.35, -25.3)" d="M 33.3394 25.8636 C 35.434 24.6264 38.4755 24.2345 36.9439 25.626" stroke-linecap="round" />
</g>
		<g transform="matrix(1 0 0 1 3.48 -5.59)"  >
<path style="stroke: rgb(108,133,255); stroke-width: 2; stroke-dasharray: none; stroke-linecap: round; stroke-dashoffset: 0; stroke-linejoin: round; stroke-miterlimit: 4; fill: none; fill-rule: nonzero; opacity: 1;" vector-effect="non-scaling-stroke"  transform=" translate(-35.48, -26.41)" d="M 36.9448 25.626 C 39.1515 27.3662 35.1616 27.6037 33.3601 26.6331" stroke-linecap="round" />
</g>
		<g transform="matrix(1 0 0 1 2.88 -13.79)"  >
<path style="stroke: rgb(108,133,255); stroke-width: 2; stroke-dasharray: none; stroke-linecap: round; stroke-dashoffset: 0; stroke-linejoin: round; stroke-miterlimit: 4; fill: none; fill-rule: nonzero; opacity: 1;" vector-effect="non-scaling-stroke"  transform=" translate(-34.88, -18.21)" d="M 36.5639 17.4756 C 35.9966 19.2217 34.8923 19.3713 33.1941 18.1542" stroke-linecap="round" />
</g>
		<g transform="matrix(1 0 0 1 -2.67 -12.48)"  >
<path style="stroke: rgb(108,133,255); stroke-width: 2; stroke-dasharray: none; stroke-linecap: round; stroke-dashoffset: 0; stroke-linejoin: round; stroke-miterlimit: 4; fill: none; fill-rule: nonzero; opacity: 1;" vector-effect="non-scaling-stroke"  transform=" translate(-29.33, -19.52)" d="M 31.1492 18.4648 C 31.0632 20.2486 29.1531 21.0783 27.5113 20.2486" stroke-linecap="round" />
</g>
		<g transform="matrix(1 0 0 1 18.16 -6.5)"  >
<path style="stroke: rgb(108,133,255); stroke-width: 2; stroke-dasharray: none; stroke-linecap: round; stroke-dashoffset: 0; stroke-linejoin: round; stroke-miterlimit: 4; fill: none; fill-rule: nonzero; opacity: 1;" vector-effect="non-scaling-stroke"  transform=" translate(-50.16, -25.5)" d="M 52.0035 28.3728 C 52.2355 27.0646 53.6671 23.5674 51.7502 22.8007 C 50.3524 22.2417 50.7179 25.6941 50.2308 25.2069 C 49.77 24.7461 50.2869 23.5803 49.4708 22.9275 C 49.1826 22.6968 48.5773 22.55 48.2044 22.6742 C 45.7829 23.4814 51.3125 27.6817 52.0035 28.3728 Z" stroke-linecap="round" />
</g>
</g>
</g>
</svg>