<svg width="392" height="393" fill="none" xmlns="http://www.w3.org/2000/svg"><g clip-path="url(#a)" fill="#E4E4E4"><path d="M171.61 392.25c-1.95-.84-3.98-1.53-5.83-2.54-8.09-4.45-12.13-11.42-12.32-20.59-.12-6-.35-12.02.03-18 .87-13.93-1.26-27.4-5.04-40.75-2.29-8.08-3.91-16.35-6.15-24.45-.67-2.43-2.03-4.94-3.76-6.77-15.94-16.92-31.55-34.1-44.22-53.71-20.22-31.3-28.9-65.51-26.01-102.65.13-1.65.4-3.29.57-4.93.02-.24-.12-.49-.3-1.21h-3.96c-11.49 0-22.98.03-34.47 0C17.94 116.61 8.52 110 5.4 99.4c-3.21-10.9.91-21.24 11-28.15 1.01-.69 1.85-2.33 1.92-3.58.98-16.63 11.65-30.54 27.19-35.22 15.74-4.73 32.14.78 42.16 14.18 3.22 4.31 9.23 4.58 12.64.59 21.9-25.7 49.34-41.48 82.91-46.25 2.26-.32 4.52-.65 6.77-.97h18.39c8.12 1.56 16.4 2.52 24.31 4.77 29.92 8.53 53.74 25.89 71.92 51.06 2.52 3.49 2.43 6.29 0 8.55-2.87 2.68-6.48 2.02-9.34-1.94-6.92-9.58-14.95-18.1-24.22-25.42-12.86-10.14-27.14-17.48-42.91-21.67 3.95 6.85 8.28 13.4 11.67 20.42 9.93 20.54 14.98 42.53 17.4 65.06 4.42 41.24 2.17 82.13-9.18 122.14-4.54 16.02-10.85 31.53-16.35 47.28-.49 1.41-1.01 2.81-1.65 4.58 5.52 0 10.59.14 15.65-.1 1.36-.06 2.97-1 3.95-2.03 19-19.99 37.91-40.03 50.85-64.82 12.78-24.48 19.51-50.27 18.32-77.99-.58-13.5-3.35-26.52-8.25-39.1-2.12-5.44-1.37-8.85 2.21-10.17 3.74-1.39 6.31.45 8.48 5.96 7.01 17.84 9.86 36.34 9.07 55.46-.08 1.9-.01 3.81-.01 5.97 1.94.5 3.91.91 5.83 1.51 7.78 2.42 14.41 6.7 19.11 13.35 1.94 2.74 4.13 3.61 7.16 4.06 23.39 3.42 36.08 28.89 24.53 49.48-6.22 11.08-15.97 17.1-28.76 17.26-18.89.23-37.79.11-56.68.02-2.28-.01-3.56.78-5.04 2.52-12.38 14.58-24.95 29-37.38 43.53-1.18 1.38-2.3 3.08-2.74 4.81-3.81 14.94-7.47 29.91-11.11 44.89-.41 1.71-.49 3.54-.5 5.31-.05 9.96-.35 19.93.06 29.87.53 12.93-3.48 22.89-18.77 27.66h-54.39l-.01-.03Zm-3.41-117.33c-.66-1.85-1.1-3.14-1.58-4.42-3.59-9.54-7.4-19.01-10.73-28.64-8.51-24.57-13.8-49.84-15.69-75.79-.32-4.43 1.82-7.2 5.3-7.38 3.43-.18 5.85 2.42 6.15 6.84 2.6 37.37 13.59 72.52 28.06 106.77.91 2.15 2.15 2.72 4.32 2.69 7.79-.1 15.58-.04 23.36-.04 10 0 9.93-.03 13.74-9.12 15.83-37.75 25.47-76.84 26.43-117.96.72-30.95-1.79-61.44-11.61-90.99-4.57-13.75-10.28-26.98-20.75-37.49-10.43-10.48-21.87-10.73-32.06.04-4.84 5.12-9.05 11.12-12.35 17.36-11.87 22.47-16.61 46.98-19.04 71.99-.86 8.88-.93 17.84-1.45 26.76-.21 3.55-2.31 5.58-5.5 5.64-3.16.06-5.4-1.97-5.83-5.38-.13-1.01-.11-2.04-.05-3.06.65-10.44.86-20.93 2.08-31.31 3.6-30.68 10.73-60.24 29.8-86.27-25.3 6.95-45.67 20.48-62.32 40.19.57.48.87.73 1.16.97 12.04 10.28 16.19 24.37 11.24 38.1-5 13.84-17.43 22.14-33.31 22.22-2.26.01-4.52 0-6.75 0-.19 1-.32 1.49-.38 1.99-3.58 29 .91 56.71 13.66 82.98 13.29 27.39 33.53 49.54 54.5 71.07 1.2 1.23 3.34 2.02 5.09 2.13 4.57.3 9.17.1 14.51.1v.01ZM59.49 105.15v-.04c10.09 0 20.17.16 30.26-.04 12.34-.25 21.7-10.07 21.54-22.22-.17-12.4-9.92-22.11-22.34-21.78-4.43.12-6.99-1.43-9.13-5.29-5.38-9.69-16.43-14.94-26.78-13.24-14.8 2.42-24.07 14.12-23.05 29.38.26 3.88-.45 6.62-4.57 8.05-7.18 2.5-10.57 8.25-9.28 15.07 1.16 6.17 6.45 10.07 13.86 10.1 9.83.04 19.66.01 29.49.01Zm105.94 231.44c-.19.53-.43.87-.43 1.22-.02 10.58-.23 21.17.04 31.75.18 6.96 4.94 11.16 11.96 11.19 14.54.05 29.08.03 43.62 0 8.09-.01 12.54-4.4 12.59-12.5.06-8.54 0-17.09 0-25.63v-6.04h-67.78v.01Zm163.41-176.87c-3.22 22.37-10.95 42.94-22.91 62.51 17.81 0 34.78.07 51.75-.02 12.31-.06 22.26-10.16 22.1-22.22-.16-12.39-10.31-22.42-22.72-21.99-4.31.15-6.77-1.3-8.83-5.03-4.12-7.43-10.6-11.81-19.39-13.25ZM205.01 324.89c9.42 0 18.48.08 27.53-.13.91-.02 2.28-1.69 2.59-2.83 1.95-7.26 3.67-14.58 5.45-21.89 1.07-4.39 2.13-8.79 3.24-13.35h-38.8v38.2h-.01Zm-50.46-38.29c.25 1.31.41 2.41.67 3.49 2.16 8.9 4.34 17.8 6.5 26.71 1.313 5.4 4.817 8.1 10.51 8.1h20.76v-38.29h-38.44v-.01ZM64.35 386.94c-10.21 0-20.42.15-30.63-.03-15.89-.28-29.69-12.23-32.17-27.59-2.68-16.62 6.17-32.78 22.02-37.38 7.47-2.17 12.89-5.72 18.46-10.95 11.27-10.58 25.06-12.84 39.46-7.01 14.69 5.95 22.48 17.44 23.96 33.14.22 2.33.75 3.81 2.91 5.16 9.13 5.72 13.18 16.69 10.3 27-2.85 10.19-12.18 17.5-22.91 17.64-10.46.14-20.93.03-31.39.03v-.01h-.01Zm-.01-11.45c9.95 0 19.9.04 29.85-.01 7.35-.04 12.59-4.21 13.71-10.76 1.06-6.17-2.61-12.04-9.31-14.41-3.73-1.32-5.22-3.62-4.77-7.54 1.5-13.09-5.94-24.74-18.3-28.84-12.15-4.03-25.36 1.11-31.73 12.6-1.81 3.27-3.94 4.87-7.83 4.73-13.03-.46-23.34 9.3-23.48 21.94-.14 12.36 9.84 22.16 22.8 22.26 9.69.08 19.39.01 29.08.03h-.02Z"/></g><defs><clipPath id="a"><path fill="#fff" d="M0 0h391.26v392.25H0z"/></clipPath></defs></svg>